<svg xmlns="http://www.w3.org/2000/svg" width="26" height="26" fill="none" viewBox="0 0 26 26">
    <g fill="#CFDDF2" clip-path="url(#clip0)">
        <path d="M9.718 5.847v14.756l.97-.004v-.892l8.92-15.579L13.145.106 9.718 5.847zm2.93.915c.857 0 1.552.695 1.552 1.553 0 .857-.695 1.552-1.552 1.552-.857 0-1.552-.695-1.552-1.552 0-.858.695-1.553 1.552-1.553zm2.47-3.894c.858 0 1.553.695 1.553 1.553 0 .857-.695 1.552-1.553 1.552-.857 0-1.552-.695-1.552-1.552 0-.858.695-1.553 1.552-1.553zM16.548 10.618l-2.627 4.64c.779.084 1.386.742 1.386 1.543 0 .857-.695 1.552-1.553 1.552-.505 0-.955-.243-1.238-.616L9.72 22.675l.886.543L26 13.997 22.36 7.312l-5.811 3.306zm1.154 2.158c.857 0 1.552.695 1.552 1.552 0 .857-.695 1.553-1.552 1.553-.858 0-1.553-.696-1.553-1.553s.695-1.552 1.553-1.552zm4.04-2.463c.858 0 1.553.695 1.553 1.553 0 .857-.695 1.552-1.553 1.552-.857 0-1.552-.695-1.552-1.552 0-.858.695-1.553 1.552-1.553zM24.892 16.165l-1.636.007-5.793 3.682c.06-.007.123-.011.185-.011.858 0 1.553.695 1.553 1.552 0 .858-.695 1.552-1.553 1.552-.857 0-1.552-.694-1.552-1.552 0-.302.085-.583.235-.822l-5.64 3.584-.971-.01-.002.89h15.176l-.002-8.872zm-2.733 6.8c-.858 0-1.553-.695-1.553-1.552 0-.858.695-1.553 1.553-1.553.857 0 1.552.695 1.552 1.553 0 .857-.695 1.552-1.552 1.552zM.95.106h6.975c.523 0 .95.427.95.95v23.172c0 .523-.427.95-.95.95H4.88v-6.826c0-.273-.222-.496-.497-.496-.273 0-.494.223-.494.496v6.826H.949c-.522 0-.949-.427-.949-.95V1.056c0-.523.427-.95.95-.95z"/>
        <path d="M4.383 18.031c.182 0 .33.148.33.329v7.534h-.658V18.36c0-.181.148-.329.328-.329z"/>
    </g>
    <defs>
        <clipPath id="clip0">
            <path fill="#fff" d="M0 0H26V26H0z"/>
        </clipPath>
    </defs>
</svg>
