<svg width="18" height="18" viewBox="0 0 18 18" fill="none" xmlns="http://www.w3.org/2000/svg">
<path fill-rule="evenodd" clip-rule="evenodd" d="M5.75262 1.5H12.2551C14.7976 1.5 16.5001 3.285 16.5001 5.94V12.0683C16.5001 14.715 14.7976 16.5 12.2551 16.5H5.75262C3.21012 16.5 1.50012 14.715 1.50012 12.0683V5.94C1.50012 3.285 3.21012 1.5 5.75262 1.5ZM8.57264 11.2425L12.1351 7.67997C12.3901 7.42497 12.3901 7.01247 12.1351 6.74997C11.8801 6.49497 11.4601 6.49497 11.2051 6.74997L8.10764 9.84747L6.79514 8.53497C6.54014 8.27997 6.12014 8.27997 5.86514 8.53497C5.61014 8.78997 5.61014 9.20247 5.86514 9.46497L7.65014 11.2425C7.77764 11.37 7.94264 11.43 8.10764 11.43C8.28014 11.43 8.44514 11.37 8.57264 11.2425Z" fill="#21BC68"/>
</svg>
