<svg width="18" height="18" viewBox="0 0 18 18" fill="none" xmlns="http://www.w3.org/2000/svg">
<path fill-rule="evenodd" clip-rule="evenodd" d="M9.00012 16.4995C4.86012 16.4995 1.50012 13.147 1.50012 8.99951C1.50012 4.85951 4.86012 1.49951 9.00012 1.49951C13.1476 1.49951 16.5001 4.85951 16.5001 8.99951C16.5001 13.147 13.1476 16.4995 9.00012 16.4995ZM11.3924 11.7826C11.4824 11.8351 11.5799 11.8651 11.6849 11.8651C11.8724 11.8651 12.0599 11.7676 12.1649 11.5876C12.3224 11.3251 12.2399 10.9801 11.9699 10.8151L9.29986 9.22507V5.76007C9.29986 5.44507 9.04486 5.19757 8.73736 5.19757C8.42986 5.19757 8.17486 5.44507 8.17486 5.76007V9.54757C8.17486 9.74257 8.27986 9.92257 8.45236 10.0276L11.3924 11.7826Z" fill="#FF2E4C"/>
</svg>
