<svg width="22" height="22" viewBox="0 0 22 22" fill="none" xmlns="http://www.w3.org/2000/svg">
<path d="M5.5 4.58333H12.8333C13.3396 4.58333 13.75 4.99374 13.75 5.5V6.41667H15.5833V5.5C15.5833 3.98122 14.3521 2.75 12.8333 2.75H5.5C3.98122 2.75 2.75 3.98122 2.75 5.5V12.8333C2.75 14.3521 3.98122 15.5833 5.5 15.5833H6.41667V13.75H5.5C4.99374 13.75 4.58333 13.3396 4.58333 12.8333V5.5C4.58333 4.99374 4.99374 4.58333 5.5 4.58333Z" fill="#9DA4BB"/>
<path fill-rule="evenodd" clip-rule="evenodd" d="M16.4998 8.24935H9.1665C8.66024 8.24935 8.24984 8.65975 8.24984 9.16602V16.4993C8.24984 17.0056 8.66024 17.416 9.1665 17.416H16.4998C17.0061 17.416 17.4165 17.0056 17.4165 16.4993V9.16602C17.4165 8.65975 17.0061 8.24935 16.4998 8.24935ZM9.1665 6.41602C7.64772 6.41602 6.4165 7.64723 6.4165 9.16602V16.4993C6.4165 18.0181 7.64772 19.2493 9.1665 19.2493H16.4998C18.0186 19.2493 19.2498 18.0181 19.2498 16.4993V9.16602C19.2498 7.64723 18.0186 6.41602 16.4998 6.41602H9.1665Z" fill="#9DA4BB"/>
</svg>
