<svg width="11" height="11" viewBox="0 0 11 11" fill="none" xmlns="http://www.w3.org/2000/svg">
<path d="M2.90034 2.57835H5.15615V2.90061C5.15615 3.43371 5.58983 3.86739 6.12293 3.86739C6.30105 3.86739 6.44519 3.72325 6.44519 3.54513V2.25609C6.44519 1.82714 6.16448 1.46271 5.77706 1.33651C5.64616 0.578709 4.984 0.000274873 4.18938 0.000274873C3.76829 0.000274873 3.46491 0.201365 3.1971 0.378543C2.98153 0.521411 2.79522 0.644794 2.57808 0.644794C2.15448 0.644794 1.89895 0.17683 1.89706 0.173994C1.82846 0.0421256 1.67897 -0.0261504 1.53484 0.00940555C1.39038 0.0446607 1.28906 0.173994 1.28906 0.322534C1.28906 0.358735 1.29347 1.21882 1.67678 1.85483C2.03522 2.45278 2.54001 2.57835 2.90034 2.57835Z" fill="white"/>
<path d="M3.86832 7.73461C3.54204 7.73461 3.2209 7.6666 2.9209 7.5459L3.86832 8.80901L4.81559 7.54601C4.51567 7.66664 4.19445 7.73461 3.86832 7.73461Z" fill="white"/>
<path d="M0.322238 11.0001H2.70111L3.48985 9.37968L2.35129 7.86172L0.244208 8.38877C0.100695 8.42465 2.40138e-09 8.55336 2.40138e-09 8.70128V10.6778C-2.14816e-05 10.8559 0.144114 11.0001 0.322238 11.0001Z" fill="white"/>
<path d="M4.31251 11L3.86718 10.0664L3.42188 11H4.31251Z" fill="white"/>
<path d="M5.80068 5.15646V4.47662C5.17073 4.34778 4.67254 3.85294 4.54407 3.2229H3.20291L3.1257 3.43942C2.93412 3.97649 2.47497 4.36226 1.93359 4.47479V5.15646C1.93359 6.24479 2.81317 7.09001 3.86715 7.09001C4.91655 7.09001 5.80068 6.24415 5.80068 5.15646Z" fill="white"/>
<path d="M1.61132 3.86741C2.0309 3.86741 2.38526 3.59718 2.51874 3.22289H2.25584C1.6009 3.22289 1.6889 2.92383 1.28906 2.40076V3.54515C1.28906 3.72327 1.4332 3.86741 1.61132 3.86741Z" fill="white"/>
<path d="M6.44531 5.097C6.8196 4.96352 7.08983 4.60916 7.08983 4.18958C7.08983 4.07583 7.06686 3.96853 7.03042 3.86743C6.93306 4.14036 6.71829 4.35514 6.44531 4.45246V5.097Z" fill="white"/>
<path d="M1.28905 5.09698V4.45246C1.01608 4.35514 0.8013 4.14034 0.703935 3.86743C0.667498 3.96853 0.644531 4.0758 0.644531 4.18958C0.644531 4.60914 0.914757 4.9635 1.28905 5.09698Z" fill="white"/>
<path d="M10.6776 7.09006H9.71086V6.12328C9.71086 5.94516 9.56673 5.80103 9.3886 5.80103H7.41208C7.23395 5.80103 7.08982 5.94516 7.08982 6.12328V7.09006H6.12304C5.94492 7.09006 5.80078 7.2342 5.80078 7.41232C5.80078 7.94542 6.23446 8.3791 6.76756 8.3791H10.0331C10.5662 8.3791 10.9999 7.94542 10.9999 7.41232C10.9999 7.2342 10.8558 7.09006 10.6776 7.09006ZM9.06634 7.09006H7.73434V6.44554H9.06634V7.09006Z" fill="white"/>
<path d="M8.7226 9.02348V9.34574C8.7226 9.52386 8.57846 9.66799 8.40034 9.66799C8.22222 9.66799 8.07808 9.52386 8.07808 9.34574V9.02348H6.76756C6.40345 9.02348 6.07092 8.89748 5.80078 8.69299V10.6777C5.80078 10.8559 5.94492 11 6.12304 11H10.6776C10.8558 11 10.9999 10.8559 10.9999 10.6777V8.69299C10.7298 8.89748 10.3972 9.02348 10.0331 9.02348H8.7226Z" fill="white"/>
<path d="M5.21626 11C5.18014 10.8987 5.1569 10.7913 5.1569 10.6778V8.16394L4.24512 9.37965L5.03386 11H5.21626Z" fill="white"/>
</svg>
