<svg width="25" height="24" viewBox="0 0 25 24" fill="none" xmlns="http://www.w3.org/2000/svg">
<path d="M6.11477 10.4526C5.67602 10.4526 5.30566 10.9359 5.30566 11.5073C5.30566 12.0792 5.67597 12.5625 6.11477 12.5625C6.55352 12.5625 6.9243 12.0792 6.9243 11.5073C6.9243 10.9359 6.55352 10.4526 6.11477 10.4526Z" fill="#6D48F5"/>
<path d="M13.21 16.0305C12.7712 16.0305 12.4009 16.5138 12.4009 17.0857C12.4009 17.6571 12.7712 18.1404 13.21 18.1404C13.6487 18.1404 14.0196 17.6571 14.0196 17.0857C14.0196 16.5138 13.6487 16.0305 13.21 16.0305Z" fill="#6D48F5"/>
<path d="M17.808 7.48555C10.6791 0.925953 11.0437 1.1765 10.4769 0.956329C9.67149 0.636829 8.71308 0.803891 8.05107 1.41289L1.45139 7.48555C0.709316 8.16805 0.283691 9.1393 0.283691 10.1509V20.9045C0.283691 22.1715 1.30936 23.2027 2.56983 23.2027H16.689C17.9495 23.2027 18.9751 22.1715 18.9751 20.9045V10.1509C18.9752 9.1393 18.5495 8.16805 17.808 7.48555ZM8.94924 5.18023C8.99185 4.77158 9.36666 4.48138 9.786 4.56008C10.1871 4.6437 10.413 5.02855 10.3382 5.38695C10.2587 5.7688 9.89954 6.01203 9.51132 5.93914C9.14054 5.8618 8.91422 5.52495 8.94924 5.18023ZM3.89925 11.5074C3.89925 10.1504 4.89305 9.04649 6.11466 9.04649C7.33674 9.04649 8.33049 10.1504 8.33049 11.5074C8.33049 12.8645 7.33669 13.9688 6.11466 13.9688C4.89305 13.9688 3.89925 12.8645 3.89925 11.5074ZM7.93018 18.9915C7.4333 18.9915 7.08652 18.482 7.28236 18.016L10.7053 9.85789C10.8557 9.49977 11.2678 9.33102 11.6259 9.48149C11.984 9.63149 12.1523 10.044 12.0023 10.4021L8.57893 18.5602C8.46596 18.8293 8.20533 18.9915 7.93018 18.9915ZM13.2098 19.5465C11.9882 19.5465 10.9945 18.4426 10.9945 17.0855C10.9945 15.7285 11.9883 14.6241 13.2098 14.6241C14.4315 14.6241 15.4257 15.7285 15.4257 17.0855C15.4257 18.4426 14.4315 19.5465 13.2098 19.5465Z" fill="#6D48F5"/>
<path d="M24.1073 15.2078C21.8179 8.54341 20.5464 4.83803 20.5283 4.79594C20.1304 3.87437 19.3569 3.15766 18.4072 2.83C18.3527 2.81148 18.6742 2.88958 13.5747 1.67969L18.7597 6.45062C19.7905 7.39844 20.3816 8.74703 20.3816 10.1509V19.2634L22.9111 18.1806C24.0553 17.6856 24.5873 16.3567 24.1073 15.2078Z" fill="#6D48F5"/>
</svg>
