<svg width="20" height="20" viewBox="0 0 20 20" fill="none" xmlns="http://www.w3.org/2000/svg">
<path fill-rule="evenodd" clip-rule="evenodd" d="M6.50833 1.6665H13.4925C16.0667 1.6665 17.5 3.14984 17.5 5.6915V14.2998C17.5 16.8832 16.0667 18.3332 13.4925 18.3332H6.50833C3.975 18.3332 2.5 16.8832 2.5 14.2998V5.6915C2.5 3.14984 3.975 1.6665 6.50833 1.6665ZM6.73366 5.55V5.54167H9.22449C9.58366 5.54167 9.87533 5.83333 9.87533 6.19083C9.87533 6.55833 9.58366 6.85 9.22449 6.85H6.73366C6.37449 6.85 6.08366 6.55833 6.08366 6.2C6.08366 5.84167 6.37449 5.55 6.73366 5.55ZM6.73366 10.6165H13.267C13.6253 10.6165 13.917 10.3248 13.917 9.96651C13.917 9.60817 13.6253 9.31567 13.267 9.31567H6.73366C6.37449 9.31567 6.08366 9.60817 6.08366 9.96651C6.08366 10.3248 6.37449 10.6165 6.73366 10.6165ZM6.73379 14.425H13.2671C13.5996 14.3916 13.8505 14.1075 13.8505 13.775C13.8505 13.4333 13.5996 13.15 13.2671 13.1166H6.73379C6.48379 13.0916 6.24212 13.2083 6.10879 13.425C5.97546 13.6333 5.97546 13.9083 6.10879 14.125C6.24212 14.3333 6.48379 14.4583 6.73379 14.425Z" fill="white"/>
</svg>
