<svg width="24" height="24" viewBox="0 0 24 24" fill="none" xmlns="http://www.w3.org/2000/svg">
<path d="M18.654 15.473C18.0093 15.473 17.4882 15.9942 17.4882 16.6389V20.3009C17.4882 20.9445 16.9659 21.4668 16.3223 21.4668H3.49761C2.85403 21.4668 2.33176 20.9445 2.33176 20.3009V5.14454C2.33176 4.50095 2.85407 3.97868 3.49761 3.97868H10.2714C10.9161 3.97868 11.4372 3.45753 11.4372 2.81283C11.4372 2.16812 10.9161 1.64697 10.2714 1.64697H3.49761C1.56925 1.64688 0 3.21618 0 5.14454V20.3009C0 22.2293 1.56925 23.7985 3.49761 23.7985H16.3222C18.2506 23.7985 19.8199 22.2305 19.8199 20.3009V16.6389C19.8199 15.9942 19.2988 15.473 18.654 15.473Z" fill="white"/>
<path d="M22.6961 1.4992C21.8497 0.652795 20.7444 0.226052 19.631 0.202756C18.4593 0.177115 17.2806 0.601467 16.3945 1.4887L8.50148 9.3817C7.34959 10.5383 6.71533 12.0726 6.71533 13.7024V16.314C6.71533 16.9587 7.23648 17.4798 7.88119 17.4798H10.4927C12.1227 17.4798 13.6569 16.8456 14.8146 15.6925L22.6972 7.81001C24.4344 6.07178 24.4344 3.2387 22.6961 1.4992ZM13.1673 14.0429C12.4526 14.7553 11.5013 15.1482 10.4928 15.1482H9.04709V13.7025C9.04709 12.694 9.43999 11.7426 10.1512 11.0291L15.3545 5.82578L18.3694 8.84073L13.1673 14.0429ZM21.0475 6.16271L20.018 7.19221L17.0031 4.17726L18.0325 3.14781C18.865 2.31537 20.2174 2.31772 21.0475 3.14781C21.8776 3.97903 21.8776 5.33145 21.0475 6.16271Z" fill="white"/>
</svg>
