<svg width="21" height="20" viewBox="0 0 21 20" fill="none" xmlns="http://www.w3.org/2000/svg">
<path fill-rule="evenodd" clip-rule="evenodd" d="M3.03352 5.21861C3.08372 5.22765 3.13331 5.24266 3.18118 5.26383L3.27244 5.31326L10.6165 10.082L17.9606 5.31326C18.0352 5.26478 18.1165 5.23356 18.1995 5.21861C17.9548 4.60235 17.3532 4.16663 16.6498 4.16663H4.58317C3.87979 4.16663 3.27817 4.60235 3.03352 5.21861ZM18.3165 6.58445L10.9724 11.3533C10.7877 11.4733 10.555 11.4904 10.3566 11.4047L10.2606 11.3533L2.9165 6.58445V14.1666C2.9165 15.0871 3.6627 15.8333 4.58317 15.8333H16.6498C17.5703 15.8333 18.3165 15.0871 18.3165 14.1666V6.58445Z" fill="#C5C5C9"/>
</svg>
