<svg width="204" height="204" viewBox="0 0 204 204" fill="none" xmlns="http://www.w3.org/2000/svg">
<path opacity="0.2" d="M102 204C158.333 204 204 158.333 204 102C204 45.667 158.333 0 102 0C45.6669 0 0 45.667 0 102C0 158.333 45.6669 204 102 204Z" fill="url(#paint0_linear)"/>
<path opacity="0.2" d="M23.3954 101.683C26.4869 101.683 28.993 99.455 28.993 96.707C28.993 93.9591 26.4869 91.7314 23.3954 91.7314C20.304 91.7314 17.7979 93.9591 17.7979 96.707C17.7979 99.455 20.304 101.683 23.3954 101.683Z" fill="url(#paint1_linear)"/>
<path opacity="0.2" d="M163.543 49.155C167.665 49.155 171.007 45.8135 171.007 41.6916C171.007 37.5697 167.665 34.2282 163.543 34.2282C159.421 34.2282 156.08 37.5697 156.08 41.6916C156.08 45.8135 159.421 49.155 163.543 49.155Z" fill="url(#paint2_linear)"/>
<path opacity="0.2" d="M62.3528 165.781C65.7878 165.781 68.5723 162.997 68.5723 159.562C68.5723 156.127 65.7878 153.342 62.3528 153.342C58.9179 153.342 56.1333 156.127 56.1333 159.562C56.1333 162.997 58.9179 165.781 62.3528 165.781Z" fill="url(#paint3_linear)"/>
<path opacity="0.2" d="M125.635 166.683C127.696 166.683 129.366 165.012 129.366 162.951C129.366 160.89 127.696 159.22 125.635 159.22C123.574 159.22 121.903 160.89 121.903 162.951C121.903 165.012 123.574 166.683 125.635 166.683Z" fill="url(#paint4_linear)"/>
<path d="M168.982 79.6417L169.069 79.2423C169.184 78.7638 169.202 78.2676 169.123 77.782C169.044 77.2965 168.87 76.8311 168.609 76.4126C168.349 75.9941 168.008 75.6307 167.605 75.3431C167.203 75.0556 166.748 74.8496 166.265 74.7369L49.1804 47.3713C48.6971 47.2565 48.1958 47.2375 47.7051 47.3152C47.2144 47.393 46.744 47.566 46.3209 47.8244C45.8977 48.0829 45.5301 48.4216 45.2391 48.8212C44.9482 49.2208 44.7396 49.6734 44.6252 50.1531L44.5246 50.5857L28.7997 116.91L28.7125 117.316C28.5979 117.794 28.5795 118.291 28.6584 118.776C28.7374 119.262 28.9121 119.727 29.1726 120.146C29.433 120.564 29.7742 120.928 30.1764 121.215C30.5786 121.503 31.0341 121.709 31.5167 121.821L31.9125 121.915H31.9528L148.152 149.08L148.561 149.167C149.043 149.281 149.544 149.299 150.033 149.221C150.523 149.142 150.992 148.969 151.414 148.711C151.835 148.452 152.202 148.114 152.492 147.715C152.781 147.316 152.989 146.864 153.103 146.385L153.203 145.953L168.955 79.6283L168.982 79.6417Z" fill="#3F943E"/>
<path d="M171.555 79.2288L171.461 79.6213C171.602 79.0205 171.605 78.3963 171.469 77.7944C171.333 77.1924 171.062 76.6278 170.676 76.142L100.796 98.2683L48.3233 47.7691C47.7511 48.0399 47.2476 48.4331 46.8498 48.92C46.4519 49.4069 46.1698 49.9751 46.0239 50.5831L46.1254 50.1507C46.3597 49.1831 46.9751 48.3467 47.8362 47.8252C48.6972 47.3038 49.7336 47.14 50.7173 47.3699L168.722 74.7251C169.209 74.837 169.669 75.0424 170.075 75.3295C170.481 75.6166 170.826 75.9798 171.089 76.3982C171.352 76.8167 171.529 77.2821 171.609 77.7678C171.689 78.2535 171.671 78.75 171.555 79.2288Z" fill="#3F943E"/>
<path d="M170.772 77.0039C171.156 77.4922 171.424 78.0597 171.559 78.6647C171.694 79.2698 171.691 79.8972 171.551 80.5011C171.551 80.5011 171.551 80.5011 171.551 80.5412L155.79 147.18L155.689 147.615C155.575 148.096 155.366 148.55 155.076 148.951C154.785 149.352 154.418 149.692 153.995 149.952C153.573 150.212 153.103 150.386 152.613 150.464C152.122 150.543 151.621 150.524 151.138 150.41L150.736 150.323C150.73 150.321 150.725 150.32 150.719 150.32C150.713 150.32 150.707 150.321 150.702 150.323L34.4412 123.015L34.0116 122.915C33.5281 122.802 33.0716 122.596 32.6684 122.307C32.2652 122.018 31.9231 121.653 31.6618 121.233C31.4005 120.812 31.2252 120.344 31.1457 119.856C31.0663 119.368 31.0844 118.869 31.199 118.388L31.293 117.98L47.054 51.3405C47.1988 50.7295 47.4789 50.1583 47.8737 49.669C48.2686 49.1796 48.7683 48.7843 49.3363 48.5121" fill="#3F943E"/>
<path d="M100.756 98.6655L31.9763 120.658C31.5956 120.173 31.3287 119.61 31.1952 119.01C31.0616 118.409 31.0646 117.787 31.2041 117.188L46.8345 51.3083C46.9781 50.7042 47.2559 50.1396 47.6475 49.6558C48.0391 49.172 48.5346 48.7812 49.0979 48.5121L100.756 98.6655Z" fill="url(#paint5_linear)"/>
<path d="M171.551 79.3942C171.551 79.3942 171.551 79.3942 171.551 79.4346L155.641 146.438C155.496 147.051 155.213 147.623 154.814 148.113C154.416 148.603 153.911 148.998 153.338 149.268L100.757 98.2393L170.765 75.878C171.152 76.369 171.423 76.9395 171.559 77.5479C171.695 78.1562 171.693 78.7871 171.551 79.3942Z" fill="url(#paint6_linear)"/>
<path d="M100.716 98.2683L31.0972 120.436C31.69 121.204 32.5364 121.742 33.489 121.955L150.183 149.154C151.13 149.379 152.125 149.27 153 148.847L100.716 98.2683Z" fill="url(#paint7_linear)"/>
<path d="M48.5137 47.8903L97.2288 100.358C97.9327 101.107 98.8535 101.632 99.8706 101.865C100.888 102.098 101.954 102.028 102.929 101.664L170.416 76.3683" fill="url(#paint8_linear)"/>
<path d="M100.758 114.439C109.688 114.439 116.928 107.478 116.928 98.8904C116.928 90.303 109.688 83.3416 100.758 83.3416C91.8268 83.3416 84.5869 90.303 84.5869 98.8904C84.5869 107.478 91.8268 114.439 100.758 114.439Z" fill="#C6E9C6"/>
<path d="M102.001 114.439C110.932 114.439 118.172 107.756 118.172 99.5123C118.172 91.2684 110.932 84.5854 102.001 84.5854C93.07 84.5854 85.8301 91.2684 85.8301 99.5123C85.8301 107.756 93.07 114.439 102.001 114.439Z" fill="white"/>
<path d="M98.1325 112.825C95.3759 112.182 92.8718 110.737 90.937 108.671C89.0023 106.605 87.7239 104.011 87.2636 101.218C86.8034 98.4249 87.182 95.5582 88.3515 92.9804C89.521 90.4027 91.4288 88.2299 93.8336 86.737C96.2383 85.244 99.0319 84.4981 101.861 84.5936C104.689 84.6891 107.426 85.6217 109.725 87.2734C112.024 88.925 113.781 91.2216 114.774 93.8723C115.767 96.523 115.951 99.4088 115.304 102.164C114.434 105.852 112.138 109.044 108.92 111.042C105.701 113.04 101.823 113.681 98.1325 112.825ZM104.552 85.4342C101.889 84.8099 99.1002 84.9895 96.539 85.9502C93.9779 86.9109 91.7592 88.6097 90.1635 90.8315C88.5677 93.0534 87.6667 95.6987 87.5743 98.4328C87.4819 101.167 88.2023 103.867 89.6444 106.191C91.0865 108.516 93.1855 110.361 95.676 111.492C98.1664 112.624 100.936 112.991 103.636 112.548C106.335 112.105 108.842 110.871 110.84 109.003C112.838 107.135 114.238 104.716 114.861 102.052C115.686 98.482 115.065 94.7305 113.133 91.6169C111.202 88.5033 108.117 86.2806 104.552 85.4342Z" fill="#74B973"/>
<path fill-rule="evenodd" clip-rule="evenodd" d="M98.2268 105.718C98.051 105.741 97.8714 105.735 97.6966 105.699V105.725C97.4846 105.678 97.2861 105.59 97.1151 105.465C96.9441 105.339 96.8046 105.181 96.7066 105.001L93.4511 99.0233C93.3632 98.8616 93.3105 98.6855 93.2961 98.505C93.2816 98.3244 93.3057 98.143 93.3668 97.9711C93.428 97.7992 93.5251 97.6401 93.6526 97.503C93.7801 97.3658 93.9355 97.2533 94.1099 97.1719C94.2843 97.0904 94.4743 97.0416 94.669 97.0282C94.8638 97.0148 95.0595 97.0371 95.2449 97.0938C95.4304 97.1505 95.602 97.2405 95.7499 97.3587C95.8979 97.4768 96.0192 97.6209 96.1071 97.7825L98.6426 102.428L109.829 94.7466C110.136 94.5535 110.504 94.4903 110.856 94.5703C111.207 94.6502 111.515 94.8671 111.715 95.1753C111.914 95.4836 111.99 95.8593 111.926 96.2238C111.862 96.5882 111.664 96.913 111.372 97.1301L99.1646 105.506C99.008 105.609 98.8327 105.679 98.6493 105.711C98.5094 105.736 98.3669 105.738 98.2268 105.718Z" fill="#74B973"/>
<path opacity="0.2" d="M60.9497 36.6825C65.0717 36.6825 68.4132 33.341 68.4132 29.2191C68.4132 25.0972 65.0717 21.7557 60.9497 21.7557C56.8278 21.7557 53.4863 25.0972 53.4863 29.2191C53.4863 33.341 56.8278 36.6825 60.9497 36.6825Z" fill="url(#paint9_linear)"/>
<path opacity="0.2" d="M183.485 124.39C186.577 124.39 189.083 121.884 189.083 118.793C189.083 115.701 186.577 113.195 183.485 113.195C180.394 113.195 177.888 115.701 177.888 118.793C177.888 121.884 180.394 124.39 183.485 124.39Z" fill="url(#paint10_linear)"/>
<path opacity="0.2" d="M117.118 50.7745C120.553 50.7745 123.338 47.99 123.338 44.555C123.338 41.1201 120.553 38.3355 117.118 38.3355C113.683 38.3355 110.899 41.1201 110.899 44.555C110.899 47.99 113.683 50.7745 117.118 50.7745Z" fill="url(#paint11_linear)"/>
<path d="M169.33 119.658C159.978 120.192 151.191 116.53 147.554 114.764C147.023 114.509 146.432 114.401 145.845 114.451C145.257 114.502 144.693 114.709 144.214 115.052C140.929 117.4 132.899 122.492 123.554 123.54C122.702 123.638 121.924 124.064 121.385 124.727C120.847 125.391 120.592 126.237 120.675 127.085C121.495 135.58 125.833 158.224 148.822 171.229C149.399 171.557 150.064 171.703 150.727 171.647C151.39 171.591 152.02 171.335 152.534 170.914C172.974 154.219 173.394 131.213 172.746 122.663C172.681 121.82 172.288 121.034 171.651 120.473C171.013 119.913 170.181 119.62 169.33 119.658Z" fill="#C27500"/>
<path d="M169.424 118.42C160.288 118.947 151.71 115.285 148.161 113.526C147.643 113.267 147.067 113.157 146.493 113.206C145.918 113.256 145.368 113.463 144.901 113.807C141.694 116.161 133.856 121.247 124.733 122.301C123.903 122.399 123.143 122.824 122.617 123.486C122.09 124.147 121.839 124.992 121.917 125.839C122.717 134.34 126.952 156.975 149.391 169.987C149.957 170.314 150.606 170.459 151.254 170.403C151.902 170.346 152.518 170.092 153.021 169.672C172.973 152.978 173.377 129.932 172.751 121.425C172.689 120.582 172.307 119.796 171.686 119.235C171.065 118.674 170.253 118.382 169.424 118.42Z" fill="url(#paint12_linear)"/>
<path d="M167.33 121.468C159.31 121.93 151.775 118.753 148.664 117.212C148.208 116.988 147.7 116.893 147.195 116.937C146.689 116.981 146.206 117.163 145.795 117.463C142.98 119.5 136.098 123.926 128.111 124.843C127.381 124.928 126.714 125.299 126.253 125.875C125.792 126.452 125.574 127.188 125.646 127.925C126.32 135.311 130.064 154.999 149.768 166.31C150.264 166.595 150.834 166.721 151.402 166.673C151.971 166.624 152.512 166.403 152.953 166.038C170.462 151.517 170.832 131.482 170.28 124.082C170.225 123.344 169.885 122.658 169.334 122.169C168.783 121.681 168.063 121.429 167.33 121.468Z" fill="url(#paint13_linear)"/>
<path d="M149.269 151.756C156.139 151.756 161.708 146.187 161.708 139.317C161.708 132.447 156.139 126.878 149.269 126.878C142.399 126.878 136.83 132.447 136.83 139.317C136.83 146.187 142.399 151.756 149.269 151.756Z" fill="#FFD18C"/>
<path d="M150.978 152.953C148.404 153.178 145.825 152.598 143.565 151.288C141.306 149.978 139.468 147.995 138.284 145.591C137.1 143.187 136.622 140.469 136.912 137.781C137.202 135.092 138.247 132.554 139.913 130.488C141.58 128.421 143.794 126.918 146.275 126.169C148.757 125.42 151.395 125.458 153.855 126.279C156.316 127.1 158.489 128.667 160.1 130.782C161.711 132.896 162.688 135.463 162.906 138.159C163.195 141.777 162.1 145.367 159.864 148.141C157.627 150.915 154.431 152.645 150.978 152.953ZM148.91 127.551C146.692 127.754 144.581 128.641 142.844 130.101C141.107 131.56 139.821 133.525 139.15 135.749C138.478 137.973 138.451 140.356 139.071 142.596C139.691 144.836 140.931 146.833 142.635 148.336C144.338 149.838 146.428 150.778 148.641 151.037C150.854 151.296 153.09 150.862 155.068 149.79C157.046 148.718 158.676 147.056 159.752 145.015C160.829 142.973 161.304 140.643 161.117 138.319C160.993 136.771 160.578 135.264 159.897 133.885C159.216 132.506 158.281 131.281 157.147 130.281C156.013 129.28 154.702 128.524 153.288 128.056C151.875 127.588 150.387 127.416 148.91 127.551Z" fill="url(#paint14_linear)"/>
<path fill-rule="evenodd" clip-rule="evenodd" d="M151.743 138.535C152.515 137.966 153.001 137.134 153.001 136.207C153.001 134.49 151.33 133.098 149.269 133.098C147.208 133.098 145.537 134.49 145.537 136.207C145.537 137.486 146.464 138.585 147.788 139.063L148.472 145.362C148.524 145.775 148.78 146.155 149.186 146.42C149.591 146.684 150.112 146.812 150.635 146.774C151.157 146.731 151.637 146.528 151.971 146.209C152.306 145.889 152.468 145.479 152.423 145.066L151.743 138.535Z" fill="url(#paint15_linear)"/>
<defs>
<linearGradient id="paint0_linear" x1="102" y1="0" x2="102" y2="262.872" gradientUnits="userSpaceOnUse">
<stop stop-color="#74B973"/>
<stop offset="1" stop-color="#F3FBF2"/>
</linearGradient>
<linearGradient id="paint1_linear" x1="23.3954" y1="91.7314" x2="23.3954" y2="105.067" gradientUnits="userSpaceOnUse">
<stop stop-color="#85C284"/>
<stop offset="1" stop-color="#85C284" stop-opacity="0"/>
</linearGradient>
<linearGradient id="paint2_linear" x1="163.543" y1="34.2282" x2="163.543" y2="54.2308" gradientUnits="userSpaceOnUse">
<stop stop-color="#85C284"/>
<stop offset="1" stop-color="#85C284" stop-opacity="0"/>
</linearGradient>
<linearGradient id="paint3_linear" x1="62.3528" y1="153.342" x2="62.3528" y2="170.011" gradientUnits="userSpaceOnUse">
<stop stop-color="#85C284"/>
<stop offset="1" stop-color="#85C284" stop-opacity="0"/>
</linearGradient>
<linearGradient id="paint4_linear" x1="125.635" y1="159.22" x2="125.635" y2="169.221" gradientUnits="userSpaceOnUse">
<stop stop-color="#85C284"/>
<stop offset="1" stop-color="#85C284" stop-opacity="0"/>
</linearGradient>
<linearGradient id="paint5_linear" x1="65.9264" y1="48.5121" x2="65.9264" y2="120.658" gradientUnits="userSpaceOnUse">
<stop stop-color="#8CCC8B"/>
<stop offset="1" stop-color="#74B973"/>
</linearGradient>
<linearGradient id="paint6_linear" x1="136.208" y1="75.878" x2="136.208" y2="149.268" gradientUnits="userSpaceOnUse">
<stop stop-color="#8CCC8B"/>
<stop offset="1" stop-color="#74B973"/>
</linearGradient>
<linearGradient id="paint7_linear" x1="92.0484" y1="98.2683" x2="92.0484" y2="149.268" gradientUnits="userSpaceOnUse">
<stop stop-color="#74B973"/>
<stop offset="1" stop-color="#489647"/>
</linearGradient>
<linearGradient id="paint8_linear" x1="109.465" y1="47.8903" x2="97.894" y2="112.269" gradientUnits="userSpaceOnUse">
<stop stop-color="#B4EAB3"/>
<stop offset="1" stop-color="#8CCC8B"/>
</linearGradient>
<linearGradient id="paint9_linear" x1="60.9497" y1="21.7557" x2="60.9497" y2="41.7583" gradientUnits="userSpaceOnUse">
<stop stop-color="#85C284"/>
<stop offset="1" stop-color="#85C284" stop-opacity="0"/>
</linearGradient>
<linearGradient id="paint10_linear" x1="183.485" y1="113.195" x2="183.485" y2="128.197" gradientUnits="userSpaceOnUse">
<stop stop-color="#85C284"/>
<stop offset="1" stop-color="#85C284" stop-opacity="0"/>
</linearGradient>
<linearGradient id="paint11_linear" x1="117.118" y1="38.3355" x2="117.118" y2="55.0043" gradientUnits="userSpaceOnUse">
<stop stop-color="#85C284"/>
<stop offset="1" stop-color="#85C284" stop-opacity="0"/>
</linearGradient>
<linearGradient id="paint12_linear" x1="147.403" y1="113.195" x2="147.403" y2="170.414" gradientUnits="userSpaceOnUse">
<stop stop-color="#FFA620"/>
<stop offset="1" stop-color="#F39200"/>
</linearGradient>
<linearGradient id="paint13_linear" x1="148.023" y1="116.927" x2="148.023" y2="166.683" gradientUnits="userSpaceOnUse">
<stop stop-color="#FFD18C"/>
<stop offset="1" stop-color="#F4B75B"/>
</linearGradient>
<linearGradient id="paint14_linear" x1="149.891" y1="125.634" x2="149.891" y2="153" gradientUnits="userSpaceOnUse">
<stop stop-color="#FFA620"/>
<stop offset="1" stop-color="#F39200"/>
</linearGradient>
<linearGradient id="paint15_linear" x1="149.269" y1="133.098" x2="149.269" y2="146.781" gradientUnits="userSpaceOnUse">
<stop stop-color="#FFA620"/>
<stop offset="1" stop-color="#F39200"/>
</linearGradient>
</defs>
</svg>
