<svg width="19" height="16" viewBox="0 0 19 16" fill="none" xmlns="http://www.w3.org/2000/svg">
<path fill-rule="evenodd" clip-rule="evenodd" d="M9.54894 13.3337C13.4305 13.3337 16.0927 11.2281 17.5354 9.66299C18.4435 8.67786 18.4435 7.32279 17.5354 6.33766C16.0927 4.7725 13.4305 2.66699 9.54894 2.66699C5.66731 2.66699 3.00515 4.7725 1.56242 6.33766C0.654324 7.32279 0.654324 8.67786 1.56242 9.66299C3.00515 11.2281 5.66731 13.3337 9.54894 13.3337ZM9.54832 10.6668C11.2543 10.6668 12.6372 9.4729 12.6372 8.00016C12.6372 6.5274 11.2543 5.3335 9.54832 5.3335C7.84241 5.3335 6.45947 6.5274 6.45947 8.00016C6.45947 9.4729 7.84241 10.6668 9.54832 10.6668Z" fill="white"/>
<path fill-rule="evenodd" clip-rule="evenodd" d="M8.00871 7.94386C8.00779 7.96259 8.00732 7.98139 8.00732 8.00033C8.00732 8.33846 8.15312 8.64719 8.39344 8.88226C8.56981 9.05479 8.79715 9.18766 9.05515 9.26319C9.21099 9.30886 9.37802 9.33366 9.55177 9.33366C10.4048 9.33366 11.0962 8.73673 11.0962 8.00033C11.0962 7.85033 11.0675 7.70613 11.0146 7.57159C10.9271 7.34886 10.7732 7.15259 10.5733 7.00033C10.3011 6.79286 9.94344 6.66699 9.55177 6.66699C9.52984 6.66699 9.50806 6.66739 9.48636 6.66819C9.52868 6.77213 9.55177 6.88386 9.55177 7.00033C9.55177 7.08753 9.53887 7.17213 9.51455 7.25273C9.40929 7.60219 9.0906 7.87733 8.6858 7.96819C8.59244 7.98919 8.49444 8.00033 8.39344 8.00033C8.25853 8.00033 8.1291 7.98039 8.00871 7.94386Z" fill="white"/>
</svg>
