<svg width="239" height="265" viewBox="0 0 239 265" fill="none" xmlns="http://www.w3.org/2000/svg">
<circle cx="119.585" cy="168.771" r="96.229" fill="#6D48F5" fill-opacity="0.06"/>
<mask id="mask0" mask-type="alpha" maskUnits="userSpaceOnUse" x="0" y="0" width="239" height="265">
<path d="M238.391 132.5C218.001 194.5 191.501 265 118.475 265C39.001 256.5 26.001 201.5 3.0002 132.5C-13.0007 48.5 61.4455 0 118.475 0C175.505 0 238.391 59.3223 238.391 132.5Z" fill="#C4C4C4"/>
</mask>
<g mask="url(#mask0)">
<g clip-path="url(#clip0)">
<path d="M57.1082 131.03C57.1082 131.03 53.6187 128.655 48.5163 130.484C43.4139 132.313 42.2687 139.184 43.5218 144.766C44.7809 150.342 37.7539 169.384 37.7539 169.384C37.7539 169.384 41.4053 174.523 54.1703 172.556C54.1703 172.556 63.6856 155.258 62.9781 142.841C62.2706 130.43 57.1082 131.03 57.1082 131.03Z" fill="#0E3944"/>
<path d="M61.1392 152.489C65.9358 150.954 68.8737 154.947 71.6198 162.382C74.3658 169.816 75.2952 170.56 75.2952 170.56L85.9017 177.377L85.0203 181.352C85.0203 181.352 74.9234 177.401 72.4831 174.883C70.0429 172.37 63.0218 159.629 63.0218 159.629L61.1392 152.489Z" fill="#EF6E4B"/>
<path d="M37.7611 200.508C37.7611 200.508 35.6806 211.048 36.0223 226.913C36.0223 226.913 27.8201 239.007 34.5893 273.512H38.1388C38.1388 273.512 41.0408 244.157 43.2592 236.201C45.4776 228.244 53.6738 225.804 54.1175 201.617L37.7611 200.508Z" fill="#FF8B66"/>
<path d="M21.5295 231.501C19.467 224.702 14.1668 213.316 0.56237 197.882C0.56237 197.882 -0.247058 197.463 -1.34428 198.134C-2.50146 198.842 -2.50146 199.675 -2.50146 199.675C-2.50146 199.675 4.32171 214.539 8.66864 225.427C10.1316 229.09 13.6751 231.501 17.6203 231.501H21.5295Z" fill="#FF8B66"/>
<path d="M46.2968 244.65C46.2968 244.65 46.3448 249.722 43.0172 249.806C38.3165 249.932 38.1426 244.811 32.8184 244.979C27.4941 245.147 16.5099 246.478 13.0144 238.156C11.2096 233.857 13.6799 228.335 7.858 224.174C2.03611 220.013 4.86012 215.354 7.858 212.86C10.8559 210.372 6.56891 207.644 9.68671 206.373C10.4302 206.073 11.1617 206.109 11.8452 206.331C12.2469 206.469 12.6186 206.666 12.9784 206.9C14.6272 207.998 15.7904 209.91 15.7904 209.91C24.6102 185.753 40.3131 182.563 40.3131 182.563L55.8421 187.924C56.2078 225.511 46.2968 244.65 46.2968 244.65Z" fill="#6D48F5"/>
<path d="M61.1376 152.489C61.1376 152.489 57.5162 153.712 52.3598 152.926C47.2035 152.141 45.5307 148.909 41.9092 150.99C36.4711 154.113 39.0133 164.876 40.3803 170.476C40.8899 172.562 41.5375 178.043 40.3083 182.569C40.3083 182.569 47.5512 188.205 55.8374 187.924L60.3582 178.09C60.3582 178.084 70.1912 166.321 61.1376 152.489Z" fill="#70EFF5"/>
<path d="M51.9345 143.459C51.9345 143.459 52.54 148.55 50.6514 153.184C50.6514 153.184 53.3375 157.153 55.9037 154.539C55.9037 154.539 56.1375 149.875 59.0215 144.592C60.9581 141.061 51.9345 143.459 51.9345 143.459Z" fill="#EF6E4B"/>
<path d="M47.8139 143.632C47.8139 143.632 45.5475 142.199 45.7993 144.411C46.0991 146.977 48.5993 147.475 48.8632 146.582C49.133 145.682 47.8139 143.632 47.8139 143.632Z" fill="#FF8B66"/>
<path d="M60.8227 140.856C60.8227 140.856 62.2616 138.59 62.9751 140.7C63.8026 143.147 61.752 144.664 61.1284 143.968C60.5049 143.273 60.8227 140.856 60.8227 140.856Z" fill="#FF8B66"/>
<path d="M56.1417 151.294C52.0286 152.218 49.1026 150.047 47.2979 141.989C46.3686 137.834 47.9095 134.806 52.5202 133.775C57.131 132.743 59.6372 134.86 60.5725 139.015C62.5092 147.679 60.3927 150.347 56.1417 151.294Z" fill="#FF8B66"/>
<path d="M59.8541 142.199C60.016 142.595 59.7522 143.086 59.2545 143.29C58.7569 143.494 58.2233 143.338 58.0554 142.943C57.8935 142.547 58.1573 142.055 58.655 141.851C59.1526 141.647 59.6862 141.803 59.8541 142.199Z" fill="#DB614D"/>
<path d="M51.4448 144.322C51.5108 144.747 51.133 145.161 50.6054 145.239C50.0718 145.323 49.5921 145.047 49.5202 144.621C49.4542 144.196 49.832 143.782 50.3596 143.704C50.8932 143.62 51.3789 143.896 51.4448 144.322Z" fill="#DB614D"/>
<path d="M56.9878 138.445C56.9458 138.445 56.9098 138.433 56.8738 138.409C56.1723 137.941 55.171 138.187 55.165 138.193C55.0511 138.223 54.9372 138.151 54.9072 138.043C54.8773 137.929 54.9492 137.816 55.0571 137.786C55.1051 137.774 56.2503 137.486 57.1077 138.061C57.2036 138.127 57.2276 138.259 57.1676 138.355C57.1197 138.409 57.0537 138.445 56.9878 138.445Z" fill="#0E3944"/>
<path d="M49.2408 140.179C49.2049 140.179 49.1689 140.167 49.1329 140.149C49.031 140.089 49.001 139.957 49.061 139.861C49.5946 138.973 50.7518 138.746 50.7997 138.74C50.9136 138.722 51.0216 138.794 51.0456 138.907C51.0695 139.021 50.9916 139.129 50.8777 139.153C50.8657 139.153 49.8584 139.357 49.4207 140.083C49.3847 140.143 49.3128 140.179 49.2408 140.179Z" fill="#0E3944"/>
<path d="M57.1668 140.699C57.2808 141.209 57.1429 141.677 56.8611 141.737C56.5793 141.802 56.2555 141.437 56.1416 140.927C56.0276 140.417 56.1655 139.95 56.4473 139.89C56.7291 139.83 57.0529 140.19 57.1668 140.699Z" fill="#1A4850"/>
<path d="M51.451 141.93C51.5649 142.439 51.427 142.907 51.1452 142.967C50.8634 143.033 50.5397 142.667 50.4257 142.158C50.3118 141.648 50.4497 141.18 50.7315 141.12C51.0133 141.06 51.3371 141.42 51.451 141.93Z" fill="#1A4850"/>
<path d="M53.3018 146.768C53.3018 146.768 55.9459 146.552 57.1091 145.569C57.1091 145.569 56.7913 147.631 55.3523 147.775C53.9133 147.925 53.3018 146.768 53.3018 146.768Z" fill="#1A4850"/>
<path d="M55.7291 140.759C55.7291 140.759 55.8251 139.416 56.3347 139.398C56.8503 139.38 57.4679 140.37 57.4679 140.37L58.1094 139.818L57.4019 140.076C57.4019 140.076 56.7724 139.039 56.2807 139.147C55.5852 139.296 55.7291 140.759 55.7291 140.759Z" fill="#1A4850"/>
<path d="M51.7666 141.803C51.7666 141.803 51.1071 140.627 50.6334 140.831C50.1597 141.035 50.0278 142.192 50.0278 142.192L49.2124 141.97L49.9619 141.905C49.9619 141.905 50.0878 140.693 50.5794 140.585C51.2749 140.424 51.7666 141.803 51.7666 141.803Z" fill="#1A4850"/>
<path d="M54.6308 144.388L54.421 143.986C54.7627 143.807 54.7927 143.561 54.7567 143.393C54.7088 143.147 54.5109 142.955 54.367 142.943C54.2831 142.937 54.2111 143.009 54.1571 143.153L53.7314 142.997C53.9113 142.505 54.2591 142.481 54.397 142.487C54.7567 142.517 55.1105 142.871 55.2004 143.297C55.2963 143.741 55.0805 144.148 54.6308 144.388Z" fill="#DB614D"/>
<path d="M48.1367 145.083C48.1367 145.083 46.8656 140.413 47.6211 137.115C47.6211 137.115 51.2005 132.132 58.1076 134.597C58.1076 134.597 60.1582 137.894 61.1715 142.511C61.1715 142.511 61.4293 140.85 60.7398 137.157C60.0503 133.463 56.7766 131.167 52.2798 131.911C47.7889 132.648 42.9803 137.115 48.1367 145.083Z" fill="#0E3944"/>
<path d="M55.3836 133.559C55.3836 133.559 55.6594 134.777 54.4722 137.918C54.4722 137.918 53.6208 137.025 52.6195 137.918C51.6182 138.812 49.5917 138.512 48.9022 138.992C48.2126 139.471 48.2126 140.574 48.2126 140.574C48.2126 140.574 47.6131 139.201 48.2126 137.559C48.2126 137.559 46.8636 139.273 47.0435 141.384C47.0435 141.384 45.2148 141.09 45.2987 138.074C45.3826 135.058 49.6636 130.184 54.4722 130.502C59.2808 130.819 60.42 138.428 60.42 138.428C60.42 138.428 59.9823 138.086 59.2928 138.236C59.2928 138.236 59.1849 136.623 58.1057 134.597C58.1057 134.597 58.6033 136.06 58.1057 137.643C58.1057 137.643 56.7686 136.941 55.7133 137.163C55.7193 137.157 56.3669 135.88 55.3836 133.559Z" fill="#0E3944"/>
<path d="M40.6852 151.948C43.0236 150.102 44.8463 152.452 45.29 155.696C45.7337 158.94 41.5067 178.078 38.245 177.371C36.9859 177.101 36.4702 172.082 36.4702 172.082C36.4702 172.082 37.7473 166.704 38.5687 158.604C38.9585 154.886 39.4681 152.914 40.6852 151.948Z" fill="#FF8B66"/>
<path d="M33.8821 174.666C30.7343 171.662 25.0863 161.709 23.6533 156.637L26.0456 155.678C26.0456 155.678 33.2405 165.972 36.5202 168.569C39.7999 171.165 40.9571 174.055 39.4881 176.531C38.0252 179.007 34.5476 175.302 33.8821 174.666Z" fill="#FF8B66"/>
<path d="M24.6347 150C24.4728 153.255 27.1229 154.029 25.9477 156.529C25.7019 157.045 25.3362 157.321 24.9524 157.452C24.221 157.71 23.4115 157.464 22.8719 156.919C21.6128 155.642 19.6582 154.293 18.6209 153.699C17.4398 153.016 18.1113 152.83 18.1113 152.83C17.9974 152.776 17.8834 152.734 17.7755 152.686C16.9361 152.332 16.2586 152.2 16.8702 151.828C17.5597 151.403 19.9939 152.29 19.9939 152.29C16.8222 150.18 15.9648 150.695 16.5404 150.246C17.3318 149.634 20.3417 151.043 20.4316 151.085C18.7588 149.502 17.5417 149.142 18.2072 148.903C18.8787 148.663 22.1944 151.061 23.4055 151.96C23.6753 152.164 23.8432 152.29 23.8432 152.29C23.7953 149.634 24.6347 150 24.6347 150Z" fill="#FF8B66"/>
<path d="M23.4008 151.96C23.6706 152.164 23.8385 152.29 23.8385 152.29C23.8385 152.29 23.2689 153.244 24.0064 154.479C24.0064 154.485 22.6573 153.597 23.4008 151.96Z" fill="#EF6E4B"/>
<path d="M20.6181 153.831C20.3363 153.675 18.7355 152.776 18.0999 152.83C17.986 152.776 17.8721 152.734 17.7642 152.686C18.1959 152.123 20.3004 153.603 20.6181 153.831Z" fill="#EF6E4B"/>
<path d="M33.1893 202.146C33.1893 202.5 32.9015 202.787 32.5478 202.787C32.194 202.787 31.9062 202.5 31.9062 202.146C31.9062 201.792 32.194 201.504 32.5478 201.504C32.9015 201.504 33.1893 201.792 33.1893 202.146Z" fill="white"/>
<path d="M44.6044 206.546C44.6044 206.9 44.3166 207.188 43.9628 207.188C43.6091 207.188 43.3213 206.9 43.3213 206.546C43.3213 206.193 43.6091 205.905 43.9628 205.905C44.3166 205.905 44.6044 206.193 44.6044 206.546Z" fill="white"/>
<path d="M54.3295 208.908C54.3295 209.261 54.0417 209.549 53.6879 209.549C53.3342 209.549 53.0464 209.261 53.0464 208.908C53.0464 208.554 53.3342 208.266 53.6879 208.266C54.0417 208.266 54.3295 208.554 54.3295 208.908Z" fill="white"/>
<path d="M39.3856 193.787C39.3856 194.141 39.0978 194.429 38.7441 194.429C38.3903 194.429 38.1025 194.141 38.1025 193.787C38.1025 193.433 38.3903 193.146 38.7441 193.146C39.0978 193.146 39.3856 193.433 39.3856 193.787Z" fill="white"/>
<path d="M40.9008 200.509C41.2551 200.509 41.5424 200.221 41.5424 199.867C41.5424 199.513 41.2551 199.226 40.9008 199.226C40.5465 199.226 40.2593 199.513 40.2593 199.867C40.2593 200.221 40.5465 200.509 40.9008 200.509Z" fill="white"/>
<path d="M51.664 203.332C51.664 203.686 51.3762 203.974 51.0224 203.974C50.6687 203.974 50.3809 203.686 50.3809 203.332C50.3809 202.979 50.6687 202.691 51.0224 202.691C51.3762 202.691 51.664 202.979 51.664 203.332Z" fill="white"/>
<path d="M53.056 192.846C53.056 193.2 52.7682 193.488 52.4145 193.488C52.0607 193.488 51.7729 193.2 51.7729 192.846C51.7729 192.492 52.0607 192.205 52.4145 192.205C52.7682 192.205 53.056 192.492 53.056 192.846Z" fill="white"/>
<path d="M45.7836 191.306C46.138 191.306 46.4252 191.018 46.4252 190.664C46.4252 190.31 46.138 190.022 45.7836 190.022C45.4293 190.022 45.1421 190.31 45.1421 190.664C45.1421 191.018 45.4293 191.306 45.7836 191.306Z" fill="white"/>
<path d="M27.5258 214.628C27.5258 214.982 27.238 215.27 26.8842 215.27C26.5305 215.27 26.2427 214.982 26.2427 214.628C26.2427 214.275 26.5305 213.987 26.8842 213.987C27.238 213.987 27.5258 214.275 27.5258 214.628Z" fill="white"/>
<path d="M18.4037 211.906C18.4037 212.26 18.1159 212.548 17.7622 212.548C17.4084 212.548 17.1206 212.26 17.1206 211.906C17.1206 211.552 17.4084 211.265 17.7622 211.265C18.1159 211.265 18.4037 211.552 18.4037 211.906Z" fill="white"/>
<path d="M12.9727 206.9C12.8588 207.074 12.6609 207.188 12.4331 207.188C12.0793 207.188 11.7915 206.9 11.7915 206.546C11.7915 206.468 11.8035 206.39 11.8395 206.324C12.2352 206.468 12.6129 206.66 12.9727 206.9Z" fill="white"/>
<path d="M30.1567 223.616C30.511 223.616 30.7982 223.329 30.7982 222.975C30.7982 222.62 30.511 222.333 30.1567 222.333C29.8024 222.333 29.5151 222.62 29.5151 222.975C29.5151 223.329 29.8024 223.616 30.1567 223.616Z" fill="white"/>
<path d="M14.4223 232.04C14.4223 232.394 14.1345 232.682 13.7807 232.682C13.427 232.682 13.1392 232.394 13.1392 232.04C13.1392 231.687 13.427 231.399 13.7807 231.399C14.1345 231.399 14.4223 231.687 14.4223 232.04Z" fill="white"/>
<path d="M20.4741 227.184C20.8284 227.184 21.1156 226.897 21.1156 226.542C21.1156 226.188 20.8284 225.901 20.4741 225.901C20.1197 225.901 19.8325 226.188 19.8325 226.542C19.8325 226.897 20.1197 227.184 20.4741 227.184Z" fill="white"/>
<path d="M10.5146 222.321C10.8689 222.321 11.1561 222.033 11.1561 221.679C11.1561 221.325 10.8689 221.038 10.5146 221.038C10.1603 221.038 9.87305 221.325 9.87305 221.679C9.87305 222.033 10.1603 222.321 10.5146 222.321Z" fill="white"/>
<path d="M19.1889 240.836C19.1889 241.19 18.9011 241.477 18.5473 241.477C18.1936 241.477 17.9058 241.19 17.9058 240.836C17.9058 240.482 18.1936 240.194 18.5473 240.194C18.9071 240.194 19.1889 240.482 19.1889 240.836Z" fill="white"/>
<path d="M25.287 207.188C25.287 207.542 24.9992 207.829 24.6455 207.829C24.2917 207.829 24.0039 207.542 24.0039 207.188C24.0039 206.834 24.2917 206.546 24.6455 206.546C24.9992 206.546 25.287 206.834 25.287 207.188Z" fill="white"/>
<path d="M31.4349 196.413C31.4349 196.767 31.1472 197.055 30.7934 197.055C30.4397 197.055 30.1519 196.767 30.1519 196.413C30.1519 196.059 30.4397 195.771 30.7934 195.771C31.1472 195.771 31.4349 196.059 31.4349 196.413Z" fill="white"/>
<path d="M38.3886 187.444C38.3886 187.798 38.1008 188.085 37.747 188.085C37.3933 188.085 37.1055 187.798 37.1055 187.444C37.1055 187.09 37.3933 186.802 37.747 186.802C38.1068 186.802 38.3886 187.09 38.3886 187.444Z" fill="white"/>
<path d="M24.2914 200.509C24.2914 200.862 24.0036 201.15 23.6498 201.15C23.2961 201.15 23.0083 200.862 23.0083 200.509C23.0083 200.155 23.2961 199.867 23.6498 199.867C24.0036 199.867 24.2914 200.155 24.2914 200.509Z" fill="white"/>
<path d="M32.0761 190.022C32.0761 190.376 31.7883 190.663 31.4345 190.663C31.0808 190.663 30.793 190.376 30.793 190.022C30.793 189.668 31.0808 189.38 31.4345 189.38C31.7883 189.38 32.0761 189.668 32.0761 190.022Z" fill="white"/>
<path d="M19.8314 218.837C19.8314 219.191 19.5436 219.479 19.1899 219.479C18.8361 219.479 18.5483 219.191 18.5483 218.837C18.5483 218.484 18.8361 218.196 19.1899 218.196C19.5436 218.196 19.8314 218.484 19.8314 218.837Z" fill="white"/>
<path d="M11.7909 213.184C11.7909 213.538 11.5031 213.826 11.1494 213.826C10.7956 213.826 10.5078 213.538 10.5078 213.184C10.5078 212.83 10.7956 212.542 11.1494 212.542C11.5091 212.548 11.7909 212.83 11.7909 213.184Z" fill="white"/>
<path d="M34.4663 211.906C34.8206 211.906 35.1078 211.619 35.1078 211.265C35.1078 210.91 34.8206 210.623 34.4663 210.623C34.1119 210.623 33.8247 210.91 33.8247 211.265C33.8247 211.619 34.1119 211.906 34.4663 211.906Z" fill="white"/>
<path d="M47.7001 215.27C48.0545 215.27 48.3417 214.983 48.3417 214.628C48.3417 214.274 48.0545 213.987 47.7001 213.987C47.3458 213.987 47.0586 214.274 47.0586 214.628C47.0586 214.983 47.3458 215.27 47.7001 215.27Z" fill="white"/>
<path d="M47.6986 196.413C47.6986 196.767 47.4108 197.055 47.0571 197.055C46.7033 197.055 46.4155 196.767 46.4155 196.413C46.4155 196.059 46.7033 195.771 47.0571 195.771C47.4108 195.771 47.6986 196.059 47.6986 196.413Z" fill="white"/>
<path d="M55.393 197.75C55.393 198.104 55.1052 198.392 54.7514 198.392C54.3977 198.392 54.1099 198.104 54.1099 197.75C54.1099 197.397 54.3977 197.109 54.7514 197.109C55.1052 197.109 55.393 197.397 55.393 197.75Z" fill="white"/>
<path d="M40.0263 219.479C40.0263 219.833 39.7385 220.121 39.3847 220.121C39.031 220.121 38.7432 219.833 38.7432 219.479C38.7432 219.126 39.031 218.838 39.3847 218.838C39.7385 218.838 40.0263 219.126 40.0263 219.479Z" fill="white"/>
<path d="M33.8276 231.5C34.1819 231.5 34.4691 231.213 34.4691 230.859C34.4691 230.505 34.1819 230.217 33.8276 230.217C33.4733 230.217 33.186 230.505 33.186 230.859C33.186 231.213 33.4733 231.5 33.8276 231.5Z" fill="white"/>
<path d="M24.0043 233.323C24.3587 233.323 24.6459 233.036 24.6459 232.682C24.6459 232.327 24.3587 232.04 24.0043 232.04C23.65 232.04 23.3628 232.327 23.3628 232.682C23.3628 233.036 23.65 233.323 24.0043 233.323Z" fill="white"/>
<path d="M51.0224 223.616C51.3767 223.616 51.664 223.329 51.664 222.975C51.664 222.62 51.3767 222.333 51.0224 222.333C50.6681 222.333 50.3809 222.62 50.3809 222.975C50.3809 223.329 50.6681 223.616 51.0224 223.616Z" fill="white"/>
<path d="M42.8202 227.826C42.8202 228.18 42.5324 228.468 42.1787 228.468C41.8249 228.468 41.5371 228.18 41.5371 227.826C41.5371 227.472 41.8249 227.185 42.1787 227.185C42.5324 227.185 42.8202 227.472 42.8202 227.826Z" fill="white"/>
<path d="M29.5145 242.113C29.5145 242.467 29.2267 242.755 28.873 242.755C28.5192 242.755 28.2314 242.467 28.2314 242.113C28.2314 241.759 28.5192 241.472 28.873 241.472C29.2267 241.472 29.5145 241.759 29.5145 242.113Z" fill="white"/>
<path d="M38.748 239.421C39.1023 239.421 39.3895 239.134 39.3895 238.78C39.3895 238.425 39.1023 238.138 38.748 238.138C38.3937 238.138 38.1064 238.425 38.1064 238.78C38.1064 239.134 38.3937 239.421 38.748 239.421Z" fill="white"/>
<path d="M48.2587 235.655C48.6131 235.655 48.9003 235.368 48.9003 235.014C48.9003 234.659 48.6131 234.372 48.2587 234.372C47.9044 234.372 47.6172 234.659 47.6172 235.014C47.6172 235.368 47.9044 235.655 48.2587 235.655Z" fill="white"/>
<path d="M44.6044 246.022C44.6044 246.376 44.3166 246.664 43.9628 246.664C43.6091 246.664 43.3213 246.376 43.3213 246.022C43.3213 245.669 43.6091 245.381 43.9628 245.381C44.3166 245.381 44.6044 245.669 44.6044 246.022Z" fill="white"/>
<path d="M0.694211 198.302C-0.426996 197.283 -2.24371 198.968 -2.24371 198.968C-2.24371 198.968 -1.2664 200.419 -1.89596 201.006C-2.52551 201.594 -3.26299 200.257 -4.50411 200.838C-4.60604 200.886 -4.70797 200.946 -4.8099 201.012C-5.78121 201.594 -6.7945 202.811 -7.60992 203.734C-7.7778 203.92 -7.93369 204.094 -8.08358 204.244C-9.03691 205.245 -11.4892 205.827 -11.9509 203.165C-12.4125 200.503 -9.41464 197.379 -6.12897 194.513C-2.84329 191.647 -0.714793 193.35 -0.714793 193.35C-0.714793 193.35 0.0286818 194.555 0.0286818 195.304C0.0286818 196.048 0.694212 196.426 1.06595 197.133C1.44368 197.841 0.694211 198.302 0.694211 198.302Z" fill="#164353"/>
<path d="M189.826 275.173C189.31 274.904 188.83 274.304 188.399 273.549C188.399 273.549 188.027 271.312 188.399 268.962C188.77 266.612 187.745 264.693 184.417 263.967C181.18 263.266 179.261 264.825 180.01 271.33C179.519 274.034 179.417 277.116 180.538 279.718H190.497C190.503 279.718 192.074 276.355 189.826 275.173Z" fill="#CFD8DC"/>
<path d="M198.569 240.111C198.569 240.111 198.569 246.599 194.906 253.26C191.177 260.041 186.566 269.34 186.566 269.34C186.566 269.34 183.496 272.338 181.542 267.374C181.542 267.374 182.921 250.094 186.08 243.775C189.24 237.455 198.569 240.111 198.569 240.111Z" fill="#FF8B66"/>
<path d="M246.332 218.975C246.332 218.975 252.262 243.923 256.039 250.507C256.039 250.507 255.17 253.259 251.087 254.092C251.087 254.092 238.178 235.122 237.35 227.129C236.511 219.143 246.332 218.975 246.332 218.975Z" fill="#FF8B66"/>
<path d="M249.198 224.846C247.621 228.647 235.432 228.851 235.432 228.851L234.502 227.478L234.257 227.118L232.35 224.306C232.35 224.306 212.15 204.496 208.217 206.157H208.211C208.097 206.211 207.983 206.271 207.875 206.349C205.171 208.279 204.919 218.856 201.724 236.609C201.418 238.294 200.74 240.255 200.225 241.616C200.165 241.76 200.111 241.904 200.057 242.035C199.763 242.785 199.559 243.265 199.559 243.265C187.232 248.259 183.161 238.39 183.161 238.39C183.161 238.39 183.305 238.102 183.52 237.647C183.568 237.545 183.622 237.431 183.676 237.311C184.324 235.884 185.355 233.42 185.343 232.113C185.331 230.68 185.319 229.3 185.307 227.981C185.307 227.862 185.307 227.748 185.301 227.634C185.283 223.365 185.289 219.659 185.313 216.44V216.098C185.325 214.695 185.349 213.382 185.373 212.159V211.811C185.481 206.199 185.661 202.451 185.853 199.957C185.859 199.843 185.871 199.723 185.877 199.615C186.218 195.412 186.578 195.005 186.578 195.005L184.108 177.839H211.053C211.053 177.839 215.1 181.892 220.352 187.246C220.466 187.354 220.574 187.462 220.676 187.57C222.583 189.507 224.639 191.611 226.702 193.746C226.786 193.83 226.87 193.914 226.942 193.991C227.751 194.831 228.567 195.67 229.37 196.504C229.472 196.606 229.562 196.708 229.664 196.809C232.368 199.609 234.988 202.374 237.23 204.79C237.308 204.868 237.386 204.952 237.458 205.03C240.528 208.351 242.866 211.007 243.67 212.249C245.804 215.516 247.471 219.773 248.389 222.399C248.389 222.399 248.389 222.399 248.389 222.405C248.437 222.525 248.472 222.633 248.514 222.747C248.958 224.03 249.198 224.846 249.198 224.846Z" fill="#B73B4D"/>
<path d="M190.619 197.582C189.522 198.883 187.921 199.68 185.858 199.962C185.864 199.848 185.876 199.728 185.882 199.62C187.825 199.339 189.33 198.583 190.361 197.36C192.214 195.177 191.914 192.228 191.908 192.204L192.244 192.162C192.256 192.288 192.562 195.285 190.619 197.582Z" fill="white"/>
<path d="M220.69 187.575C220.582 187.581 220.486 187.587 220.378 187.587C217.38 187.587 214.256 184.313 214.094 184.145L214.334 183.912C214.376 183.96 217.488 187.221 220.366 187.245C220.474 187.359 220.582 187.461 220.69 187.575Z" fill="white"/>
<path d="M200.23 241.62C200.17 241.764 200.116 241.908 200.062 242.04C198.065 242.772 196.236 243.071 194.564 243.071C189.239 243.071 185.552 239.99 183.525 237.651C183.573 237.549 183.627 237.435 183.681 237.315C186.271 240.361 191.806 244.84 200.23 241.62Z" fill="white"/>
<path d="M207.464 199.98C207.907 201.893 208.195 203.974 208.207 206.162C208.093 206.216 207.979 206.276 207.872 206.354C207.86 196.305 202.038 188.463 201.972 188.373L202.235 188.175C202.289 188.241 205.737 192.899 207.368 199.633C208.045 199.189 208.507 198.547 208.699 197.72C209.538 194.195 205.725 188.427 205.689 188.367L205.965 188.181C206.127 188.427 209.892 194.123 209.029 197.792C208.807 198.751 208.279 199.477 207.464 199.98Z" fill="white"/>
<path d="M237.47 205.04C236.481 206.12 235.546 207.037 235.462 207.115L235.282 207.295L235.198 207.055C233.891 203.637 225.503 196.239 225.419 196.167L225.317 196.071L226.714 193.756C226.798 193.84 226.882 193.924 226.954 194.002L225.785 195.945C227.415 196.508 228.573 196.61 229.388 196.508C229.49 196.61 229.58 196.712 229.682 196.814C229.406 196.862 229.118 196.886 228.812 196.886C228.063 196.886 227.2 196.73 226.234 196.442C228.141 198.157 234.059 203.643 235.414 206.701C235.941 206.18 236.607 205.496 237.248 204.795C237.326 204.878 237.398 204.956 237.47 205.04Z" fill="white"/>
<path d="M191.445 227.932L191.313 227.956C191.187 227.992 189.676 228.304 187.938 228.304C187.068 228.304 186.145 228.226 185.318 227.992C185.318 227.872 185.318 227.759 185.312 227.645C187.506 228.274 190.444 227.789 191.109 227.663L190.552 213.812C190.24 214.574 189.622 215.611 188.459 216.181C187.908 216.463 187.29 216.594 186.607 216.594C186.199 216.594 185.773 216.546 185.324 216.451V216.109C186.475 216.373 187.476 216.301 188.303 215.881C189.712 215.179 190.276 213.686 190.444 213.093C189.335 213.261 187.086 212.691 185.377 212.17V211.822C187.224 212.379 189.718 213.027 190.618 212.715L190.834 212.643L191.445 227.932Z" fill="white"/>
<path d="M248.527 222.752C246.59 224.665 242.621 227.585 236.517 227.585C235.87 227.585 235.198 227.549 234.503 227.477L234.257 227.117C241.68 227.969 246.332 224.485 248.401 222.411C248.449 222.531 248.485 222.638 248.527 222.752Z" fill="white"/>
<path d="M216.038 104.852C216.038 104.852 215.295 103.149 212.171 103.143C209.761 103.143 208.837 104.474 208.837 104.474C207.392 108.689 205.845 124.836 205.288 125.405C205.006 125.699 187.121 137.739 187.121 137.739C196.828 137.918 202.883 149.88 202.883 149.88C203.195 145.947 214.156 130.37 214.275 128.985C214.497 126.377 219.132 114.673 216.038 104.852Z" fill="#FF2E4C"/>
<path d="M184.993 189.261C184.993 189.261 184.904 192.631 185.995 192.853C187.086 193.075 195.96 195.701 206.165 191.06C216.369 186.419 218.144 182.978 215.152 180.43C212.154 177.875 184.993 189.261 184.993 189.261Z" fill="#CE364C"/>
<path d="M180.905 140.077C180.905 140.077 171.617 138.98 166.293 141.282C166.293 141.282 164.806 147.871 172.127 162.621C179.442 177.371 177.745 186.658 185.995 190.154C193.31 193.253 214.877 184.026 215.554 180.968C217.257 173.264 204.072 159.749 203.239 151.913C202.406 144.088 194.749 132.312 180.905 140.077Z" fill="#FF2E4C"/>
<path d="M166.293 141.282C159.8 143.584 152.503 150.875 152.491 154.389C152.479 157.902 158.582 159.257 158.582 159.257L168.583 154.389C168.583 154.389 171.443 152.392 169.621 146.57C167.798 140.748 166.293 141.282 166.293 141.282Z" fill="#FF2E4C"/>
<path d="M192.962 147.781C191.025 147.781 188.615 147.08 187.122 146.019C186.301 145.431 185.809 144.772 185.701 144.106C185.335 141.798 187.578 140.629 187.674 140.581L187.973 141.174C187.895 141.216 186.067 142.181 186.354 144.004C186.432 144.49 186.828 144.999 187.506 145.479C189.178 146.672 192.074 147.374 193.957 147.038C194.809 146.888 195.36 146.582 195.606 146.133C195.906 145.581 195.648 144.951 195.648 144.945L196.259 144.682C196.277 144.718 196.649 145.599 196.194 146.438C195.846 147.08 195.132 147.506 194.071 147.692C193.729 147.751 193.358 147.781 192.962 147.781Z" fill="#CFD8DC"/>
<path d="M184.729 154.803C183.29 154.803 180.91 154.203 180.574 151.847C180.406 150.648 180.514 149.646 180.61 148.765C180.754 147.464 180.868 146.439 180.106 145.21C178.853 143.177 177.151 143.045 177.079 143.039L177.121 142.374C177.205 142.38 179.231 142.523 180.67 144.862C181.545 146.289 181.414 147.53 181.27 148.843C181.174 149.73 181.072 150.642 181.234 151.757C181.593 154.299 184.837 154.143 184.975 154.137L185.017 154.803C184.921 154.803 184.831 154.803 184.729 154.803Z" fill="#CFD8DC"/>
<path d="M186.751 142.854C186.751 142.854 191.661 139.508 190.498 135.893C189.335 132.271 173.524 132.523 169.447 136.852C165.37 141.181 178.267 144.053 178.267 144.053C179.262 142.038 185.642 141.816 186.751 142.854Z" fill="#CE364C"/>
<path d="M177.925 142.29C175.593 141.498 174.214 139.819 174.712 137.877C175.209 135.934 185.228 135.886 187.123 137.433C189.017 138.98 186.349 145.15 177.925 142.29Z" fill="#A02E44"/>
<path d="M176.815 136.834C176.815 136.834 178.877 140.353 177.924 142.29C177.924 142.29 184.993 144.73 184.993 140.773C184.993 140.773 183.662 137.805 184.166 135.893L176.815 136.834Z" fill="#EF6E4B"/>
<path d="M174.456 133.757C174.456 133.757 170.985 128.193 171.302 122.881C171.464 120.225 172.831 119.182 172.831 119.182C172.831 119.182 171.728 117.647 172.909 115.302C172.909 115.302 174.546 117.197 180.29 116.597C185.83 116.022 186.382 119.967 186.382 119.967C190.339 120.555 187.671 132.528 184.907 133.751H174.456V133.757Z" fill="#FFB878"/>
<path d="M172.981 128.618C172.981 128.618 170.984 126.628 170.738 128.954C170.45 131.652 172.903 132.737 173.382 131.88C173.862 131.023 172.981 128.618 172.981 128.618Z" fill="#FF8B66"/>
<path d="M186.962 128.763C186.962 128.763 188.959 126.772 189.205 129.099C189.486 131.797 187.04 132.882 186.56 132.024C186.081 131.167 186.962 128.763 186.962 128.763Z" fill="#FF8B66"/>
<path d="M179.763 138.392C175.332 138.392 172.832 135.496 172.832 126.82C172.832 122.341 175.11 119.595 180.074 119.595C185.039 119.595 187.125 122.341 187.125 126.82C187.125 136.15 184.337 138.392 179.763 138.392Z" fill="#FF8B66"/>
<path d="M185.658 129.913C185.736 130.357 185.347 130.801 184.789 130.897C184.231 130.993 183.716 130.711 183.638 130.267C183.56 129.824 183.95 129.38 184.507 129.284C185.065 129.188 185.58 129.47 185.658 129.913Z" fill="#DB614D"/>
<path d="M176.542 130.16C176.512 130.61 176.032 130.945 175.469 130.909C174.905 130.873 174.473 130.478 174.503 130.028C174.533 129.578 175.013 129.243 175.577 129.279C176.14 129.314 176.572 129.71 176.542 130.16Z" fill="#DB614D"/>
<path d="M183.702 125.261C183.642 125.267 183.582 125.255 183.534 125.219C182.827 124.68 181.771 124.872 181.753 124.872C181.633 124.889 181.52 124.818 181.496 124.692C181.472 124.572 181.549 124.458 181.669 124.434C181.717 124.422 182.941 124.206 183.798 124.866C183.894 124.937 183.912 125.081 183.84 125.177C183.81 125.225 183.756 125.255 183.702 125.261Z" fill="#FFB878"/>
<path d="M175.224 125.291C175.17 125.285 175.116 125.255 175.08 125.213C175.002 125.117 175.014 124.979 175.11 124.901C175.949 124.212 177.178 124.398 177.226 124.404C177.346 124.422 177.43 124.536 177.412 124.655C177.394 124.775 177.274 124.859 177.161 124.841C177.155 124.841 176.075 124.685 175.392 125.243C175.344 125.285 175.284 125.303 175.224 125.291Z" fill="#FFB878"/>
<path d="M183.245 127.762C183.245 128.314 182.999 128.757 182.694 128.757C182.388 128.757 182.142 128.314 182.142 127.762C182.142 127.21 182.388 126.767 182.694 126.767C182.999 126.767 183.245 127.216 183.245 127.762Z" fill="#1A4850"/>
<path d="M177.327 127.762C177.327 128.314 177.082 128.757 176.776 128.757C176.47 128.757 176.224 128.314 176.224 127.762C176.224 127.21 176.47 126.767 176.776 126.767C177.082 126.767 177.327 127.216 177.327 127.762Z" fill="#1A4850"/>
<path d="M174.188 120.561C174.188 120.561 178.906 122.287 185.676 121.802C185.676 121.802 187.121 123.601 186.947 129.95C186.947 129.95 190.91 118.516 179.338 118.516C167.766 118.516 172.983 129.698 172.983 129.698C172.983 129.698 172.035 122.701 174.188 120.561Z" fill="#FFB878"/>
<path d="M180.039 130.723L179.709 130.388L180.584 129.518C179.733 128.319 179.739 125.537 179.739 125.411H180.213C180.213 125.441 180.207 128.433 181.076 129.374L181.232 129.542L180.039 130.723Z" fill="#DB614D"/>
<path d="M177.099 132.168C177.099 132.168 181.458 132.354 183.658 131.772C183.658 131.772 184.048 134.944 180.667 135.1C177.099 135.268 177.099 132.168 177.099 132.168Z" fill="#1A4850"/>
<path d="M195.738 144.16C196.571 144.004 196.487 146.181 195.738 145.551C194.988 144.922 194.904 144.316 195.738 144.16Z" fill="#CFD8DC"/>
<path d="M185.701 154.713C185.575 155.552 183.542 154.755 184.388 154.257C185.227 153.753 185.827 153.873 185.701 154.713Z" fill="#CFD8DC"/>
<path d="M176.767 159.258C176.767 159.258 175.448 162.645 175.52 164.558C175.598 166.471 176.221 166.225 176.221 166.225C176.221 166.225 175.22 166.621 175.028 167.724C174.836 168.827 177.624 169.636 177.816 169.636C178.008 169.636 179.975 168.887 179.975 168.887L180.388 162.627L178.649 161.536L176.767 159.258Z" fill="#EF6E4B"/>
<path d="M177.825 158.814C177.825 158.814 180.229 160.313 181.165 161.225C182.094 162.142 181.566 169.211 181.165 169.547C180.763 169.883 177.699 170.566 177.111 170.182C176.524 169.799 177.339 167.718 177.339 167.718C177.339 167.718 178.88 167.382 178.658 167.97C178.436 168.552 178.658 169.049 178.658 169.049L179.288 168.797C179.288 168.797 178.976 167.215 179.288 166.051C179.6 164.888 177.117 163.659 176.818 161.525C176.518 159.402 177.825 158.814 177.825 158.814Z" fill="#FF8B66"/>
<path d="M152.884 155.373C152.117 152.045 155.414 150.87 160.007 151.439C165.331 152.099 176.268 153.49 178.648 159.258C178.648 159.258 179.427 161.53 177.413 162.628C171.801 165.679 154.335 161.62 152.884 155.373Z" fill="#B73B4D"/>
<path d="M217.124 96.0262C216.644 96.5718 215.853 98.6943 215.853 98.6943C215.517 100.481 215.325 101.464 214.701 102.28C214.084 103.101 214.408 104.54 214.408 104.54C214.408 104.54 211.985 105.787 209.947 104.246C209.947 104.246 210.163 102.813 209.947 102.412C209.527 101.602 208.184 101.165 207.722 99.5277C207.261 97.8849 205.888 96.0502 205.888 96.0502C205.888 96.0502 206.283 95.1988 206.997 95.7144C207.722 96.2421 208.184 97.5491 208.574 97.687C208.652 97.711 208.736 97.735 208.814 97.741C208.814 97.741 208.82 97.741 208.832 97.747C209.131 97.789 209.437 97.723 209.623 97.5431C209.635 97.5371 209.659 97.5252 209.671 97.5012C210.331 96.7337 210.48 94.4853 210.456 93.478C210.414 92.081 210.468 90.1504 211.32 90.4741C212.171 90.7979 211.392 91.5774 212.051 94.6592L212.369 94.7012C212.429 94.923 213.017 92.8305 213.155 90.8699C213.256 89.5208 214.138 90.0185 214.336 90.4442C214.534 90.8699 214.234 92.2129 214.174 93.1962C214.126 93.8438 214.072 94.5153 214.042 94.911L214.414 95.1149C215.757 92.7705 215.301 91.7992 216.086 91.7512C216.866 91.7033 216.584 93.6819 216.164 94.4313C215.985 94.7551 215.811 95.4386 215.673 96.1042C217.052 94.5153 216.896 93.6819 217.531 93.7838C218.191 93.9037 217.603 95.4806 217.124 96.0262Z" fill="#FF8B66"/>
<path d="M211.171 99.6957C210.703 98.4126 209.042 97.825 208.833 97.759C209.132 97.801 209.438 97.735 209.624 97.5552C211.261 98.2807 211.171 99.6957 211.171 99.6957Z" fill="#EF6E4B"/>
<path d="M62.0294 98.4775C62.7549 98.4895 64.8594 99.3289 64.8594 99.3289C66.4064 100.282 67.2638 100.798 68.289 100.882C69.3143 100.972 69.728 102.729 69.728 102.729C69.728 102.729 73.7572 103.61 73.985 101.068C73.985 101.068 71.7306 97.8779 71.5747 97.4462C71.2569 96.5888 71.8385 95.3058 70.9332 93.8608C70.0218 92.4158 69.5901 90.1674 69.5901 90.1674C69.5901 90.1674 68.6967 89.8856 68.5948 90.767C68.4989 91.6603 69.1584 92.8775 68.9965 93.2612C68.9605 93.3391 68.9246 93.4111 68.8766 93.477C68.8766 93.477 68.8706 93.483 68.8706 93.495C68.6967 93.7409 68.4449 93.9267 68.1871 93.9447C68.1751 93.9507 68.1511 93.9567 68.1271 93.9507C67.1198 93.9267 65.3451 92.5297 64.6196 91.8342C63.6123 90.8689 62.1434 89.6098 61.8136 90.4612C61.4838 91.3126 62.5811 91.2586 64.4278 93.8128L64.2419 94.0766C64.3618 94.2685 62.4192 93.2972 60.8723 92.086C59.805 91.2526 59.5772 92.2419 59.763 92.6736C59.9429 93.1053 61.1421 93.7888 61.9095 94.4004C62.4192 94.8021 62.9528 95.2098 63.2706 95.4556L63.1746 95.8694C60.5365 95.2938 60.1228 94.2985 59.5592 94.8501C59.0016 95.3957 60.6564 96.5169 61.4958 96.7088C61.8556 96.7927 62.4791 97.1225 63.0667 97.4642C60.9622 97.4163 60.4466 96.7447 60.0988 97.2784C59.7451 97.836 61.304 98.4655 62.0294 98.4775Z" fill="#FF8B66"/>
<path d="M68.7461 96.528C68.1046 95.3228 68.7881 93.692 68.878 93.4941C68.7041 93.74 68.4523 93.9258 68.1945 93.9438C67.6429 95.6406 68.7461 96.528 68.7461 96.528Z" fill="#EF6E4B"/>
<path d="M180.66 98.478C179.934 98.49 177.83 99.3294 177.83 99.3294C176.283 100.283 175.425 100.798 174.4 100.882C173.375 100.972 172.961 102.729 172.961 102.729C172.961 102.729 168.932 103.61 168.704 101.068C168.704 101.068 170.959 97.8784 171.114 97.4467C171.432 96.5893 170.851 95.3062 171.756 93.8613C172.667 92.4163 173.099 90.1679 173.099 90.1679C173.099 90.1679 173.992 89.8861 174.094 90.7674C174.19 91.6608 173.531 92.878 173.693 93.2617C173.729 93.3396 173.765 93.4116 173.812 93.4775C173.812 93.4775 173.818 93.4835 173.818 93.4955C173.992 93.7413 174.244 93.9272 174.502 93.9452C174.514 93.9512 174.538 93.9572 174.562 93.9512C175.569 93.9272 177.344 92.5302 178.069 91.8347C179.077 90.8694 180.546 89.6103 180.875 90.4617C181.205 91.3131 180.108 91.2591 178.261 93.8133L178.447 94.0771C178.327 94.269 180.27 93.2977 181.817 92.0865C182.884 91.2531 183.112 92.2424 182.926 92.6741C182.746 93.1058 181.547 93.7893 180.78 94.4009C180.27 94.8026 179.736 95.2103 179.419 95.4561L179.514 95.8698C182.153 95.2942 182.566 94.299 183.13 94.8506C183.688 95.3962 182.033 96.5174 181.193 96.7092C180.834 96.7932 180.21 97.123 179.622 97.4647C181.727 97.4167 182.243 96.7452 182.59 97.2788C182.95 97.8365 181.385 98.466 180.66 98.478Z" fill="#FF8B66"/>
<path d="M173.946 96.529C174.587 95.3238 173.904 93.693 173.814 93.4951C173.988 93.7409 174.24 93.9268 174.497 93.9448C175.049 95.6416 173.946 96.529 173.946 96.529Z" fill="#EF6E4B"/>
<path d="M145.225 220.696L137.478 172.736L121.967 174.469L106.456 172.736L98.7096 220.696L94.9922 267.211C94.9922 267.211 96.1734 271.066 103.914 268.404C103.914 268.404 109.652 225.259 110.539 224.311C111.427 223.364 120.54 195.178 120.54 195.178H123.394C123.394 195.178 132.508 223.358 133.395 224.311C134.282 225.259 140.02 268.404 140.02 268.404C147.755 271.066 148.942 267.211 148.942 267.211L145.225 220.696Z" fill="#6D48F5"/>
<path d="M117.089 126.292C118.066 127.246 122.886 128.967 125.435 126.292L127.161 127.989C127.161 127.989 125.195 132.618 121.741 132.78C118.288 132.942 115.793 128.661 115.793 128.661L117.089 126.292Z" fill="#342370"/>
<path d="M130.735 125.771C136.503 123.288 155.144 116.687 155.144 116.687C155.144 116.687 167.675 100.99 170.229 98.6577C170.229 98.6577 173.005 99.1554 173.815 102.609C173.815 102.609 165.745 119.883 161.362 124.829C156.979 129.776 134.765 140.472 134.765 140.472L130.735 125.771Z" fill="#6D48F5"/>
<path d="M110.54 125.411C112.255 124.326 120.871 130.088 120.871 130.088C120.871 130.088 132.071 124.14 134.703 125.291C134.703 125.291 137.072 128.463 138.025 136.611C138.978 144.759 139.038 178.305 139.038 178.305C139.038 178.305 131.508 180.968 121.321 180.968C109.707 180.968 103.459 177.64 103.459 177.64C103.459 177.64 101.391 131.203 110.54 125.411Z" fill="#FFD25E"/>
<path d="M117.54 124.541C117.54 124.541 118.781 128.444 117.54 129.949C117.54 129.949 118.829 132.653 121.143 132.773C123.818 132.911 124.747 129.949 124.747 129.949C124.747 129.949 123.332 126.178 124.747 124.853L117.54 124.541Z" fill="#EF6E4B"/>
<path d="M114.447 120.698C114.447 120.698 111.838 115.673 112.354 110.301C112.87 104.929 120.964 103.7 126.414 106.338C126.414 106.338 124.795 104.755 125.431 104.317C126.066 103.88 127.158 106.692 127.158 106.692C127.158 106.692 128.878 106.164 129.142 106.692C129.406 107.219 127.379 107.507 127.379 107.507C127.379 107.507 130.899 109.456 127.613 119.846L114.447 120.698Z" fill="#8B383E"/>
<path d="M114.052 117.514C114.052 117.514 112.104 115.571 111.864 117.844C111.588 120.476 113.974 121.537 114.442 120.698C114.91 119.864 114.052 117.514 114.052 117.514Z" fill="#FF8B66"/>
<path d="M127.688 117.652C127.688 117.652 129.636 115.709 129.876 117.982C130.152 120.614 127.765 121.675 127.298 120.836C126.83 120.002 127.688 117.652 127.688 117.652Z" fill="#FF8B66"/>
<path d="M120.666 127.047C116.349 127.047 113.909 124.223 113.909 115.763C113.909 111.398 116.127 108.718 120.966 108.718C125.804 108.718 127.843 111.398 127.843 115.763C127.843 124.858 125.127 127.047 120.666 127.047Z" fill="#FF8B66"/>
<path d="M126.411 118.779C126.489 119.211 126.105 119.642 125.566 119.738C125.02 119.834 124.523 119.559 124.445 119.121C124.367 118.689 124.75 118.257 125.29 118.162C125.836 118.072 126.339 118.347 126.411 118.779Z" fill="#DB614D"/>
<path d="M117.523 119.019C117.493 119.457 117.025 119.786 116.474 119.75C115.922 119.714 115.502 119.331 115.532 118.887C115.562 118.449 116.03 118.12 116.582 118.156C117.133 118.191 117.553 118.581 117.523 119.019Z" fill="#DB614D"/>
<path d="M124.437 114.39C124.377 114.39 124.323 114.366 124.281 114.324C123.681 113.695 122.632 113.725 122.62 113.725C122.506 113.725 122.404 113.635 122.398 113.515C122.392 113.395 122.488 113.299 122.608 113.293C122.656 113.293 123.867 113.263 124.599 114.031C124.683 114.115 124.677 114.252 124.593 114.336C124.545 114.372 124.491 114.39 124.437 114.39Z" fill="#8B383E"/>
<path d="M116.301 114.39C116.247 114.39 116.193 114.373 116.151 114.331C116.068 114.247 116.062 114.109 116.145 114.025C116.877 113.257 118.088 113.287 118.136 113.287C118.256 113.293 118.346 113.389 118.346 113.509C118.34 113.629 118.238 113.719 118.124 113.719C118.118 113.719 117.057 113.695 116.463 114.319C116.415 114.367 116.361 114.39 116.301 114.39Z" fill="#8B383E"/>
<path d="M124.064 116.68C124.064 117.214 123.824 117.652 123.524 117.652C123.224 117.652 122.984 117.214 122.984 116.68C122.984 116.147 123.224 115.709 123.524 115.709C123.818 115.709 124.064 116.147 124.064 116.68Z" fill="#1A4850"/>
<path d="M118.29 116.68C118.29 117.214 118.05 117.652 117.751 117.652C117.451 117.652 117.211 117.214 117.211 116.68C117.211 116.147 117.451 115.709 117.751 115.709C118.05 115.709 118.29 116.147 118.29 116.68Z" fill="#1A4850"/>
<path d="M118.291 122.425C118.291 122.425 122.098 122.916 124.058 121.975C124.058 121.975 122.949 124.571 120.869 124.337C118.794 124.104 118.291 122.425 118.291 122.425Z" fill="#1A4850"/>
<path d="M127.395 118.611C127.395 118.611 127.263 113.911 125.428 110.301C125.428 110.301 122.203 111.794 121.495 111.44C120.788 111.087 122.173 110.301 122.173 110.301C122.173 110.301 116.854 112.058 116.531 111.704C116.213 111.35 118.293 110.301 118.293 110.301L114.978 111.44C114.978 111.44 113.958 115.667 114.378 118.611C114.378 118.611 112.951 116.153 112.777 114.456C112.603 112.759 113.347 107.921 118.341 107.567C123.336 107.213 126.136 108.347 127.377 110.643C128.618 112.939 128.462 115.757 127.395 118.611Z" fill="#8B383E"/>
<path d="M121.414 121.064C120.995 121.064 120.569 120.956 120.437 120.92L120.557 120.476C121.013 120.602 121.72 120.674 121.876 120.494C121.93 120.429 121.906 120.285 121.816 120.093C121.192 118.768 121.061 115.404 121.055 115.26L121.516 115.242C121.516 115.278 121.648 118.654 122.23 119.895C122.41 120.273 122.404 120.578 122.224 120.788C122.056 121.004 121.738 121.064 121.414 121.064Z" fill="#DB614D"/>
<path d="M126.204 127.527C126.204 127.527 134.022 151.798 134.766 171.548C134.766 171.548 137.59 172.327 140.767 167.998C143.945 163.669 142.056 129.398 135.965 123.69C135.965 123.69 133.201 123.06 126.204 127.527Z" fill="#8D6FFF"/>
<path d="M127.471 131.772C127.471 131.772 128.868 128.523 128.251 126.292C127.627 124.062 125.433 126.292 125.433 126.292C125.433 126.292 126.32 129.943 127.471 131.772Z" fill="#342370"/>
<path d="M111.783 125.771C106.015 123.289 87.3742 116.688 87.3742 116.688C87.3742 116.688 74.8131 100.529 72.2589 98.2026C72.2589 98.2026 69.0991 99.9894 68.8833 103.695C68.8833 103.695 76.7737 119.889 81.1626 124.836C85.5515 129.782 107.76 140.479 107.76 140.479L111.783 125.771Z" fill="#6D48F5"/>
<path d="M116.315 127.527C116.315 127.527 108.497 151.798 107.753 171.548C107.753 171.548 104.929 172.327 101.752 167.998C98.5739 163.669 100.463 129.398 106.554 123.69C106.554 123.69 109.318 123.06 116.315 127.527Z" fill="#8D6FFF"/>
<path d="M115.042 131.772C115.042 131.772 113.645 128.523 114.263 126.292C114.887 124.062 117.081 126.292 117.081 126.292C117.081 126.292 116.194 129.943 115.042 131.772Z" fill="#342370"/>
<path d="M209.617 225.169C209.623 230.223 205.138 271.414 205.138 271.414C200.653 271.858 197.056 270.959 197.056 270.959C195.827 250.081 195.707 232.13 195.707 232.13L174.206 216.013L174.152 215.971C174.152 215.971 174.074 216.337 173.924 216.991C172.857 221.715 168.354 241.513 166.477 246.046C164.343 251.214 140.977 272.937 140.977 272.937C136.636 272.338 132.955 269.196 132.955 269.196C141.343 255.286 152.777 241.327 152.777 241.327C153.67 236.315 154.306 225.163 154.69 216.829C154.696 216.703 154.702 216.571 154.708 216.445C154.96 210.797 155.085 206.54 155.085 206.54L151.146 198.458L176.185 189.26L181.797 196.443C181.797 196.443 183.08 197.636 185.106 199.537C185.202 199.621 185.292 199.711 185.388 199.795C192.895 206.888 209.617 222.902 209.617 225.169Z" fill="#4DCFD6"/>
<path d="M154.682 216.835C154.688 216.709 154.694 216.577 154.7 216.451C159.97 213.591 159.089 209.023 159.071 208.975L159.394 208.909C159.412 208.951 160.36 213.861 154.682 216.835Z" fill="#6097B2"/>
<path d="M173.814 212.788C173.994 213.789 174.126 214.863 174.198 216.014L174.144 215.972C174.144 215.972 174.066 216.338 173.916 216.991C173.682 209.161 170.457 204.538 170.415 204.484L170.69 204.292C170.726 204.334 172.759 207.272 173.748 212.404C177.556 209.023 173.826 202.092 173.79 202.026L174.084 201.864C174.12 201.942 178.065 209.281 173.814 212.788Z" fill="#6097B2"/>
<path d="M185.375 199.801C185.369 199.807 185.357 199.807 185.351 199.813C185.195 199.873 185.015 199.897 184.83 199.897C182.983 199.897 179.889 197.313 179.745 197.187L179.967 196.935C180.974 197.786 183.774 199.831 185.099 199.537C185.189 199.627 185.285 199.711 185.375 199.801Z" fill="#6097B2"/>
<path d="M152.89 155.372C152.89 155.372 160.504 154.149 164.324 156.578C168.137 159.012 173.149 165.361 173.149 165.361C173.149 165.361 167.202 166.147 166.53 170.188C166.53 170.188 162.207 159.893 152.89 155.372Z" fill="#4DCFD6"/>
<path d="M141.438 159.341C138.219 161.08 132.834 167.621 132.589 171.645C132.349 175.566 135.257 179.175 137.217 182.239C143.327 191.808 149.767 200.262 152.501 211.486C152.519 211.558 166.477 217.098 182.863 197.402C182.863 197.402 173.606 184.943 170.404 174.337C169.103 170.02 167.778 165.433 165.278 161.632C162.525 157.441 157.807 154.976 152.896 155.372C148.741 155.708 144.61 157.626 141.438 159.341Z" fill="#70EFF5"/>
<path d="M140.084 155.33C140.084 155.33 142.147 158.849 141.194 160.786C141.194 160.786 148.263 163.226 148.263 159.269C148.263 159.269 146.932 156.301 147.435 154.388L140.084 155.33Z" fill="#EF6E4B"/>
<path d="M155.797 179.439C155.797 179.439 151.864 180.555 150.869 181.952C149.874 183.343 148.992 186.466 148.992 186.466H155.791L157.068 184.116L158.567 180.98L155.797 179.439Z" fill="#EF6E4B"/>
<path d="M149.295 151.403C149.295 151.403 152.059 150.245 150.272 141.941C149.091 136.437 147.382 135.616 146.285 135.568C146.285 135.568 144.936 133.535 140.259 134.507C137.057 135.172 134.503 137.115 133.376 140.718C132.201 144.472 134.551 152.524 137.645 153.327L149.295 151.403Z" fill="#164353"/>
<path d="M149.948 145.79C149.948 145.79 151.687 143.368 152.347 145.754C153.108 148.519 150.74 150.077 150.092 149.262C149.445 148.453 149.948 145.79 149.948 145.79Z" fill="#FF8B66"/>
<path d="M135.389 148.345C135.389 148.345 132.961 146.612 133.111 149.083C133.279 151.948 136.025 152.656 136.372 151.679C136.72 150.701 135.389 148.345 135.389 148.345Z" fill="#FF8B66"/>
<path d="M144.558 157.153C149.181 156.392 151.291 152.944 149.798 143.891C149.031 139.22 146.177 136.75 141.002 137.601C135.828 138.453 134.119 141.678 134.887 146.349C136.494 156.074 139.785 157.939 144.558 157.153Z" fill="#FF8B66"/>
<path d="M136.949 149.322C136.943 149.802 137.428 150.192 138.022 150.198C138.622 150.204 139.107 149.82 139.113 149.34C139.119 148.861 138.64 148.471 138.04 148.465C137.44 148.465 136.955 148.849 136.949 149.322Z" fill="#DB614D"/>
<path d="M146.497 148.009C146.605 148.476 147.163 148.74 147.744 148.608C148.326 148.47 148.71 147.985 148.602 147.523C148.494 147.055 147.936 146.792 147.349 146.924C146.773 147.055 146.383 147.541 146.497 148.009Z" fill="#DB614D"/>
<path d="M138.247 144.28C138.199 144.28 138.157 144.268 138.115 144.238C138.007 144.166 137.983 144.022 138.055 143.914C138.703 142.967 139.998 142.787 140.052 142.775C140.19 142.757 140.298 142.847 140.316 142.979C140.334 143.105 140.244 143.225 140.112 143.243C140.1 143.243 138.967 143.405 138.439 144.178C138.397 144.244 138.325 144.28 138.247 144.28Z" fill="#1A4850"/>
<path d="M146.948 142.847C146.9 142.847 146.852 142.829 146.804 142.799C146.054 142.235 144.933 142.445 144.921 142.451C144.795 142.481 144.669 142.391 144.645 142.265C144.621 142.139 144.705 142.013 144.831 141.989C144.885 141.977 146.174 141.731 147.085 142.427C147.187 142.505 147.211 142.649 147.133 142.757C147.091 142.817 147.02 142.847 146.948 142.847Z" fill="#1A4850"/>
<path d="M139.094 146.666C139.19 147.241 139.525 147.661 139.843 147.607C140.161 147.553 140.341 147.049 140.251 146.474C140.155 145.898 139.819 145.479 139.501 145.533C139.178 145.58 138.998 146.09 139.094 146.666Z" fill="#1A4850"/>
<path d="M145.266 145.647C145.361 146.223 145.697 146.642 146.015 146.588C146.333 146.535 146.513 146.031 146.423 145.455C146.327 144.88 145.991 144.46 145.673 144.514C145.349 144.562 145.17 145.072 145.266 145.647Z" fill="#1A4850"/>
<path d="M146.998 150.857C146.998 150.857 142.986 151.931 140.768 151.505C140.768 151.505 142.303 153.442 144.497 152.884C146.692 152.326 146.998 150.857 146.998 150.857Z" fill="#1A4850"/>
<path d="M147.184 139.687C147.184 139.687 141.968 143.465 135.42 143.753L135.606 149.58C135.606 149.58 129.503 138.338 141.572 136.342C153.642 134.351 150.128 146.912 150.128 146.912C150.128 146.912 149.756 141.498 147.184 139.687Z" fill="#0E3944"/>
<path d="M142.92 149.292L142.884 148.789C142.89 148.789 143.585 148.735 143.765 148.303C143.837 148.123 143.543 147.56 143.279 147.062C142.914 146.366 142.464 145.503 142.272 144.55L142.77 144.448C142.95 145.335 143.381 146.163 143.729 146.828C144.119 147.566 144.394 148.105 144.233 148.501C143.933 149.22 142.961 149.286 142.92 149.292Z" fill="#DB614D"/>
<path d="M150.013 139.7C141.241 135.893 132.961 143.789 132.961 143.789C132.961 143.789 131.996 137.392 133.686 135.893C134.124 135.497 134.598 135.155 135.089 134.849C138.963 132.409 144.119 132.451 146.481 133.291C146.967 133.464 147.339 133.668 147.555 133.89C148.952 135.341 150.013 139.7 150.013 139.7Z" fill="#CE364C"/>
<path d="M148.953 138.278C148.953 138.278 141.584 136.821 134.713 141.366C134.713 141.366 134.275 137.241 135.091 134.848C138.964 132.408 144.12 132.45 146.483 133.29C147.862 134.86 148.953 138.278 148.953 138.278Z" fill="#CFD8DC"/>
<path d="M133.687 143.039C133.687 143.039 134.856 138.08 136.427 136.677C139.047 134.351 146.404 133.553 150.265 134.95C154.126 136.347 150.265 140.574 150.265 140.574C150.265 140.574 144.107 136.162 133.687 143.039Z" fill="#A02E44"/>
<path d="M145.067 176.004C145.067 176.004 148.076 180.669 153.209 183.415C153.209 183.415 159.624 177.845 167.946 178.348C167.946 178.348 161.051 190.789 155.127 192.168C152.016 192.894 140.768 185.441 140.768 185.441C140.768 185.441 143.01 177.521 145.067 176.004Z" fill="#FF8B66"/>
<path d="M133.971 167.55C136.73 163.065 143.085 169.697 145.249 174.433C147.414 179.17 148.991 180.177 148.991 180.177C148.991 180.177 142.635 182.833 142.683 187.594C142.683 187.588 127.958 177.341 133.971 167.55Z" fill="#4DCFD6"/>
<path d="M153.202 181.364C153.202 181.364 157.069 177.569 169.798 172.61L168.156 167.442C169.613 165.523 172.299 165.523 172.299 165.523C172.299 165.523 178.816 174.727 177.695 177.479C176.993 179.2 163.395 180.999 153.202 181.364Z" fill="#EF6E4B"/>
<path d="M167.143 173.851C167.143 173.851 167.245 173.305 167.712 172.646C168.18 171.98 168.054 170.775 168.222 170.397C168.39 170.026 169.391 168.491 170.057 168.197C170.722 167.897 171.591 167.412 171.777 168.257C171.963 169.102 170.59 168.862 169.973 170.074C169.973 170.074 171.322 169.636 172.395 169.888C173.468 170.14 173.768 171.123 172.449 171.087C171.394 171.063 170.033 171.812 170.033 171.812C170.033 171.812 171.412 172.022 171.19 172.652C170.872 173.539 169.193 172.994 167.143 173.851Z" fill="#FF8B66"/>
<path d="M73.0306 191.185C74.1698 194.099 78.8285 199.087 78.8285 199.087C78.8285 199.087 90.2085 192.264 95.4608 195.136C100.713 198.008 104.886 199.759 108.292 198.506C111.697 197.253 97.0916 170.698 97.0916 170.698L78.157 163.473C78.157 163.473 77.7433 168.263 75.5788 169.115C73.4144 169.966 71.106 177.868 71.2619 179.367C71.4238 180.866 73.0306 191.185 73.0306 191.185Z" fill="#3E6575"/>
<path d="M94.3348 199.261C94.3348 199.261 89.4543 208.83 79.3754 221.086C79.3754 221.086 78.3441 235.661 51.687 258.595L48.8989 256.401C48.8989 256.401 64.7697 231.536 67.9475 223.91C71.1252 216.283 66.1907 209.298 80.7964 190.016L94.3348 199.261Z" fill="#EF6E4B"/>
<path d="M78.7952 182.33C74.5922 190.382 73.1832 200.671 73.1832 200.671L71.2705 205.498C71.2705 205.498 78.0577 209.161 85.9002 210.492L89.0419 202.17L78.7952 182.33Z" fill="#FF2E4C"/>
<path d="M100.714 198.511C100.714 198.511 102.795 209.052 102.453 224.917C102.453 224.917 110.655 237.01 103.886 271.516H100.337C100.337 271.516 97.4347 242.16 95.2162 234.204C92.9978 226.248 84.8016 223.807 84.3579 199.62L100.714 198.511Z" fill="#FF8B66"/>
<path d="M102.794 209.825C102.794 209.825 96.1148 211.024 84.3572 210.473L84.1713 209.148L84.1233 208.806L82.9062 200.232C82.9062 200.232 81.773 198.835 80.6098 196.557C80.4719 196.293 80.334 196.017 80.2021 195.729C78.6192 192.354 77.2102 187.449 78.7931 182.329L81.2753 182.443L81.6231 182.461L89.9332 182.838L90.287 182.856L93.015 182.982L93.4407 183L95.2095 183.078C95.2095 183.078 104.209 191.178 102.602 206.156L102.716 208.242L102.728 208.584L102.794 209.825Z" fill="#FF2E4C"/>
<path d="M81.6229 182.467C81.3891 183.151 79.8182 188.241 80.6096 196.557C80.4717 196.294 80.3338 196.018 80.2019 195.73C79.6083 188.121 80.9754 183.373 81.2752 182.443C81.3171 182.329 81.3351 182.276 81.3351 182.27L81.6469 182.383C81.6469 182.389 81.6349 182.419 81.6229 182.467Z" fill="#FF2E4C"/>
<path d="M102.726 208.591C100.364 209.196 96.3526 209.364 92.5453 209.364C89.1277 209.364 85.89 209.226 84.1632 209.142L84.1152 208.801C87.1071 208.945 94.9736 209.256 100.046 208.699L99.7222 203.339C99.8001 197.085 97.9115 191.749 96.0888 188.061C91.466 187.222 90.1949 183.798 89.9251 182.833C89.8832 182.677 89.8652 182.587 89.8652 182.581L90.1889 182.527C90.1889 182.533 90.2129 182.653 90.2729 182.851C90.5727 183.852 91.8078 186.826 95.8909 187.678C94.6618 185.273 93.4926 183.631 93.001 182.977C92.8571 182.779 92.7611 182.665 92.7551 182.659L93.007 182.443C93.0189 182.455 93.1748 182.641 93.4267 182.995C94.9736 185.093 100.184 192.978 100.052 203.321L100.376 208.651C101.263 208.543 102.055 208.411 102.708 208.237L102.726 208.591Z" fill="#FF2E4C"/>
<path d="M85.7237 146.212C83.0736 144.755 63.9831 152.237 63.9831 152.237C63.9831 152.237 61.1591 157.274 62.9218 159.252C64.6846 161.225 70.9322 160.356 72.8448 159.252C74.7575 158.149 79.8299 157.31 79.8299 157.31L85.7237 146.212Z" fill="#FFB380"/>
<path d="M102.606 130.316C102.606 130.316 106.551 131.839 107.99 136.384C109.435 140.929 105.118 152.429 106.611 157.717C108.104 163.005 107.87 172.988 103.217 175.099C98.5645 177.209 89.0132 173.432 86.9627 167.664C84.9121 161.896 85.7995 140.035 89.7387 132.607C93.6839 125.172 101.658 128.919 102.606 130.316Z" fill="#F24052"/>
<path d="M98.0747 149.923C99.1119 151.044 101.792 149.048 101.792 149.048C101.792 149.048 101.738 158.965 98.8541 159.72C95.9702 160.482 88.6254 151.908 88.9311 149.581C89.2309 147.249 95.7663 147.435 98.0747 149.923Z" fill="#FF8D40"/>
<path d="M86.9674 147.446C86.9674 147.446 89.8813 149.922 94.9597 151.097C100.038 152.272 102.79 149.886 105.386 153.16C109.284 158.076 102.94 167.136 99.6064 171.831C98.3653 173.581 95.7392 178.438 95.2056 183.091C95.2056 183.091 86.3918 185.651 78.7952 182.329L78.2256 171.519C78.2316 171.519 73.4409 156.949 86.9674 147.446Z" fill="#6D48F5"/>
<path d="M96.0737 157.962C96.0737 157.962 100.097 148.369 101.266 147.758C102.429 147.146 105.391 148.615 105.985 149.928C106.578 151.241 105.985 154.101 105.985 154.101C105.985 154.101 102.807 150.474 96.0737 157.962Z" fill="#FFB380"/>
<path d="M115.356 198.506C113.528 202.253 109.031 203.333 109.031 203.333C109.031 203.333 108.689 202.811 108.12 201.882C108.06 201.786 107.994 201.684 107.934 201.576C104.396 195.844 93.5979 177.503 93.8077 167.964C94.0535 156.566 101.488 150.312 101.488 150.312C105.266 151.211 106.453 152.243 106.453 152.243C106.453 152.243 107.724 158.724 106.561 166.531C105.398 174.325 103.281 176.388 104.342 176.975C105.404 177.557 104.342 178.72 104.342 178.72C104.342 178.72 110.608 187.45 111.777 190.166C112.538 191.935 113.828 194.944 114.631 196.821C114.685 196.953 114.739 197.085 114.793 197.205C115.141 197.996 115.356 198.506 115.356 198.506Z" fill="#FF8D40"/>
<path d="M104.478 152.243C104.478 152.243 99.9933 155.571 102.607 160.649L115.037 173.522C108.213 180.795 107.536 183.781 102.607 187.133L104.478 190.034C104.478 190.034 121.752 176.76 121.776 173.528C121.788 172.131 111.223 155.403 104.478 152.243Z" fill="#FF8B66"/>
<path d="M102.334 187.126C102.334 187.126 99.9655 187.39 98.4725 187.762C96.9796 188.133 94.989 188.505 94.929 188.817C94.8691 189.129 98.2267 188.817 98.2267 188.817C98.2267 188.817 95.4926 189.938 95.4267 190.376C95.3667 190.808 98.9102 190.064 98.9102 190.064C98.9102 190.064 96.6738 191.431 96.7937 191.803C96.9196 192.175 99.6777 191.245 99.6777 191.245C99.6777 191.245 99.162 192.552 98.6344 193.17C98.6344 193.17 99.168 193.464 100.253 192.259C101.338 191.053 103.065 191.443 104.438 190.376C105.799 189.309 103.581 186.964 102.334 187.126Z" fill="#FF8B66"/>
<path d="M89.6301 149.041C89.6301 149.041 86.2185 151.248 84.0601 156.572C81.9076 161.896 75.1024 171.921 73.5135 174.505C71.9186 177.096 73.0278 191.186 73.0278 191.186C73.0278 191.186 71.0313 182.642 70.1439 179.314C69.2565 175.986 73.0099 167.76 73.5735 167.323C74.1371 166.885 77.021 167.682 76.4694 164.343C75.9178 161.003 83.6523 146.613 85.7209 146.211C85.7269 146.211 89.0365 146.835 89.6301 149.041Z" fill="#FF8D40"/>
<path d="M79.082 149.761C79.022 149.875 78.9561 149.989 78.8781 150.097C78.1047 151.206 76.6657 152.093 76.6657 152.093C76.6657 152.093 74.0635 155.739 74.0336 156.158C74.0096 156.518 69.5127 159.78 67.5162 159.714H67.5102C67.2344 159.708 67.0125 159.636 66.8506 159.486C65.6635 158.365 70.8858 148.981 72.037 146.955C72.1089 146.823 72.1689 146.721 72.2108 146.655C72.2348 146.601 72.2588 146.571 72.2588 146.571C72.2588 146.571 71.3415 143.148 75.1727 143.789C78.3625 144.317 78.9921 146.853 79.3278 148.55C79.4058 148.957 79.2918 149.365 79.082 149.761Z" fill="#FF8D40"/>
<path d="M65.6944 153.31C68.3266 149.85 77.596 143.135 82.4766 141.145L83.6997 143.411C83.6997 143.411 74.2684 151.703 72.0499 155.253C69.8315 158.802 67.0914 160.265 64.4653 159.084C61.8392 157.903 65.1368 154.035 65.6944 153.31Z" fill="#FF8B66"/>
<path d="M78.1572 149.047L77.6596 149.617L77.4078 149.91L76.5804 150.858C76.5804 150.858 74.5058 153.376 74.5838 154.383C74.6437 155.109 70.6445 158.358 67.5148 159.708C66.2437 160.259 65.1105 160.499 64.4509 160.121C62.1905 158.814 62.6942 154.893 63.9773 152.237C65.0985 149.922 70.039 146.931 71.3161 146.199C71.478 146.097 71.5739 146.037 71.6099 146.025C71.6159 146.019 71.6159 146.019 71.6159 146.019L72.0895 144.184C72.0895 144.184 73.8163 143.147 75.1713 143.783C75.1713 143.783 72.1735 143.909 72.6711 145.072C73.1748 146.253 77.3298 149.005 78.1572 149.047Z" fill="#FFB380"/>
<path d="M89.0358 139.442C86.02 140.683 86.4517 143.411 83.6876 143.411C81.9788 143.411 81.751 141.456 81.751 141.456C82.5244 139.784 83.0161 136.936 83.124 135.58C83.2379 134.225 83.6876 134.747 83.6876 134.747C83.6876 134.621 83.6816 134.501 83.6756 134.381C83.6336 133.47 83.4718 132.804 84.0653 133.194C84.7429 133.632 84.9767 136.216 84.9767 136.216C85.5343 132.451 84.7009 131.887 85.3544 132.223C86.2478 132.679 86.2538 136.006 86.2538 136.102C86.9733 133.914 86.7814 132.661 87.2791 133.158C87.7827 133.662 87.0272 137.685 86.7275 139.16C86.6615 139.496 86.6135 139.7 86.6135 139.7C89.0118 138.53 89.0358 139.442 89.0358 139.442Z" fill="#FF8B66"/>
<path d="M86.7316 139.16C86.6657 139.496 86.6177 139.7 86.6177 139.7C86.6177 139.7 85.5145 139.592 84.7051 140.785C84.7111 140.785 84.9389 139.19 86.7316 139.16Z" fill="#EF6E4B"/>
<path d="M83.8615 137.445C83.8795 137.128 84.0174 135.293 83.6936 134.741C83.6936 134.615 83.6876 134.495 83.6816 134.375C84.3712 134.525 83.9335 137.062 83.8615 137.445Z" fill="#EF6E4B"/>
<path d="M85.73 153.328C85.73 153.328 87.7685 147.806 88.4161 146.571C89.0636 145.336 92.4392 145.552 94.9994 146.025C97.5536 146.505 98.0753 149.923 98.0753 149.923C98.0753 149.923 90.2988 146.253 85.73 153.328Z" fill="#FFB380"/>
<path d="M98.8495 142.457C98.8495 142.457 96.4093 146.966 96.4452 151.967C96.4452 151.967 92.482 154.665 91.061 151.283C91.061 151.283 92.566 146.858 91.8405 140.892C91.3548 136.893 98.8495 142.457 98.8495 142.457Z" fill="#EF6E4B"/>
<path d="M91.0699 136.198C91.0699 136.198 90.3444 133.614 89.0553 135.431C87.5624 137.535 89.0853 139.58 89.8828 139.094C90.6742 138.608 91.0699 136.198 91.0699 136.198Z" fill="#FF8B66"/>
<path d="M102.594 142.848C102.594 142.848 105.178 142.128 104.297 144.173C103.272 146.541 100.735 146.301 100.735 145.366C100.741 144.431 102.594 142.848 102.594 142.848Z" fill="#FF8B66"/>
<path d="M92.1242 147.47C88.4488 145.402 87.7293 141.834 91.7824 134.639C93.8749 130.928 97.0407 129.717 101.16 132.031C105.273 134.346 105.723 137.601 103.636 141.313C99.2771 149.047 95.9195 149.611 92.1242 147.47Z" fill="#FF8B66"/>
<path d="M100.968 143.195C100.825 143.603 100.297 143.783 99.7932 143.603C99.2836 143.423 98.9898 142.95 99.1337 142.542C99.2776 142.134 99.8052 141.954 100.309 142.134C100.819 142.314 101.112 142.788 100.968 143.195Z" fill="#DB614D"/>
<path d="M93.2997 139.142C93.0659 139.502 92.5083 139.556 92.0586 139.262C91.6089 138.968 91.435 138.441 91.6689 138.075C91.9027 137.715 92.4603 137.661 92.91 137.955C93.3597 138.249 93.5396 138.782 93.2997 139.142Z" fill="#DB614D"/>
<path d="M101.497 138.543C101.401 138.543 101.317 138.477 101.293 138.381C101.083 137.559 100.178 137.08 100.166 137.074C100.064 137.02 100.022 136.894 100.076 136.792C100.13 136.69 100.256 136.648 100.358 136.702C100.4 136.726 101.443 137.277 101.695 138.279C101.725 138.393 101.653 138.507 101.545 138.537C101.533 138.537 101.515 138.543 101.497 138.543Z" fill="#1A4850"/>
<path d="M96.455 134.951C96.419 134.951 96.3831 134.94 96.3471 134.922C96.3411 134.916 95.4537 134.388 94.6443 134.64C94.5304 134.676 94.4165 134.61 94.3805 134.502C94.3445 134.388 94.4105 134.274 94.5184 134.238C95.5077 133.938 96.521 134.538 96.5629 134.568C96.6649 134.628 96.6948 134.76 96.6349 134.856C96.5929 134.916 96.527 134.951 96.455 134.951Z" fill="#1A4850"/>
<path d="M99.9801 140.287C99.7223 140.743 99.3086 140.995 99.0568 140.857C98.805 140.713 98.805 140.228 99.0628 139.772C99.3206 139.316 99.7343 139.064 99.9861 139.202C100.238 139.34 100.238 139.826 99.9801 140.287Z" fill="#1A4850"/>
<path d="M94.8273 137.523C94.5695 137.979 94.1558 138.231 93.9039 138.093C93.6521 137.949 93.6521 137.463 93.9099 137.008C94.1678 136.552 94.5815 136.3 94.8333 136.438C95.0851 136.582 95.0851 137.068 94.8273 137.523Z" fill="#1A4850"/>
<path d="M93.0443 142.206C93.0443 142.206 95.1548 143.813 96.6777 143.861C96.6777 143.861 95.0589 145.18 93.8957 144.323C92.7265 143.471 93.0443 142.206 93.0443 142.206Z" fill="#1A4850"/>
<path d="M98.8706 139.364C98.8706 139.364 99.8359 138.429 100.232 138.759C100.627 139.088 100.418 140.24 100.418 140.24L101.263 140.264L100.561 139.982C100.561 139.982 100.789 138.789 100.352 138.537C99.74 138.183 98.8706 139.364 98.8706 139.364Z" fill="#1A4850"/>
<path d="M95.2277 137.493C95.2277 137.493 95.5275 136.18 95.0418 136.012C94.5562 135.844 93.6808 136.618 93.6808 136.618L93.2251 135.904L93.8307 136.354C93.8307 136.354 94.736 135.539 95.1737 135.784C95.7913 136.138 95.2277 137.493 95.2277 137.493Z" fill="#1A4850"/>
<path d="M102.134 133.572C102.134 133.572 100.821 131.743 98.9985 133.194C97.1818 134.645 93.0807 136.972 91.0661 136.204C89.0515 135.437 95.479 126.845 101.061 129.363C106.643 131.881 106.139 140.071 103.819 142.674C101.499 145.276 102.596 142.853 102.596 142.853C102.596 142.853 102.752 139.16 103.525 136.708C104.305 134.256 102.134 133.572 102.134 133.572Z" fill="#F24052"/>
<path d="M95.9423 141.367C95.8404 141.367 95.7324 141.355 95.6245 141.325L95.7384 140.881C96.1162 140.977 96.296 140.815 96.386 140.665C96.5119 140.449 96.4939 140.173 96.392 140.071C96.332 140.012 96.2361 140.018 96.0982 140.089L95.8883 139.688C96.35 139.448 96.6258 139.658 96.7217 139.76C96.9736 140.024 96.9975 140.521 96.7757 140.899C96.6018 141.205 96.302 141.367 95.9423 141.367Z" fill="#DB614D"/>
<path d="M122.842 173.006C122.621 176.232 114.634 186.748 113.303 187.12C112.955 187.216 112.602 187.408 112.272 187.63C112.134 187.732 111.99 187.834 111.858 187.941C111.097 188.553 110.527 189.261 110.527 189.261C108.195 189.105 101.653 186.077 103.758 185.411C103.884 185.369 104.022 185.297 104.178 185.189C104.262 185.129 104.358 185.064 104.453 184.974C106.93 182.899 111.75 174.469 111.78 173.827C111.804 173.126 112.638 172.994 112.638 172.994C112.638 172.994 108.093 166.315 105.455 165.511C102.817 164.708 101.486 161.518 101.486 161.518C98.8834 150.504 106.45 152.231 106.45 152.231C112.032 155.564 123.064 169.768 122.842 173.006Z" fill="#FFB380"/>
<path d="M112.273 187.629C112.136 187.731 111.992 187.833 111.86 187.941C108.286 187.695 105.288 185.938 104.179 185.189C104.263 185.129 104.359 185.063 104.455 184.973C105.648 185.759 108.694 187.497 112.273 187.629Z" fill="#FF8D40"/>
<path d="M79.0813 149.761C79.0213 149.875 78.9554 149.989 78.8774 150.097C78.3678 150.079 77.8761 150.019 77.4145 149.917C75.0521 149.437 73.2354 148.112 72.0422 146.961C71.7664 146.697 71.5326 146.439 71.3228 146.211C71.4846 146.11 71.5806 146.05 71.6165 146.038C71.7904 146.229 71.9883 146.445 72.2161 146.661C73.4033 147.824 75.244 149.185 77.6663 149.623C78.116 149.707 78.5836 149.755 79.0813 149.761Z" fill="#FF8D40"/>
<path d="M114.796 197.205C113.699 199.064 111.667 201.306 108.117 201.888C108.057 201.792 107.991 201.69 107.931 201.582C111.571 201.036 113.591 198.674 114.634 196.821C114.688 196.953 114.742 197.085 114.796 197.205Z" fill="#3E6575"/>
<path d="M54.217 257.774C54.217 257.774 53.3835 258.596 52.5202 260.095C51.6568 261.599 52.6041 262.984 48.419 266.474C48.419 266.474 39.971 261.528 36.1577 255.172C36.1577 255.172 36.2237 253.355 38.0704 252.93C39.0597 252.702 41.7937 253.979 44.4139 254.477C44.7856 254.542 45.1574 254.602 45.5231 254.632C45.9848 254.674 46.4345 254.68 46.8661 254.626C47.2679 254.584 47.6456 254.5 47.9993 254.351H48.0053C48.8987 253.985 49.6002 253.259 49.972 251.988C49.972 251.988 52.2144 253.265 50.7154 255.43C50.7154 255.424 53.3775 254.261 54.217 257.774Z" fill="#CFD8DC"/>
<path d="M48.419 266.474C48.419 266.474 39.971 261.527 36.1577 255.172C36.1577 255.172 37.5727 254.872 38.7479 256.977C39.9171 259.087 49.1026 263.872 48.419 266.474Z" fill="#ADBEC4"/>
<path d="M48.451 256.473C47.7675 257.559 47.7795 255.556 46.8682 254.615C47.2699 254.573 47.6476 254.489 48.0014 254.339H48.0074C48.4151 254.783 48.9907 255.628 48.451 256.473Z" fill="#ADBEC4"/>
<path d="M45.7937 256.533C45.0682 257.217 44.8344 255.43 44.4087 254.471C44.7804 254.537 45.1522 254.597 45.5179 254.627C45.9496 255.202 46.3453 256.012 45.7937 256.533Z" fill="#ADBEC4"/>
</g>
</g>
<defs>
<clipPath id="clip0">
<rect width="283" height="189.718" fill="white" transform="translate(-12 90)"/>
</clipPath>
</defs>
</svg>
