<svg xmlns="http://www.w3.org/2000/svg" width="24" height="24" fill="none" viewBox="0 0 24 24">
    <path fill="#9DA4BB" d="M3 6h11c0 .53.21 1.04.585 1.414C14.96 7.79 15.47 8 16 8h2c.53 0 1.039-.21 1.414-.586C19.789 7.04 20 6.53 20 6h1c.265 0 .52-.105.707-.293C21.894 5.52 22 5.265 22 5c0-.265-.106-.52-.293-.707C21.519 4.105 21.265 4 21 4h-1c0-.53-.211-1.04-.586-1.414C19.039 2.21 18.53 2 18 2h-2c-.53 0-1.04.21-1.415.586C14.21 2.96 14 3.47 14 4H3c-.266 0-.52.105-.707.293C2.105 4.48 2 4.735 2 5c0 .265.105.52.293.707C2.48 5.895 2.734 6 3 6zm13-2h2v2h-2V4zm5 7h-9c0-.53-.211-1.04-.586-1.414C11.039 9.21 10.53 9 10 9H8c-.53 0-1.04.21-1.415.586C6.21 9.96 6 10.47 6 11H3c-.266 0-.52.105-.707.293C2.105 11.48 2 11.735 2 12c0 .265.105.52.293.707.187.188.441.293.707.293h3c0 .53.21 1.04.585 1.414C6.96 14.79 7.47 15 8 15h2c.53 0 1.039-.21 1.414-.586.375-.375.586-.884.586-1.414h9c.265 0 .52-.105.707-.293.187-.187.293-.442.293-.707 0-.265-.106-.52-.293-.707-.188-.188-.442-.293-.707-.293zM8 13v-2h2v2H8zm13 5h-3c0-.53-.211-1.04-.586-1.414C17.039 16.21 16.53 16 16 16h-2c-.53 0-1.04.21-1.415.586C12.21 16.96 12 17.47 12 18H3c-.266 0-.52.105-.707.293C2.105 18.48 2 18.735 2 19c0 .265.105.52.293.707.187.188.441.293.707.293h9c0 .53.21 1.04.585 1.414.375.375.884.586 1.415.586h2c.53 0 1.039-.21 1.414-.586.375-.375.586-.884.586-1.414h3c.265 0 .52-.105.707-.293.187-.187.293-.442.293-.707 0-.265-.106-.52-.293-.707-.188-.188-.442-.293-.707-.293zm-7 2v-2h2v2h-2z"/>
</svg>
