<svg width="25" height="26" viewBox="0 0 25 26" fill="none" xmlns="http://www.w3.org/2000/svg">
<g clip-path="url(#clip0)">
<g clip-path="url(#clip1)">
<path d="M22.7185 5.6718H20.9715C21.2019 5.29999 21.354 4.88263 21.3974 4.44124C21.5359 3.03061 20.8072 1.76607 19.5667 1.20544C18.4264 0.690112 17.145 0.900773 16.2222 1.75403L14.0163 3.79229C13.5867 3.31324 12.9691 3.01216 12.2837 3.01216C11.5971 3.01216 10.9785 3.31419 10.5488 3.79473L8.34005 1.75379C7.41582 0.900534 6.13491 0.690686 4.99514 1.20572C3.75493 1.7664 3.02611 3.03137 3.16505 4.44196C3.2085 4.88301 3.36047 5.30018 3.59086 5.6718H1.84889C0.984426 5.6718 0.283691 6.38627 0.283691 7.26757V9.66125C0.283691 10.1019 0.634082 10.4592 1.06632 10.4592H23.5011C23.9333 10.4592 24.2837 10.1019 24.2837 9.66125V7.26757C24.2837 6.38627 23.583 5.6718 22.7185 5.6718ZM9.93586 5.40584V5.6718H6.25416C5.28141 5.6718 4.51585 4.74724 4.7588 3.71468C4.86582 3.25995 5.18775 2.87232 5.60414 2.6761C6.17593 2.40665 6.8093 2.49315 7.28953 2.93632L9.93652 5.38233C9.93638 5.39022 9.93586 5.39796 9.93586 5.40584ZM19.8443 4.22938C19.786 5.05869 19.0513 5.67189 18.2358 5.67189H14.6315V5.40594C14.6315 5.39652 14.631 5.3872 14.6309 5.37779C15.2305 4.82361 16.5313 3.62158 17.2368 2.96958C17.6378 2.59906 18.1988 2.4261 18.7175 2.58381C19.4617 2.81015 19.8988 3.45542 19.8443 4.22938Z" fill="#6D48F5"/>
<path d="M1.84863 12.0554V23.7579C1.84863 24.6392 2.54937 25.3537 3.41384 25.3537H10.7182V12.0554H1.84863Z" fill="#6D48F5"/>
<path d="M13.8486 12.0554V25.3537H21.153C22.0174 25.3537 22.7182 24.6392 22.7182 23.7579V12.0554H13.8486Z" fill="#6D48F5"/>
</g>
</g>
<defs>
<clipPath id="clip0">
<rect width="24" height="24.4688" fill="white" transform="translate(0.283691 0.90625)"/>
</clipPath>
<clipPath id="clip1">
<rect width="24" height="24.4688" fill="white" transform="translate(0.283691 0.90625)"/>
</clipPath>
</defs>
</svg>
