<svg xmlns="http://www.w3.org/2000/svg" width="33.334" height="34.001" viewBox="0 0 33.334 34.001">
  <g id="google" transform="translate(-30 -29.999)">
    <path id="Path_27811" data-name="Path 27811" d="M47,36.572A9.424,9.424,0,0,1,53.573,39.1l4.8-4.69A16.341,16.341,0,0,0,47,30a16.992,16.992,0,0,0-15.188,9.368l5.5,4.267A10.271,10.271,0,0,1,47,36.572Z" fill="#ea4335"/>
    <path id="Path_27812" data-name="Path 27812" d="M63.32,47.375a14.548,14.548,0,0,0-.36-3.474H47v6.308h9.37a8.309,8.309,0,0,1-3.477,5.514l5.364,4.154a16.616,16.616,0,0,0,5.068-12.5H63.32Z" fill="#4285f4"/>
    <path id="Path_27813" data-name="Path 27813" d="M37.33,50.359A10.453,10.453,0,0,1,36.763,47a11.008,11.008,0,0,1,.547-3.362l-5.5-4.267a16.962,16.962,0,0,0,0,15.26l5.517-4.27Z" fill="#fbbc05"/>
    <path id="Path_27814" data-name="Path 27814" d="M47,63.993a16.2,16.2,0,0,0,11.258-4.116l-5.365-4.154A10.075,10.075,0,0,1,47,57.423a10.234,10.234,0,0,1-9.67-7.064l-5.5,4.269A16.959,16.959,0,0,0,47,63.994Z" fill="#34a853"/>
  </g>
</svg>
