<svg xmlns="http://www.w3.org/2000/svg" width="24" height="24" fill="none" viewBox="0 0 24 24">
    <path fill="#9DA4BB" fill-rule="evenodd" d="M10.708 9.292C9.698 9.775 9 10.806 9 12c0 1.657 1.343 3 3 3 1.194 0 2.225-.698 2.708-1.708l-4-4zM13 12c0 .552-.448 1-1 1s-1-.448-1-1 .448-1 1-1 1 .448 1 1z" clip-rule="evenodd"/>
    <path fill="#9DA4BB" d="M7.501 6.085c-2.516 1.299-4.108 3.462-4.9 4.782-.421.704-.421 1.562 0 2.266C3.792 15.115 6.786 19 12.002 19c2.612 0 4.667-.975 6.217-2.198l-1.426-1.426C15.548 16.303 13.96 17 12 17c-4.112 0-6.587-3.067-7.683-4.895-.025-.042-.032-.077-.032-.105 0-.028.007-.063.032-.105.799-1.332 2.329-3.321 4.69-4.303L7.502 6.085zM18.268 14.024c.608-.674 1.077-1.355 1.415-1.92.025-.041.032-.076.032-.104 0-.028-.007-.063-.032-.105C18.587 10.067 16.113 7 12 7c-.247 0-.488.011-.723.032L9.548 5.304C10.304 5.11 11.12 5 12 5c5.215 0 8.21 3.885 9.398 5.867.422.704.422 1.562 0 2.266-.381.636-.948 1.468-1.716 2.305l-1.414-1.415z"/>
    <path fill="#9DA4BB" fill-rule="evenodd" d="M2.293 2.293c.39-.39 1.024-.39 1.414 0l18 18c.39.39.39 1.024 0 1.414-.39.39-1.024.39-1.414 0l-18-18c-.39-.39-.39-1.024 0-1.414z" clip-rule="evenodd"/>
</svg>
