<svg xmlns="http://www.w3.org/2000/svg" width="183" height="182" fill="none" viewBox="0 0 183 182">
    <g filter="url(#filter0_d)">
        <rect width="130" height="130" x="20" y="13" fill="#fff" rx="32"/>
    </g>
    <g clip-path="url(#clip0)">
        <path fill="#FFB782" d="M104.731 52.007l-15.899-5.715 20.467 43.326 14.442-6.822-11.212-23.736c-1.557-3.295-4.364-5.834-7.798-7.053z"/>
        <path fill="#DE4C3C" d="M68.615 99.18L50.453 81.856c-1.823-1.74-1.892-4.628-.152-6.452l31.5-33.022c1.738-1.823 4.627-1.892 6.45-.152l18.163 17.325c1.823 1.739 1.892 4.628.152 6.451L75.068 99.028c-1.74 1.824-4.628 1.891-6.453.152z"/>
        <path fill="#7A4930" d="M94.792 48.473L57.077 88.18l6.844 6.528 37.721-39.698-6.85-6.536z"/>
        <path fill="#4398D1" d="M53.192 88.364L42.47 65.669c-1.077-2.279-.102-4.999 2.177-6.075L85.91 40.1c2.278-1.076 4.999-.102 6.075 2.177l10.721 22.695c1.077 2.278.102 4.999-2.177 6.075L59.267 90.541c-2.279 1.076-4.999.102-6.075-2.177z"/>
        <path fill="#3E8CC7" d="M85.908 40.102l-4.385 2.071L65.196 87.74l35.331-16.69c2.279-1.077 3.254-3.797 2.177-6.076l-10.72-22.695c-1.077-2.279-3.798-3.253-6.076-2.177z"/>
        <path fill="#5EB3D1" d="M56.567 74.15L52.44 76.1l.975 2.063 4.126-1.95-.974-2.063zM59.492 80.341l-4.127 1.95.975 2.063 4.126-1.95-.974-2.063zM78.057 71.57l-4.126 1.95.974 2.063 4.127-1.95-.975-2.063zM62.76 71.225l-4.127 1.95.974 2.063 4.127-1.95-.975-2.063zM68.948 68.302l-4.126 1.949.975 2.063 4.126-1.95-.975-2.062zM75.132 65.38l-4.126 1.949.975 2.063 4.126-1.949-.975-2.063zM86.825 44.717l-2.063.974 1.462 3.095 2.063-.975-1.462-3.094zM82.699 46.665l-2.063.974 1.462 3.095 2.063-.974-1.462-3.095zM78.571 48.615l-2.063.975 1.462 3.094 2.063-.974-1.462-3.095zM74.447 50.563l-2.063.975 1.462 3.095 2.063-.975-1.462-3.095z"/>
        <path fill="#88B337" d="M123.743 82.795l-18.568 8.772 4.873 10.316 18.568-8.772-4.873-10.316z"/>
        <path fill="#FFB782" d="M87.555 62.119c-2.573-.917-5.402.426-6.319 2.999-.886 2.488.339 5.234 2.783 6.236l12.81 5.228c-.44 5.648 2.26 11.08 7.025 14.141l1.317.846 13.41-6.335-6.822-14.443-24.204-8.672z"/>
        <path fill="#6B962A" d="M111.791 92.226l-2.063.975.974 2.063 2.063-.975-.974-2.063z"/>
        <path fill="#FDB62F" d="M49.713 70.325l-2.34-4.952c-.43-.912-.04-2 .871-2.43l4.952-2.34c.912-.43 2-.04 2.43.872l2.34 4.951c.43.912.04 2-.872 2.43l-4.951 2.34c-.912.43-2 .04-2.43-.871z"/>
        <path fill="#FD7B2F" d="M51.15 65.355l-3.094 1.462.974 2.063 3.095-1.462-.975-2.063zM56.308 62.919l-3.095 1.462.974 2.063 3.095-1.462-.974-2.063z"/>
        <path fill="#F2A46F" d="M110.728 71.277c-.273.129-.587.145-.872.042l-6.075-2.177c-.59-.222-.887-.88-.664-1.47.218-.576.852-.875 1.433-.678l6.076 2.177c.592.214.901.867.689 1.459-.103.285-.313.517-.587.647z"/>
        <path fill="#000" d="M95.741 47.563l-2.726-5.771c-1.348-2.846-4.746-4.063-7.594-2.721L44.158 58.563c-2.846 1.348-4.063 4.746-2.721 7.595l10.72 22.694c1.253 2.631 4.29 3.89 7.037 2.92l8.633 8.234c2.28 2.174 5.89 2.089 8.065-.191L95.7 79.048c.391 5.161 3.183 9.839 7.54 12.633l1.04.669 4.734 10.02c.269.57.949.814 1.518.545l18.569-8.772c.569-.27.813-.95.544-1.519L113.56 58.573c-1.694-3.563-4.729-6.31-8.443-7.641l-9.376-3.37zm2.915 6.168l6.97 6.65c1.367 1.304 1.418 3.47.113 4.838l-1.463 1.537c-.022-.785-.205-1.558-.54-2.27l-5.08-10.755zM54.22 87.879L43.5 65.183c-.808-1.71-.077-3.749 1.633-4.557l41.263-19.492c1.709-.808 3.749-.077 4.556 1.633l3.098 6.556-.01.005.02.019 7.613 16.114c.077.184.139.374.183.568l-13.914-4.987c-3.178-1.096-6.643.59-7.74 3.767-1.046 3.031.438 6.353 3.392 7.597l6.107 2.496-30.924 14.609c-1.709.807-3.749.076-4.556-1.633zm15.652-1.085l-6.002 6.29-2.419-2.312 8.42-3.978zM74.24 98.24c-1.304 1.369-3.471 1.42-4.84.115l-3.877-3.704L75.596 84.09l-.003-.006 16.97-8.017 2.032.828L74.241 98.24zm52.855-5.673l-16.506 7.797-3.898-8.252 16.505-7.797 3.899 8.252zm-4.873-10.316l-16.965 8.014-.785-.503c-4.414-2.831-6.912-7.861-6.502-13.088.038-.496-.247-.958-.707-1.146L84.454 70.3c-1.944-.798-2.874-3.02-2.076-4.965.77-1.88 2.883-2.822 4.796-2.14l24.202 8.669.77-2.148-5.62-2.013.863-.913c2.173-2.28 2.087-5.887-.19-8.061l-7.775-7.417 4.924 1.77c3.144 1.125 5.714 3.45 7.149 6.465l10.726 22.704z"/>
        <path fill="#000" d="M57.58 69.888c1.482-.7 2.116-2.468 1.416-3.95l-2.34-4.951c-.699-1.481-2.467-2.115-3.948-1.415l-4.952 2.34c-1.481.699-2.114 2.467-1.415 3.948l2.34 4.952c.7 1.481 2.467 2.115 3.948 1.415l4.952-2.34zm-6.837-.05l-.682-1.445 2.063-.975-.974-2.063-2.063.975-.683-1.444c-.161-.342-.015-.75.327-.912l4.951-2.339c.342-.161.75-.015.912.327l.682 1.444-2.063.974.974 2.064 2.064-.975.682 1.444c.161.342.015.75-.327.912l-4.951 2.339c-.342.16-.75.014-.912-.327zM56.567 74.15L52.44 76.1l.975 2.063 4.126-1.95-.974-2.063zM59.492 80.341l-4.127 1.95.975 2.063 4.126-1.95-.974-2.063zM78.057 71.57l-4.126 1.95.974 2.063 4.127-1.95-.975-2.063zM62.76 71.225l-4.127 1.95.974 2.063 4.127-1.95-.975-2.063zM68.948 68.302l-4.126 1.949.975 2.063 4.126-1.95-.975-2.062zM75.132 65.38l-4.126 1.949.975 2.063 4.126-1.949-.975-2.063zM86.825 44.717l-2.063.974 1.462 3.095 2.063-.975-1.462-3.094zM82.699 46.665l-2.063.974 1.462 3.095 2.063-.974-1.462-3.095zM78.571 48.615l-2.063.975 1.462 3.094 2.063-.974-1.462-3.095zM74.447 50.563l-2.063.975 1.462 3.095 2.063-.975-1.462-3.095zM111.791 92.226l-2.063.975.974 2.063 2.063-.975-.974-2.063z"/>
    </g>
    <defs>
        <clipPath id="clip0">
            <path fill="#fff" d="M0 0H68.453V68.453H0z" transform="rotate(-25.286 155.47 -56.431)"/>
        </clipPath>
        <filter id="filter0_d" width="182" height="182" x=".5" y="0" color-interpolation-filters="sRGB" filterUnits="userSpaceOnUse">
            <feFlood flood-opacity="0" result="BackgroundImageFix"/>
            <feColorMatrix in="SourceAlpha" values="0 0 0 0 0 0 0 0 0 0 0 0 0 0 0 0 0 0 127 0"/>
            <feOffset dx="6.5" dy="13"/>
            <feGaussianBlur stdDeviation="13"/>
            <feColorMatrix values="0 0 0 0 0.827451 0 0 0 0 0.819608 0 0 0 0 0.847059 0 0 0 0.3 0"/>
            <feBlend in2="BackgroundImageFix" result="effect1_dropShadow"/>
            <feBlend in="SourceGraphic" in2="effect1_dropShadow" result="shape"/>
        </filter>
    </defs>
</svg>
