<svg xmlns="http://www.w3.org/2000/svg" width="20.732" height="18.616" viewBox="0 0 20.732 18.616">
  <g id="mail" transform="translate(-1.25 -2.75)">
    <path id="Path_1" data-name="Path 1" d="M17.268,9.061,13,12.495a2.223,2.223,0,0,1-2.746,0l-4.3-3.434" fill="none" stroke="#9da4bb" stroke-linecap="round" stroke-linejoin="round" stroke-width="1.5"/>
    <path id="Path_2" data-name="Path 2" d="M6.888,3.5h9.428A4.955,4.955,0,0,1,19.9,5.09a5.018,5.018,0,0,1,1.326,3.7v6.528a5.018,5.018,0,0,1-1.326,3.7,4.955,4.955,0,0,1-3.58,1.59H6.888C3.968,20.616,2,18.241,2,15.322V8.794C2,5.875,3.968,3.5,6.888,3.5Z" fill="none" stroke="#9da4bb" stroke-linecap="round" stroke-linejoin="round" stroke-width="1.5" fill-rule="evenodd"/>
  </g>
</svg>
