<svg width="18" height="18" viewBox="0 0 18 18" fill="none" xmlns="http://www.w3.org/2000/svg">
<path fill-rule="evenodd" clip-rule="evenodd" d="M12.7045 2.25C13.7102 2.25 14.6777 2.6475 15.3895 3.36075C16.102 4.0725 16.5002 5.0325 16.5002 6.0375V11.9625C16.5002 14.055 14.7977 15.75 12.7045 15.75H5.29524C3.20199 15.75 1.50024 14.055 1.50024 11.9625V6.0375C1.50024 3.945 3.19449 2.25 5.29524 2.25H12.7045ZM13.8978 7.15504L13.9578 7.09504C14.137 6.87754 14.137 6.56254 13.9495 6.34504C13.8453 6.23329 13.702 6.16504 13.5528 6.15004C13.3953 6.14179 13.2453 6.19504 13.132 6.30004L9.75026 9.00004C9.31526 9.36079 8.69201 9.36079 8.25026 9.00004L4.87526 6.30004C4.64201 6.12754 4.31951 6.15004 4.12526 6.35254C3.92276 6.55504 3.90026 6.87754 4.07201 7.10254L4.17026 7.20004L7.58276 9.86254C8.00276 10.1925 8.51201 10.3725 9.04526 10.3725C9.57701 10.3725 10.0953 10.1925 10.5145 9.86254L13.8978 7.15504Z" fill="#FF8D40"/>
</svg>
