<svg width="16" height="16" viewBox="0 0 16 16" fill="none" xmlns="http://www.w3.org/2000/svg">
<path d="M13.6664 7.66663V14C13.6664 14.184 13.517 14.3333 13.333 14.3333H7.33302V9.33329C7.33302 9.14929 7.18368 8.99996 6.99968 8.99996H4.33302C4.14902 8.99996 3.99968 9.14929 3.99968 9.33329V14.3333H2.66635C2.48235 14.3333 2.33302 14.184 2.33302 14V7.66663H2.44635C2.93302 7.66663 3.37968 7.42829 3.65635 7.04996C3.66302 7.05663 3.66802 7.06663 3.67302 7.07496C3.95968 7.44996 4.39468 7.66663 4.86802 7.66663H5.28802C5.79302 7.66663 6.24135 7.41663 6.51468 7.02996C6.53635 7.05663 6.55802 7.08496 6.58135 7.11163C6.89635 7.46496 7.34968 7.66663 7.82302 7.66663H8.17635C8.64968 7.66663 9.10302 7.46496 9.41802 7.11163C9.44135 7.08496 9.46302 7.05663 9.48468 7.02996C9.75802 7.41663 10.2064 7.66663 10.7114 7.66663H11.1314C11.6047 7.66663 12.0397 7.44996 12.3264 7.07496C12.3314 7.06663 12.3364 7.05663 12.343 7.04996C12.6197 7.42829 13.0664 7.66663 13.553 7.66663H13.6664ZM11.9997 12V9.33329C11.9997 9.14929 11.8504 8.99996 11.6664 8.99996H9.33302C9.14902 8.99996 8.99968 9.14929 8.99968 9.33329V12C8.99968 12.184 9.14902 12.3333 9.33302 12.3333H11.6664C11.8504 12.3333 11.9997 12.184 11.9997 12ZM3.64952 1.66663C3.38602 1.66663 3.14735 1.82179 3.04035 2.06246L1.36635 5.82829C1.24568 6.10079 1.27485 6.39996 1.44635 6.64463C1.60768 6.87463 1.88118 6.99996 2.16202 6.99996H2.44635C2.81968 6.99996 3.14968 6.74829 3.24968 6.38996L4.02135 3.60829L4.56135 1.66663H3.64952ZM5.25302 1.66663L4.06468 5.94329C3.99468 6.19663 4.04635 6.46163 4.20468 6.67163C4.36302 6.87996 4.60468 6.99996 4.86802 6.99996H5.28802C5.71468 6.99996 6.06968 6.68163 6.11635 6.25829L6.62802 1.66663H5.25302ZM8.70135 1.66663H7.29802L6.82802 5.88996C6.79802 6.17163 6.88802 6.45496 7.07802 6.66663C7.26968 6.88163 7.53468 6.99996 7.82302 6.99996H8.17635C8.46468 6.99996 8.72968 6.88163 8.92135 6.66663C9.11135 6.45496 9.20135 6.17163 9.17135 5.88996L8.70135 1.66663ZM10.7464 1.66663H9.37135L9.88302 6.25829C9.92968 6.68163 10.2847 6.99996 10.7114 6.99996H11.1314C11.3947 6.99996 11.6364 6.87996 11.7947 6.67163C11.953 6.46163 12.0047 6.19663 11.9347 5.94329L10.7464 1.66663ZM12.959 2.06246C12.852 1.82179 12.6132 1.66663 12.3499 1.66663H11.438L11.978 3.60829L12.7497 6.38996C12.8497 6.74829 13.1797 6.99996 13.553 6.99996H13.8374C14.1184 6.99996 14.3919 6.87463 14.553 6.64463C14.7247 6.39996 14.7537 6.10063 14.633 5.82829L12.959 2.06246Z" fill="#6D48F5"/>
</svg>
