<svg width="66" height="66" viewBox="0 0 66 66" fill="none" xmlns="http://www.w3.org/2000/svg">
<g clip-path="url(#clip0)">
<path d="M34.0127 52.1548L30.3593 59.2223L24.0866 39.5906L34.7146 35.8904L41.0852 55.8196L34.0127 52.1548Z" fill="#97DE3D"/>
<path d="M34.977 36.3932L43.2724 28.793L57.0582 43.5898L49.1069 43.3166L48.8413 51.2778L34.977 36.3932Z" fill="#59C36A"/>
<path d="M46.1947 18.4988L40.9885 16.8555L39.283 11.6702L33.9525 12.848L29.8806 9.21198L25.8175 12.9323L20.7114 12.126L18.9154 16.9733L13.6826 18.6956L14.8604 24.0261L11.2243 28.098L14.9114 32.1232L13.7962 37.4675L19.0024 39.1107L20.708 44.296L26.0384 43.1182L30.1103 46.7543L34.1356 43.0672L39.4798 44.1824L41.123 38.9762L46.3084 37.2706L45.1306 31.9401L48.7666 27.8682L45.0796 23.843L46.1947 18.4988Z" fill="#FFD480"/>
<path d="M46.3084 37.2706L45.1305 31.9401L48.7666 27.8682L45.0795 23.843L46.1947 18.4987L40.9885 16.8555L39.283 11.6702L33.9525 12.848L29.8806 9.21194L25.8175 12.9322L20.7114 12.126L39.4798 44.1823L41.123 38.9761L46.3084 37.2706Z" fill="#FABE2C"/>
<path d="M30.4983 26.0588L29.2848 26.7694L28.0712 27.4799C27.4017 27.8719 26.5392 27.6464 26.1471 26.9768C25.7551 26.3073 25.9806 25.4448 26.6502 25.0528L27.8637 24.3422L29.0773 23.6317C29.7469 23.2397 30.6093 23.4652 31.0014 24.1348L33.4285 22.7138C32.2531 20.7062 29.6638 20.0293 27.6563 21.2046L26.2352 18.7775L25.0217 19.488L23.8081 20.1985L25.2292 22.6256C23.2216 23.801 22.5447 26.3903 23.72 28.3978C24.8954 30.4054 27.4847 31.0823 29.4922 29.907L30.7058 29.1965L31.9193 28.4859C32.5889 28.0939 33.4514 28.3194 33.8434 28.989C34.2354 29.6585 34.0099 30.521 33.3404 30.9131L32.1268 31.6236L30.9133 32.3341C30.2437 32.7261 29.3812 32.5006 28.9892 31.831L26.5621 33.2521C27.7375 35.2596 30.3267 35.9366 32.3343 34.7612L33.7553 37.1883L34.9689 36.4778L36.1824 35.7673L34.7614 33.3402C36.7689 32.1648 37.4459 29.5755 36.2705 27.568C35.0951 25.5604 32.5059 24.8835 30.4983 26.0588Z" fill="#FABE2C"/>
<path d="M34.7613 33.3403C36.7688 32.165 37.4458 29.5757 36.2704 27.5681C35.095 25.5606 32.5058 24.8836 30.4982 26.059L29.2847 26.7695L30.7057 29.1966L31.9192 28.4861C32.5888 28.0941 33.4513 28.3196 33.8433 28.9892C34.2353 29.6587 34.0098 30.5212 33.3403 30.9132L32.1267 31.6237L34.9688 36.478L36.1823 35.7674L34.7613 33.3403Z" fill="#FF9100"/>
<path d="M29.0771 23.6315C29.7466 23.2395 30.6091 23.465 31.0011 24.1345L33.4283 22.7135C32.2529 20.706 29.6636 20.029 27.6561 21.2044L26.235 18.7773L25.0215 19.4878L27.8635 24.342L29.0771 23.6315Z" fill="#FF9100"/>
</g>
<defs>
<clipPath id="clip0">
<rect width="48" height="48" fill="white" transform="translate(0 24.252) rotate(-30.3481)"/>
</clipPath>
</defs>
</svg>
