<svg xmlns="http://www.w3.org/2000/svg" width="26" height="26" fill="none" viewBox="0 0 26 26">
    <path fill="#CFDDF2" fill-rule="evenodd" d="M20.266 9.53c0 1.36.36 2.162 1.15 3.086.6.68.792 1.555.792 2.503 0 .947-.31 1.846-.934 2.576-.816.875-1.967 1.434-3.142 1.53-1.702.146-3.406.268-5.132.268-1.726 0-3.429-.073-5.131-.267-1.176-.097-2.327-.656-3.142-1.53-.623-.73-.935-1.63-.935-2.577 0-.948.192-1.822.791-2.503.816-.924 1.152-1.726 1.152-3.087v-.461c0-1.822.454-3.014 1.39-4.18 1.391-1.701 3.62-2.721 5.827-2.721h.097c2.253 0 4.555 1.069 5.923 2.843.887 1.142 1.294 2.284 1.294 4.058v.461zM9.829 21.732c0-.546.5-.796.964-.903.541-.114 3.841-.114 4.383 0 .463.107.963.357.963.903-.026.519-.331.98-.752 1.272-.546.425-1.187.695-1.856.792-.37.048-.735.049-1.092 0-.67-.097-1.312-.367-1.856-.793-.422-.292-.727-.752-.754-1.271z" clip-rule="evenodd"/>
</svg>
