<svg width="16" height="16" viewBox="0 0 16 16" fill="none" xmlns="http://www.w3.org/2000/svg">
<g clip-path="url(#clip0)">
<path d="M8.00465 11.3756C8.30034 11.3756 8.54005 11.1359 8.54005 10.8402C8.54005 10.5445 8.30034 10.3048 8.00465 10.3048C7.70895 10.3048 7.46924 10.5445 7.46924 10.8402C7.46924 11.1359 7.70895 11.3756 8.00465 11.3756Z" fill="#FF2E4C"/>
<path d="M8.00465 5.69502C8.30034 5.69502 8.54005 5.45531 8.54005 5.15961C8.54005 4.86392 8.30034 4.62421 8.00465 4.62421C7.70895 4.62421 7.46924 4.86392 7.46924 5.15961C7.46924 5.45531 7.70895 5.69502 8.00465 5.69502Z" fill="#FF2E4C"/>
<path d="M15.5687 0.431719C15.2907 0.153312 14.9207 0 14.5271 0H8.91809C8.52462 0 8.15469 0.15325 7.87644 0.431531L0.431594 7.87638C0.15325 8.15469 0 8.52459 0 8.91797C0 9.31141 0.153313 9.68131 0.431594 9.95941L6.04047 15.5683C6.31866 15.8467 6.68856 16 7.082 16C7.47541 16 7.84531 15.8468 8.12362 15.5684L15.5685 8.12356C15.8468 7.84531 16 7.47538 16 7.08191V1.47291C16 1.07925 15.8467 0.709312 15.5687 0.431719ZM8.00003 3.68678C8.81219 3.68678 9.47294 4.34753 9.47294 5.15969C9.47294 5.97184 8.81219 6.63259 8.00003 6.63259C7.18788 6.63259 6.52712 5.97184 6.52712 5.15969C6.52712 4.34753 7.18788 3.68678 8.00003 3.68678ZM8.00003 12.3132C7.18788 12.3132 6.52712 11.6524 6.52712 10.8403C6.52712 10.0281 7.18788 9.36734 8.00003 9.36734C8.81219 9.36734 9.47294 10.0281 9.47294 10.8403C9.47294 11.6524 8.81219 12.3132 8.00003 12.3132ZM11.0125 8.46872H4.98756C4.72869 8.46872 4.51881 8.25884 4.51881 7.99997C4.51881 7.74109 4.72869 7.53122 4.98756 7.53122H11.0125C11.2714 7.53122 11.4812 7.74109 11.4812 7.99997C11.4812 8.25884 11.2714 8.46872 11.0125 8.46872ZM13.0208 3.44791C12.7621 3.44791 12.5521 3.23791 12.5521 2.97916C12.5521 2.72041 12.7621 2.51041 13.0208 2.51041C13.2796 2.51041 13.4896 2.72041 13.4896 2.97916C13.4896 3.23791 13.2796 3.44791 13.0208 3.44791Z" fill="#FF2E4C"/>
</g>
<defs>
<clipPath id="clip0">
<rect width="16" height="16" fill="white"/>
</clipPath>
</defs>
</svg>
