<svg xmlns="http://www.w3.org/2000/svg" width="34" height="34" fill="none" viewBox="0 0 34 34">
    <g clip-path="url(#clip0)">
        <path fill="#fff" d="M23.581 0H10.42C8.6 0 7.13 1.482 7.13 3.284V30.71c0 1.814 1.475 3.29 3.29 3.29H23.58c1.814 0 3.29-1.476 3.29-3.29V3.29c0-1.814-1.476-3.29-3.29-3.29zM9.323 5.484h5.015c.982 2.374 4.345 2.369 5.324 0h5.016v20.839H9.323V5.483zm1.097-3.29H23.58c.605 0 1.097.492 1.097 1.096h-5.895c-.606 0-1.097.491-1.097 1.097 0 .378-.308.686-.686.686-.378 0-.685-.308-.685-.686 0-.606-.491-1.097-1.097-1.097H9.323c0-.604.492-1.096 1.097-1.096zM23.58 31.806H10.42c-.605 0-1.097-.492-1.097-1.096v-2.194h15.355v2.194c0 .604-.492 1.096-1.097 1.096zm-6.366-.57c-.815.158-1.502-.598-1.263-1.393.33-1.08 1.883-1.018 2.124.104.111.578-.238 1.156-.861 1.29zm-.236-14.694l-2.926-2.926v9.416c0 .606-.491 1.097-1.097 1.097s-1.097-.491-1.097-1.097V10.968c0-.977 1.185-1.464 1.873-.776l4.798 4.799c.428.428.428 1.122 0 1.55-.428.429-1.123.429-1.551 0zm5.163-5.574v12.064c0 .98-1.188 1.461-1.873.776l-4.798-4.799c-.428-.428-.428-1.122 0-1.55.428-.429 1.123-.429 1.55 0l2.927 2.925v-9.416c0-.606.491-1.097 1.097-1.097.605 0 1.096.491 1.096 1.097z"/>
    </g>
    <defs>
        <clipPath id="clip0">
            <path fill="#fff" d="M0 0H34V34H0z"/>
        </clipPath>
    </defs>
</svg>
