<svg xmlns="http://www.w3.org/2000/svg" width="24" height="24" fill="none" viewBox="0 0 24 24">
    <path fill="#9DA4BB" fill-rule="evenodd" d="M3.5 10.318C3.5 5.718 7.344 2 11.993 2c4.663 0 8.507 3.718 8.507 8.318 0 2.318-.843 4.47-2.23 6.294-1.531 2.012-3.418 3.765-5.541 5.14-.486.318-.925.342-1.459 0-2.135-1.375-4.022-3.128-5.54-5.14-1.388-1.824-2.23-3.976-2.23-6.294zm5.694.259c0 1.54 1.258 2.753 2.8 2.753 1.542 0 2.812-1.212 2.812-2.753 0-1.53-1.27-2.8-2.813-2.8-1.541 0-2.799 1.27-2.799 2.8z" clip-rule="evenodd"/>
</svg>
