<svg xmlns="http://www.w3.org/2000/svg" width="88.863" height="64.5" viewBox="0 0 88.863 64.5">
  <g id="Group_22873" data-name="Group 22873" transform="translate(-40.891 -39.525)">
    <path id="Path_27794" data-name="Path 27794" d="M104.731,52.007l-15.9-5.715L109.3,89.618,123.741,82.8,112.529,59.06a13.692,13.692,0,0,0-7.8-7.053Z" fill="#ffb782"/>
    <path id="Path_27795" data-name="Path 27795" d="M68.615,99.18,50.453,81.856A4.564,4.564,0,0,1,50.3,75.4L81.8,42.382a4.561,4.561,0,0,1,6.45-.152l18.163,17.325a4.563,4.563,0,0,1,.152,6.451l-31.5,33.022A4.565,4.565,0,0,1,68.615,99.18Z" fill="#de4c3c"/>
    <path id="Path_27796" data-name="Path 27796" d="M94.792,48.473,57.077,88.18l6.844,6.528,37.721-39.7-6.85-6.536Z" fill="#7a4930"/>
    <path id="Path_27797" data-name="Path 27797" d="M53.192,88.364,42.47,65.669a4.562,4.562,0,0,1,2.177-6.075L85.91,40.1a4.563,4.563,0,0,1,6.075,2.177l10.721,22.695a4.563,4.563,0,0,1-2.177,6.075L59.267,90.541a4.563,4.563,0,0,1-6.075-2.177Z" fill="#4398d1"/>
    <path id="Path_27798" data-name="Path 27798" d="M85.908,40.1l-4.385,2.071L65.2,87.74l35.331-16.69a4.564,4.564,0,0,0,2.177-6.076L91.984,42.279A4.565,4.565,0,0,0,85.908,40.1Z" fill="#3e8cc7"/>
    <path id="Path_27799" data-name="Path 27799" d="M56.567,74.15,52.44,76.1l.975,2.063,4.126-1.95-.974-2.063Zm2.925,6.191-4.127,1.95.975,2.063,4.126-1.95ZM78.057,71.57l-4.126,1.95.974,2.063,4.127-1.95Zm-15.3-.345-4.127,1.95.974,2.063,4.127-1.95-.975-2.063ZM68.948,68.3l-4.126,1.949.975,2.063,4.126-1.95L68.948,68.3Zm6.184-2.922-4.126,1.949.975,2.063,4.126-1.949ZM86.825,44.717l-2.063.974,1.462,3.1,2.063-.975ZM82.7,46.665l-2.063.974,1.462,3.1,2.063-.974Zm-4.128,1.95-2.063.975,1.462,3.094,2.063-.974Zm-4.124,1.948-2.063.975,1.462,3.1,2.063-.975Z" fill="#5eb3d1"/>
    <path id="Path_27800" data-name="Path 27800" d="M123.743,82.795l-18.568,8.772,4.873,10.316,18.568-8.772Z" fill="#88b337"/>
    <path id="Path_27801" data-name="Path 27801" d="M87.555,62.119a4.946,4.946,0,0,0-3.536,9.235l12.81,5.228a15.388,15.388,0,0,0,7.025,14.141l1.317.846,13.41-6.335-6.822-14.443-24.2-8.672Z" fill="#ffb782"/>
    <path id="Path_27802" data-name="Path 27802" d="M111.791,92.226l-2.063.975.974,2.063,2.063-.975Z" fill="#6b962a"/>
    <path id="Path_27803" data-name="Path 27803" d="M49.713,70.325l-2.34-4.952a1.826,1.826,0,0,1,.871-2.43L53.2,60.6a1.825,1.825,0,0,1,2.43.872l2.34,4.951a1.825,1.825,0,0,1-.872,2.43L52.143,71.2a1.826,1.826,0,0,1-2.43-.871Z" fill="#fdb62f"/>
    <path id="Path_27804" data-name="Path 27804" d="M51.15,65.355l-3.094,1.462.974,2.063,3.1-1.462Zm5.158-2.436-3.1,1.462.974,2.063,3.1-1.462-.974-2.063Z" fill="#fd7b2f"/>
    <path id="Path_27805" data-name="Path 27805" d="M110.728,71.277a1.137,1.137,0,0,1-.872.042l-6.075-2.177a1.141,1.141,0,0,1,.769-2.148l6.076,2.177a1.141,1.141,0,0,1,.1,2.106Z" fill="#f2a46f"/>
    <path id="Path_27806" data-name="Path 27806" d="M95.741,47.563l-2.726-5.771a5.71,5.71,0,0,0-7.594-2.721L44.158,58.563a5.711,5.711,0,0,0-2.721,7.595l10.72,22.694a5.694,5.694,0,0,0,7.037,2.92l8.633,8.234a5.7,5.7,0,0,0,8.065-.191L95.7,79.048a16.487,16.487,0,0,0,7.54,12.633l1.04.669,4.734,10.02a1.14,1.14,0,0,0,1.518.545L129.1,94.143a1.142,1.142,0,0,0,.544-1.519L113.56,58.573a14.923,14.923,0,0,0-8.443-7.641l-9.376-3.37Zm2.915,6.168,6.97,6.65a3.422,3.422,0,0,1,.113,4.838l-1.463,1.537a5.707,5.707,0,0,0-.54-2.27l-5.08-10.755ZM54.22,87.879,43.5,65.183a3.422,3.422,0,0,1,1.633-4.557L86.4,41.134a3.421,3.421,0,0,1,4.556,1.633l3.1,6.556-.01.005.02.019,7.613,16.114a3.449,3.449,0,0,1,.183.568L87.942,61.042a6.087,6.087,0,0,0-4.348,11.364L89.7,74.9,58.777,89.511a3.422,3.422,0,0,1-4.556-1.633Zm15.652-1.085-6,6.29-2.419-2.312,8.42-3.978ZM74.24,98.24a3.422,3.422,0,0,1-4.84.115l-3.877-3.7L75.6,84.09l0-.006,16.97-8.017L94.6,76.9,74.241,98.24ZM127.1,92.567l-16.506,7.8-3.9-8.252,16.5-7.8Zm-4.873-10.316-16.965,8.014-.785-.5a14.227,14.227,0,0,1-6.5-13.088,1.142,1.142,0,0,0-.707-1.146L84.454,70.3a3.8,3.8,0,0,1,2.72-7.1l24.2,8.669.77-2.148-5.62-2.013.863-.913a5.7,5.7,0,0,0-.19-8.061l-7.775-7.417,4.924,1.77a12.631,12.631,0,0,1,7.149,6.465l10.726,22.7Z" transform="translate(0 1)"/>
    <path id="Path_27807" data-name="Path 27807" d="M57.58,69.888A2.967,2.967,0,0,0,59,65.938l-2.34-4.951a2.965,2.965,0,0,0-3.948-1.415l-4.952,2.34a2.966,2.966,0,0,0-1.415,3.948l2.34,4.952a2.965,2.965,0,0,0,3.948,1.415l4.952-2.34Zm-6.837-.05-.682-1.445,2.063-.975-.974-2.063-2.063.975L48.4,64.886a.686.686,0,0,1,.327-.912l4.951-2.339a.686.686,0,0,1,.912.327l.682,1.444-2.063.974.974,2.064,2.064-.975.682,1.444a.686.686,0,0,1-.327.912l-4.951,2.339a.688.688,0,0,1-.912-.327Zm5.824,4.312L52.44,76.1l.975,2.063,4.126-1.95-.974-2.063Zm2.925,6.191-4.127,1.95.975,2.063,4.126-1.95ZM78.057,71.57l-4.126,1.95.974,2.063,4.127-1.95Zm-15.3-.345-4.127,1.95.974,2.063,4.127-1.95-.975-2.063ZM68.948,68.3l-4.126,1.949.975,2.063,4.126-1.95L68.948,68.3Zm6.184-2.922-4.126,1.949.975,2.063,4.126-1.949ZM86.825,44.717l-2.063.974,1.462,3.1,2.063-.975ZM82.7,46.665l-2.063.974,1.462,3.1,2.063-.974Zm-4.128,1.95-2.063.975,1.462,3.094,2.063-.974Zm-4.124,1.948-2.063.975,1.462,3.1,2.063-.975Zm37.344,41.663-2.063.975.974,2.063,2.063-.975Z"/>
  </g>
</svg>
