<svg width="18" height="18" viewBox="0 0 18 18" fill="none" xmlns="http://www.w3.org/2000/svg">
<g clip-path="url(#clip0)">
<path d="M11.3546 6.53693C17.2108 6.53693 16.7781 6.53569 16.8683 6.53918C16.8153 6.33691 16.71 6.14558 16.5518 5.98733L14.9462 4.38176C14.5993 4.03478 14.0666 3.93391 13.6206 4.13089C13.3812 4.2367 13.0958 4.1833 12.9106 3.99808C12.7254 3.81289 12.672 3.52754 12.7777 3.28807C12.9747 2.8422 12.8739 2.30947 12.5269 1.96245L10.9213 0.35689C10.4454 -0.118946 9.67116 -0.118981 9.19525 0.35689L7.18652 2.36562C7.75261 2.93216 10.79 5.97187 11.3546 6.53693Z" fill="#6D48F5"/>
<path d="M6.43771 3.11426L3.01514 6.53683H9.85704C9.84466 6.52441 9.58281 6.26228 6.43771 3.11426Z" fill="#6D48F5"/>
<path d="M17.2399 12.2016C17.6944 12.0256 17.9998 11.5776 17.9998 11.0868V8.81624C17.9998 8.14326 17.4523 7.5957 16.7793 7.5957H14.2939V17.9994H16.7793C17.4523 17.9994 17.9998 17.4518 17.9998 16.7788V14.5083C17.9998 14.0176 17.6945 13.5696 17.2399 13.3935C16.9958 13.299 16.8317 13.0594 16.8317 12.7975C16.8317 12.5356 16.9958 12.2961 17.2399 12.2016Z" fill="#6D48F5"/>
<path d="M0 8.81624V11.0868C0 11.5776 0.3054 12.0256 0.759918 12.2015C1.00408 12.2961 1.16809 12.5356 1.16809 12.7975C1.16809 13.0594 1.00405 13.299 0.759882 13.3935C0.305365 13.5696 0 14.0175 0 14.5083V16.7788C0 17.4518 0.547553 17.9994 1.22054 17.9994H13.2353V7.5957H1.22054C0.547553 7.5957 0 8.14322 0 8.81624H0ZM3.70588 10.0582H11.6471V11.117H3.70588V10.0582ZM3.70588 12.1759H11.6471V13.2347H3.70588V12.1759ZM3.70588 14.2935H11.6471V15.3523H3.70588V14.2935Z" fill="#6D48F5"/>
</g>
<defs>
<clipPath id="clip0">
<rect width="18" height="18" fill="white"/>
</clipPath>
</defs>
</svg>
