<svg width="16" height="16" viewBox="0 0 16 16" fill="none" xmlns="http://www.w3.org/2000/svg">
<path fill-rule="evenodd" clip-rule="evenodd" d="M8.79089 15.1917C8.1295 14.8912 7.3705 14.8912 6.70911 15.1917C5.38304 15.7942 3.82396 15.1484 3.31233 13.7847C3.05716 13.1045 2.52046 12.5678 1.84029 12.3127C0.476567 11.801 -0.169225 10.242 0.433303 8.91589C0.733818 8.2545 0.733818 7.4955 0.433302 6.83411C-0.169225 5.50804 0.476566 3.94896 1.84029 3.43733C2.52046 3.18216 3.05716 2.64546 3.31233 1.96529C3.82396 0.601566 5.38304 -0.0442249 6.70911 0.558303C7.3705 0.858818 8.1295 0.858818 8.79089 0.558302C10.117 -0.0442251 11.676 0.601567 12.1877 1.96529C12.4428 2.64546 12.9795 3.18216 13.6597 3.43733C15.0234 3.94896 15.6692 5.50804 15.0667 6.83411C14.7662 7.4955 14.7662 8.2545 15.0667 8.91589C15.6692 10.242 15.0234 11.801 13.6597 12.3127C12.9795 12.5678 12.4428 13.1045 12.1877 13.7847C11.676 15.1484 10.117 15.7942 8.79089 15.1917Z" fill="#F5B000"/>
<ellipse cx="7.74429" cy="7.8751" rx="5.84" ry="5.84" fill="#FFE5A4"/>
<path d="M7.49934 7.73998H7.81179C8.10381 7.73998 8.32232 7.6828 8.46731 7.56844C8.6123 7.45204 8.6848 7.28357 8.6848 7.06302C8.6848 6.84042 8.62354 6.67603 8.50101 6.56984C8.38052 6.46365 8.1906 6.41055 7.93125 6.41055H7.49934V7.73998ZM9.64358 7.02932C9.64358 7.51126 9.49246 7.87987 9.19023 8.13514C8.89003 8.3904 8.46221 8.51804 7.90675 8.51804H7.49934V10.1109H6.54975V5.6325H7.98026C8.52347 5.6325 8.93598 5.74992 9.2178 5.98477C9.50165 6.21757 9.64358 6.56576 9.64358 7.02932Z" fill="#996E00"/>
</svg>
