<svg width="109" height="107" viewBox="0 0 109 107" fill="none" xmlns="http://www.w3.org/2000/svg">
<g filter="url(#filter0_i)">
<mask id="path-1-inside-1" fill="white">
<path d="M89.8467 39.4853C87.8433 34.842 84.9723 30.6321 81.3978 27.0959C77.8232 23.5596 73.6151 20.7663 69.0136 18.8754C64.4121 16.9845 59.5074 16.033 54.5795 16.0753C49.6516 16.1176 44.797 17.1529 40.293 19.122C35.7889 21.091 31.7236 23.9554 28.329 27.5514C24.9345 31.1475 22.2773 35.4049 20.5091 40.0805C18.7409 44.7561 17.8963 49.7583 18.0236 54.8016C18.1509 59.845 19.2476 64.8305 21.251 69.4738L33.5983 64.0758C32.3161 61.1042 31.6142 57.9134 31.5327 54.6857C31.4512 51.458 31.9918 48.2565 33.1234 45.2641C34.2551 42.2718 35.9557 39.547 38.1282 37.2455C40.3007 34.9441 42.9025 33.1109 45.7851 31.8507C48.6677 30.5905 51.7746 29.9279 54.9285 29.9008C58.0823 29.8738 61.2213 30.4827 64.1663 31.6929C67.1112 32.9031 69.8045 34.6908 72.0922 36.954C74.3799 39.2172 76.2173 41.9115 77.4995 44.8832L89.8467 39.4853Z"/>
</mask>
<path d="M89.8467 39.4853C87.8433 34.842 84.9723 30.6321 81.3978 27.0959C77.8232 23.5596 73.6151 20.7663 69.0136 18.8754C64.4121 16.9845 59.5074 16.033 54.5795 16.0753C49.6516 16.1176 44.797 17.1529 40.293 19.122C35.7889 21.091 31.7236 23.9554 28.329 27.5514C24.9345 31.1475 22.2773 35.4049 20.5091 40.0805C18.7409 44.7561 17.8963 49.7583 18.0236 54.8016C18.1509 59.845 19.2476 64.8305 21.251 69.4738L33.5983 64.0758C32.3161 61.1042 31.6142 57.9134 31.5327 54.6857C31.4512 51.458 31.9918 48.2565 33.1234 45.2641C34.2551 42.2718 35.9557 39.547 38.1282 37.2455C40.3007 34.9441 42.9025 33.1109 45.7851 31.8507C48.6677 30.5905 51.7746 29.9279 54.9285 29.9008C58.0823 29.8738 61.2213 30.4827 64.1663 31.6929C67.1112 32.9031 69.8045 34.6908 72.0922 36.954C74.3799 39.2172 76.2173 41.9115 77.4995 44.8832L89.8467 39.4853Z" stroke="#F8F8F8" stroke-width="52.1755" mask="url(#path-1-inside-1)"/>
</g>
<g filter="url(#filter1_d)">
<mask id="path-2-inside-2" fill="white">
<path d="M22.2686 36.123C19.6719 41.1679 18.2245 46.7642 18.033 52.4999C17.8414 58.2356 18.9106 63.9647 21.1618 69.2653L33.5412 63.9424C32.1004 60.55 31.4161 56.8834 31.5387 53.2125C31.6613 49.5417 32.5876 45.9601 34.2495 42.7314L22.2686 36.123Z"/>
</mask>
<path d="M22.2686 36.123C19.6719 41.1679 18.2245 46.7642 18.033 52.4999C17.8414 58.2356 18.9106 63.9647 21.1618 69.2653L33.5412 63.9424C32.1004 60.55 31.4161 56.8834 31.5387 53.2125C31.6613 49.5417 32.5876 45.9601 34.2495 42.7314L22.2686 36.123Z" stroke="url(#paint0_linear)" stroke-width="52.1755" mask="url(#path-2-inside-2)"/>
</g>
<g filter="url(#filter2_d)">
<mask id="path-3-inside-3" fill="white">
<path d="M60.67 16.5302C53.7925 15.4386 46.7871 16.3148 40.4325 19.0613C34.0779 21.8078 28.6231 26.3171 24.6744 32.0878L35.7892 40.1488C38.3164 36.4555 41.8074 33.5696 45.8744 31.8119C49.9413 30.0541 54.4248 29.4934 58.8264 30.192L60.67 16.5302Z"/>
</mask>
<path d="M60.67 16.5302C53.7925 15.4386 46.7871 16.3148 40.4325 19.0613C34.0779 21.8078 28.6231 26.3171 24.6744 32.0878L35.7892 40.1488C38.3164 36.4555 41.8074 33.5696 45.8744 31.8119C49.9413 30.0541 54.4248 29.4934 58.8264 30.192L60.67 16.5302Z" stroke="url(#paint1_linear)" stroke-width="52.1755" mask="url(#path-3-inside-3)"/>
</g>
<g filter="url(#filter3_d)">
<mask id="path-4-inside-4" fill="white">
<path d="M89.8467 39.4853C87.5653 34.1977 84.1625 29.4804 79.889 25.6806C75.6154 21.8809 70.5799 19.0954 65.1532 17.5293L61.6956 30.8314C65.1687 31.8337 68.3915 33.6164 71.1265 36.0482C73.8616 38.4801 76.0394 41.4992 77.4995 44.8832L89.8467 39.4853Z"/>
</mask>
<path d="M89.8467 39.4853C87.5653 34.1977 84.1625 29.4804 79.889 25.6806C75.6154 21.8809 70.5799 19.0954 65.1532 17.5293L61.6956 30.8314C65.1687 31.8337 68.3915 33.6164 71.1265 36.0482C73.8616 38.4801 76.0394 41.4992 77.4995 44.8832L89.8467 39.4853Z" stroke="url(#paint2_linear)" stroke-width="52.1755" mask="url(#path-4-inside-4)"/>
</g>
<path d="M28.2962 59.8273L27.0476 60.3728L25.569 56.9481L25.3382 56.3801L25.0927 55.7559C24.975 56.0543 24.8898 56.2536 24.8369 56.3537L24.3941 57.1967L23.4669 56.7068L24.7146 54.3573L25.7409 53.9089L28.2962 59.8273Z" fill="white"/>
<path d="M46.4646 31.0462L42.3351 32.8503L41.9594 31.98L42.7938 29.8302C43.0383 29.1877 43.1906 28.7507 43.2508 28.5191C43.3097 28.2848 43.3368 28.0806 43.3319 27.9062C43.3271 27.7319 43.2903 27.5651 43.2216 27.4059C43.1191 27.1684 42.9767 27.0205 42.7946 26.9621C42.6152 26.9025 42.4164 26.9204 42.1983 27.0157C41.9693 27.1158 41.7698 27.2655 41.5997 27.4649C41.4297 27.6643 41.2694 27.9123 41.119 28.209L40.0923 27.7C40.2761 27.3246 40.4414 27.0439 40.5884 26.8578C40.7354 26.6717 40.9103 26.5022 41.1133 26.3494C41.3151 26.1938 41.5561 26.0549 41.8362 25.9325C42.2053 25.7712 42.5603 25.6963 42.9014 25.7077C43.2425 25.719 43.5436 25.812 43.8047 25.9867C44.0658 26.1613 44.264 26.4052 44.3991 26.7182C44.5168 26.9908 44.579 27.2684 44.5857 27.5509C44.594 27.8296 44.5513 28.1386 44.4576 28.4778C44.3666 28.8159 44.1682 29.3277 43.8621 30.0131L43.4119 31.0615L43.4363 31.1182L46.0102 29.9937L46.4646 31.0462Z" fill="white"/>
<path d="M78.1661 32.578C78.3257 32.9478 78.3497 33.311 78.238 33.6678C78.1262 34.0245 77.8893 34.3398 77.5272 34.6134L77.5377 34.6377C78.0401 34.4888 78.464 34.4768 78.8093 34.6018C79.1535 34.7241 79.4101 34.981 79.579 35.3723C79.8249 35.9417 79.8105 36.4757 79.5358 36.9742C79.26 37.47 78.7396 37.8851 77.9746 38.2193C77.3335 38.4994 76.7191 38.6411 76.1314 38.6444L75.6717 37.5798C75.9508 37.5958 76.2434 37.5802 76.5497 37.533C76.8559 37.4859 77.1437 37.4034 77.413 37.2857C77.8252 37.1057 78.0993 36.9025 78.2353 36.6763C78.3714 36.45 78.3724 36.1817 78.2384 35.8714C78.1184 35.5934 77.9202 35.4458 77.6438 35.4286C77.3675 35.4114 76.9814 35.5111 76.4858 35.7276L76.0373 35.9236L75.6231 34.9642L76.0797 34.7647C76.5376 34.5646 76.846 34.3593 77.0048 34.1488C77.1652 33.9344 77.1825 33.6814 77.0566 33.39C76.8632 32.942 76.4863 32.8404 75.9261 33.0851C75.7321 33.1699 75.5481 33.2888 75.374 33.4418C75.2027 33.5937 75.0288 33.8027 74.8524 34.0691L73.9023 33.4592C74.2733 32.8352 74.8318 32.3602 75.578 32.0343C76.1895 31.7671 76.7253 31.6806 77.1853 31.7747C77.6481 31.8677 77.975 32.1354 78.1661 32.578Z" fill="white"/>
<defs>
<filter id="filter0_i" x="18.0107" y="16.0742" width="71.8356" height="55.4065" filterUnits="userSpaceOnUse" color-interpolation-filters="sRGB">
<feFlood flood-opacity="0" result="BackgroundImageFix"/>
<feBlend mode="normal" in="SourceGraphic" in2="BackgroundImageFix" result="shape"/>
<feColorMatrix in="SourceAlpha" type="matrix" values="0 0 0 0 0 0 0 0 0 0 0 0 0 0 0 0 0 0 127 0" result="hardAlpha"/>
<feOffset dy="2.00675"/>
<feGaussianBlur stdDeviation="5.51856"/>
<feComposite in2="hardAlpha" operator="arithmetic" k2="-1" k3="1"/>
<feColorMatrix type="matrix" values="0 0 0 0 0.441667 0 0 0 0 0.6315 0 0 0 0 1 0 0 0 0.1 0"/>
<feBlend mode="normal" in2="shape" result="effect1_innerShadow"/>
</filter>
<filter id="filter1_d" x="0.953361" y="20.069" width="52.3599" height="69.2638" filterUnits="userSpaceOnUse" color-interpolation-filters="sRGB">
<feFlood flood-opacity="0" result="BackgroundImageFix"/>
<feColorMatrix in="SourceAlpha" type="matrix" values="0 0 0 0 0 0 0 0 0 0 0 0 0 0 0 0 0 0 127 0"/>
<feOffset dx="1.00338" dy="2.00675"/>
<feGaussianBlur stdDeviation="9.03038"/>
<feColorMatrix type="matrix" values="0 0 0 0 0.592157 0 0 0 0 0.482353 0 0 0 0 0.992157 0 0 0 0.73 0"/>
<feBlend mode="normal" in2="BackgroundImageFix" result="effect1_dropShadow"/>
<feBlend mode="normal" in="SourceGraphic" in2="effect1_dropShadow" result="shape"/>
</filter>
<filter id="filter2_d" x="7.61742" y="0.0197246" width="72.1171" height="60.1963" filterUnits="userSpaceOnUse" color-interpolation-filters="sRGB">
<feFlood flood-opacity="0" result="BackgroundImageFix"/>
<feColorMatrix in="SourceAlpha" type="matrix" values="0 0 0 0 0 0 0 0 0 0 0 0 0 0 0 0 0 0 127 0"/>
<feOffset dx="1.00338" dy="2.00675"/>
<feGaussianBlur stdDeviation="9.03038"/>
<feColorMatrix type="matrix" values="0 0 0 0 0.396078 0 0 0 0 0.819608 0 0 0 0 0.956863 0 0 0 0.7 0"/>
<feBlend mode="normal" in2="BackgroundImageFix" result="effect1_dropShadow"/>
<feBlend mode="normal" in="SourceGraphic" in2="effect1_dropShadow" result="shape"/>
</filter>
<filter id="filter3_d" x="44.6379" y="1.47529" width="64.2726" height="63.4754" filterUnits="userSpaceOnUse" color-interpolation-filters="sRGB">
<feFlood flood-opacity="0" result="BackgroundImageFix"/>
<feColorMatrix in="SourceAlpha" type="matrix" values="0 0 0 0 0 0 0 0 0 0 0 0 0 0 0 0 0 0 127 0"/>
<feOffset dx="1.00338" dy="2.00675"/>
<feGaussianBlur stdDeviation="9.03038"/>
<feColorMatrix type="matrix" values="0 0 0 0 1 0 0 0 0 0.694118 0 0 0 0 0.32549 0 0 0 0.7 0"/>
<feBlend mode="normal" in2="BackgroundImageFix" result="effect1_dropShadow"/>
<feBlend mode="normal" in="SourceGraphic" in2="effect1_dropShadow" result="shape"/>
</filter>
<linearGradient id="paint0_linear" x1="40.293" y1="19.122" x2="55.7181" y2="54.4055" gradientUnits="userSpaceOnUse">
<stop stop-color="#A48BFF"/>
<stop offset="1" stop-color="#6D48F5"/>
</linearGradient>
<linearGradient id="paint1_linear" x1="40.293" y1="19.122" x2="49.0545" y2="39.163" gradientUnits="userSpaceOnUse">
<stop stop-color="#8DE6FF"/>
<stop offset="1" stop-color="#40C4E9"/>
</linearGradient>
<linearGradient id="paint2_linear" x1="78.1796" y1="24.9172" x2="69.0735" y2="41.7063" gradientUnits="userSpaceOnUse">
<stop stop-color="#FFD39F"/>
<stop offset="1" stop-color="#FFA53C"/>
</linearGradient>
</defs>
</svg>
