<svg width="21" height="21" viewBox="0 0 21 21" fill="none" xmlns="http://www.w3.org/2000/svg">
<path fill-rule="evenodd" clip-rule="evenodd" d="M10.0218 18.3547C14.6242 18.3547 18.3551 14.6237 18.3551 10.0213C18.3551 5.41895 14.6242 1.68799 10.0218 1.68799C5.41944 1.68799 1.68848 5.41895 1.68848 10.0213C1.68848 14.6237 5.41944 18.3547 10.0218 18.3547ZM8.16084 8.24266C8.55923 8.47311 9.069 8.33698 9.29945 7.93859C10.097 6.78415 11.6385 8.32132 10.3746 9.07269C10.1474 9.20775 9.85032 9.43255 9.62434 9.70794C9.41037 9.96869 9.21385 10.3273 9.19074 10.768C9.1878 10.7965 9.18629 10.8254 9.18629 10.8547C9.18629 11.3149 9.55939 11.688 10.0196 11.688C10.6548 11.688 10.7758 11.3505 10.8978 11.01C10.9763 10.7909 11.0552 10.5706 11.2718 10.438C11.9607 10.0163 12.5218 9.26943 12.5218 8.35466C12.5218 6.97394 11.4025 5.85466 10.0218 5.85466C9.09541 5.85466 8.28778 6.35897 7.85678 7.10405C7.62632 7.50243 7.76246 8.01221 8.16084 8.24266ZM9.18629 13.3547C9.18629 12.8944 9.55939 12.5213 10.0196 12.5213C10.4799 12.5213 10.853 12.8944 10.853 13.3547C10.853 13.8149 10.4799 14.188 10.0196 14.188C9.55939 14.188 9.18629 13.8149 9.18629 13.3547Z" fill="white"/>
</svg>
