<svg width="24" height="24" viewBox="0 0 24 24" fill="none" xmlns="http://www.w3.org/2000/svg">
<g clip-path="url(#clip0)">
<path d="M11.7611 12.7451C11.8404 12.748 11.9198 12.75 12 12.75C12.0744 12.75 12.1483 12.7484 12.2221 12.7456C13.9008 12.7819 15.5519 13.2261 17.0107 14.038C17.4632 14.2897 18.0341 14.1271 18.2859 13.6747C18.5376 13.2222 18.375 12.6513 17.9226 12.3995C17.2509 12.0258 16.5451 11.7178 15.8163 11.4783C17.3687 10.3145 18.375 8.46002 18.375 6.375C18.375 2.85974 15.5151 0 12 0C8.48476 0 5.62502 2.85974 5.62502 6.375C5.62502 8.4613 6.63247 10.3169 8.18649 11.4805C6.76284 11.9491 5.4269 12.678 4.25759 13.6397C2.11398 15.403 0.623497 17.8625 0.0608138 20.5651C-0.115517 21.412 0.095787 22.2817 0.640343 22.9515C1.18215 23.6179 1.9858 24 2.84493 24H10.1719C10.6895 24 11.1094 23.5803 11.1094 23.0625C11.1094 22.5447 10.6895 22.125 10.1719 22.125H2.84493C2.44466 22.125 2.20333 21.9016 2.09493 21.7685C1.90798 21.5385 1.83565 21.2393 1.89645 20.9473C2.87002 16.2709 6.99685 12.8558 11.7611 12.7451ZM7.50002 6.375C7.50002 3.89374 9.51858 1.875 12 1.875C14.4813 1.875 16.5 3.89374 16.5 6.375C16.5 8.78156 14.6012 10.7527 12.2232 10.8695C12.1487 10.868 12.0744 10.8671 12 10.8671C11.9268 10.8671 11.8537 10.8682 11.7807 10.8695C9.40084 10.7549 7.50002 8.78284 7.50002 6.375ZM24 17.4294C24.0009 18.0557 23.7561 18.6442 23.311 19.0869L21.5673 20.8209C21.3844 21.0029 21.1452 21.0938 20.9063 21.0938C20.6655 21.0938 20.4247 21.0015 20.2414 20.8173C19.8763 20.4501 19.878 19.8567 20.2451 19.4916L21.4138 18.3292H16.101C15.0544 18.3292 14.2031 19.1807 14.2031 20.2271C14.2031 21.2736 15.0442 22.125 16.0781 22.125C16.5958 22.125 17.0156 22.5447 17.0156 23.0625C17.0156 23.5803 16.5958 24 16.0781 24C15.0698 24 14.125 23.6063 13.418 22.8913C12.715 22.1805 12.3281 21.2344 12.3281 20.2271C12.3281 18.1467 14.0206 16.4542 16.101 16.4542H21.3278L20.2469 15.3854C19.8789 15.0212 19.8754 14.4276 20.2396 14.0596C20.6036 13.6915 21.1972 13.688 21.5655 14.0522L23.3064 15.7738C23.7528 16.2153 23.9991 16.8032 24 17.4294Z" fill="white"/>
</g>
<defs>
<clipPath id="clip0">
<rect width="24" height="24" fill="white"/>
</clipPath>
</defs>
</svg>
