<svg width="24" height="24" viewBox="0 0 24 24" fill="none" xmlns="http://www.w3.org/2000/svg">
<path fill-rule="evenodd" clip-rule="evenodd" d="M2.19279 6.57859C1.36183 4.08567 3.91012 1.80484 6.29602 2.90603L20.0983 9.27632C22.422 10.3488 22.422 13.6516 20.0983 14.7241L6.29603 21.0943C3.91012 22.1955 1.36183 19.9147 2.19281 17.4217L3.68376 12.9489C3.88903 12.3331 3.88903 11.6673 3.68377 11.0515L2.19279 6.57859ZM5.4579 4.72195L19.2601 11.0922C20.0347 11.4497 20.0347 12.5506 19.2601 12.9081L5.45791 19.2784C4.66261 19.6454 3.81318 18.8852 4.09017 18.0542L5.58113 13.5813C5.64486 13.3901 5.69672 13.1961 5.73671 13.0002H14C14.5523 13.0002 15 12.5524 15 12.0002C15 11.4479 14.5523 11.0002 14 11.0002H5.73669C5.69671 10.8043 5.64486 10.6102 5.58113 10.4191L4.09016 5.94613C3.81317 5.11516 4.66261 4.35489 5.4579 4.72195Z" fill="#6D48F5"/>
</svg>
