<svg width="30" height="29" viewBox="0 0 30 29" fill="none" xmlns="http://www.w3.org/2000/svg">
<path fill-rule="evenodd" clip-rule="evenodd" d="M14.9996 17.4995C16.3803 17.4995 17.4996 16.3802 17.4996 14.9995C17.4996 13.6188 16.3803 12.4995 14.9996 12.4995C13.6189 12.4995 12.4996 13.6188 12.4996 14.9995C12.4996 16.3802 13.6189 17.4995 14.9996 17.4995ZM19.9996 14.9995C19.9996 17.7609 17.7611 19.9995 14.9996 19.9995C12.2382 19.9995 9.99963 17.7609 9.99963 14.9995C9.99963 12.2381 12.2382 9.99951 14.9996 9.99951C17.7611 9.99951 19.9996 12.2381 19.9996 14.9995Z" fill="white"/>
<path fill-rule="evenodd" clip-rule="evenodd" d="M14.2225 3.75049L13.7381 5.20381C13.2694 6.60994 12.2476 7.5883 11.2054 8.16858C11.1313 8.20985 11.0579 8.2523 10.9853 8.29591C9.96028 8.91123 8.60011 9.30813 7.14627 9.01062L5.64406 8.70321L6.14526 6.25397L7.64747 6.56138C8.35407 6.70597 9.08014 6.5237 9.69851 6.15248C9.79441 6.09491 9.89132 6.03885 9.98922 5.98435C10.6186 5.6339 11.1386 5.09666 11.3664 4.41324L11.8508 2.95992C12.1911 1.93906 13.1465 1.25049 14.2225 1.25049H15.775C16.8511 1.25049 17.8064 1.93906 18.1467 2.95992L18.6311 4.41324C18.8589 5.09666 19.3789 5.6339 20.0083 5.98435C20.1062 6.03885 20.2031 6.09491 20.299 6.15248C20.9174 6.52369 21.6434 6.70596 22.35 6.56137L23.8522 6.25397C24.9064 6.03824 25.9804 6.52131 26.5185 7.45322L27.2947 8.79768C27.8327 9.72959 27.7141 10.9012 27.0001 11.7064L25.9814 12.8552C25.504 13.3935 25.2977 14.1115 25.3091 14.831C25.3109 14.9439 25.3109 15.057 25.3091 15.17C25.2977 15.8894 25.504 16.6074 25.9814 17.1457L27.0001 18.2945C27.7141 19.0997 27.8327 20.2713 27.2947 21.2032L26.5185 22.5477C25.9804 23.4796 24.9064 23.9627 23.8522 23.7469L22.3501 23.4395C21.6435 23.2949 20.9175 23.4772 20.2991 23.8484C20.2032 23.906 20.1062 23.9621 20.0083 24.0166C19.3789 24.3671 18.8589 24.9043 18.6311 25.5877L18.1467 27.0411C17.8064 28.0619 16.8511 28.7505 15.775 28.7505H14.2225C13.1465 28.7505 12.1911 28.0619 11.8508 27.0411L11.3664 25.5877C11.1386 24.9043 10.6186 24.3671 9.98922 24.0166C9.8913 23.9621 9.79436 23.906 9.69843 23.8484C9.08006 23.4772 8.35398 23.2949 7.64737 23.4395L6.14526 23.7469C5.09103 23.9627 4.01703 23.4796 3.47899 22.5477L2.70276 21.2032C2.16473 20.2713 2.28338 19.0997 2.99732 18.2945L4.86783 19.9532L5.64405 21.2977L7.14617 20.9903C8.60003 20.6928 9.96021 21.0897 10.9852 21.705C11.0579 21.7487 11.1313 21.7911 11.2054 21.8324C12.2476 22.4127 13.2694 23.391 13.7381 24.7972L14.2225 26.2505L15.775 26.2505L16.2594 24.7972C16.7281 23.391 17.75 22.4127 18.7921 21.8324C18.8662 21.7911 18.9396 21.7487 19.0123 21.705C20.0373 21.0897 21.3975 20.6928 22.8513 20.9903L24.3534 21.2977L25.1296 19.9532L24.1109 18.8044C23.13 17.6982 22.7905 16.3262 22.8094 15.1303C22.8108 15.0438 22.8108 14.9571 22.8094 14.8706C22.7905 13.6747 23.13 12.3027 24.1109 11.1965L25.1296 10.0477L24.3534 8.70322L22.8512 9.01061C21.3974 9.30812 20.0372 8.91122 19.0123 8.2959C18.9396 8.2523 18.8662 8.20985 18.7921 8.16858C17.75 7.5883 16.7281 6.60993 16.2594 5.20381L15.775 3.75049L14.2225 3.75049ZM2.99732 18.2945L4.86783 19.9532L5.88661 18.8043C6.86755 17.6981 7.20704 16.3262 7.1881 15.1303C7.18673 15.0438 7.18673 14.9572 7.1881 14.8706C7.20705 13.6747 6.86756 12.3028 5.88661 11.1966L4.86783 10.0477L5.64406 8.70321L6.14526 6.25397C5.09103 6.03824 4.01703 6.5213 3.47899 7.45321L2.70276 8.79768C2.16473 9.72959 2.28338 10.9012 2.99732 11.7064L4.0161 12.8552C4.4935 13.3936 4.69982 14.1116 4.68842 14.831C4.68663 14.9439 4.68663 15.057 4.68842 15.1699C4.69981 15.8893 4.49349 16.6073 4.0161 17.1456L2.99732 18.2945Z" fill="white"/>
</svg>
