<svg xmlns="http://www.w3.org/2000/svg" width="19" height="18" fill="none" viewBox="0 0 19 18">
    <path fill="#fff" d="M10.153 5.352c.146.493.416.934.773 1.286l-2.518 1.51c-.146-.493-.415-.934-.772-1.286l2.517-1.51zM7.636 11.138l2.517 1.51c.146-.493.416-.934.773-1.286l-2.518-1.51c-.146.493-.415.934-.772 1.286z"/>
    <path fill="#fff" fill-rule="evenodd" d="M13.034 6c.828 0 1.5-.672 1.5-1.5s-.672-1.5-1.5-1.5c-.829 0-1.5.672-1.5 1.5s.671 1.5 1.5 1.5zm3-1.5c0 1.657-1.343 3-3 3s-3-1.343-3-3 1.343-3 3-3c1.656 0 3 1.343 3 3zM13.034 15c.828 0 1.5-.672 1.5-1.5s-.672-1.5-1.5-1.5c-.829 0-1.5.672-1.5 1.5s.671 1.5 1.5 1.5zm3-1.5c0 1.657-1.343 3-3 3s-3-1.343-3-3 1.343-3 3-3c1.656 0 3 1.343 3 3zM5.534 10.5c.828 0 1.5-.672 1.5-1.5s-.672-1.5-1.5-1.5c-.829 0-1.5.672-1.5 1.5s.671 1.5 1.5 1.5zm3-1.5c0 1.657-1.343 3-3 3s-3-1.343-3-3 1.343-3 3-3 3 1.343 3 3z" clip-rule="evenodd"/>
</svg>
