<svg width="18" height="18" viewBox="0 0 18 18" fill="none" xmlns="http://www.w3.org/2000/svg">
<path d="M4.5 9.75018C5.351 9.75018 6.04198 9.46612 6.56823 9.11805C6.67825 9.04528 6.82174 9.04528 6.93176 9.11805C7.45801 9.46612 8.149 9.75018 9 9.75018C9.85099 9.75018 10.542 9.46612 11.0682 9.11805C11.1783 9.04528 11.3217 9.04528 11.4318 9.11805C11.958 9.46612 12.649 9.75018 13.5 9.75018C13.8311 9.75018 14.1656 9.72213 14.4925 9.65595C14.745 9.60484 15 9.78708 15 10.0447V13.5002C15 14.7428 13.9926 15.7502 12.75 15.7502H11.25C10.8358 15.7502 10.5 15.4144 10.5 15.0002V12.7502C10.5 11.9217 9.82843 11.2502 9 11.2502C8.17157 11.2502 7.5 11.9217 7.5 12.7502V15.0002C7.5 15.4144 7.16421 15.7502 6.75 15.7502H5.25C4.00736 15.7502 3 14.7428 3 13.5002V10.0447C3 9.78708 3.25496 9.60484 3.50746 9.65595C3.83442 9.72213 4.16893 9.75018 4.5 9.75018Z" fill="#FF8D40"/>
<path d="M3.67511 3.17836C4.1766 2.56065 4.94699 2.25 5.74264 2.25H12.2574C13.053 2.25 13.8234 2.56065 14.3249 3.17836C14.9671 3.96935 15.75 5.11517 15.75 6C15.75 7.5 15 8.25 13.5 8.25C12.3938 8.25 11.6954 7.43415 11.405 7.00582C11.3357 6.90351 11.1643 6.90351 11.095 7.00582C10.8046 7.43415 10.1062 8.25 9 8.25C7.89375 8.25 7.19544 7.43415 6.90504 7.00582C6.83568 6.90351 6.66432 6.90351 6.59496 7.00582C6.30456 7.43415 5.60625 8.25 4.5 8.25C3 8.25 2.25 7.5 2.25 6C2.25 5.11517 3.03293 3.96936 3.67511 3.17836Z" fill="#FF8D40"/>
</svg>
