<svg width="13" height="13" viewBox="0 0 13 13" fill="none" xmlns="http://www.w3.org/2000/svg">
<path d="M6.54832 10.9666C6.37972 10.8923 6.18766 10.8923 6.01906 10.9666L3.20024 12.2088C2.73998 12.4116 2.23203 12.0425 2.28269 11.5421L2.59299 8.47743C2.61155 8.29412 2.5522 8.11146 2.42944 7.97407L0.377013 5.67706C0.0418963 5.30201 0.235919 4.70487 0.727484 4.59842L3.73808 3.94649C3.91815 3.9075 4.07354 3.7946 4.16627 3.63539L5.71662 0.973605C5.96976 0.538992 6.59763 0.538992 6.85076 0.973605L8.40112 3.63539C8.49385 3.7946 8.64923 3.9075 8.8293 3.94649L11.8399 4.59842C12.3315 4.70487 12.5255 5.30201 12.1904 5.67706L10.1379 7.97407C10.0152 8.11146 9.95583 8.29413 9.97439 8.47743L10.2847 11.5421C10.3354 12.0425 9.8274 12.4116 9.36714 12.2088L6.54832 10.9666Z" fill="#FFAE5E"/>
</svg>
