<svg width="20" height="20" viewBox="0 0 20 20" fill="none" xmlns="http://www.w3.org/2000/svg">
<path fill-rule="evenodd" clip-rule="evenodd" d="M16.4678 10.0013C16.4678 10.6792 17.0245 11.2308 17.7087 11.2308C18.0537 11.2308 18.3337 11.5083 18.3337 11.8501V14.0804C18.3337 15.9663 16.7853 17.5005 14.882 17.5005H5.11949C3.21616 17.5005 1.66699 15.9663 1.66699 14.0804V11.8501C1.66699 11.5083 1.94699 11.2308 2.29199 11.2308C2.97699 11.2308 3.53366 10.6792 3.53366 10.0013C3.53366 9.34074 2.99949 8.84366 2.29199 8.84366C2.12616 8.84366 1.96783 8.77843 1.85033 8.662C1.73283 8.54557 1.66699 8.38786 1.66699 8.22437L1.66866 5.92144C1.66866 4.0355 3.21699 2.50049 5.12033 2.50049H14.8803C16.7837 2.50049 18.3328 4.0355 18.3328 5.92144L18.3337 8.15253C18.3337 8.31602 18.2678 8.47456 18.1512 8.59016C18.0337 8.70659 17.8753 8.77182 17.7087 8.77182C17.0245 8.77182 16.4678 9.3234 16.4678 10.0013ZM11.8768 10.5405L12.8593 9.59262C13.0301 9.42913 13.0893 9.18802 13.0151 8.96507C12.9418 8.74213 12.7501 8.58359 12.5185 8.55139L11.161 8.35487L10.5535 7.13611C10.4493 6.92637 10.2376 6.79591 10.0018 6.79508H10.0001C9.76514 6.79508 9.55348 6.92555 9.44764 7.13528L8.84014 8.35487L7.48514 8.55056C7.25098 8.58359 7.05931 8.74213 6.98514 8.96507C6.91181 9.18802 6.97098 9.42913 7.14098 9.59262L8.12348 10.5405L7.89181 11.8807C7.85181 12.1119 7.94598 12.3414 8.13764 12.4793C8.24598 12.5561 8.37181 12.5958 8.49931 12.5958C8.59681 12.5958 8.69514 12.5718 8.78514 12.5247L10.0001 11.8922L11.2126 12.5231C11.4226 12.6346 11.6718 12.6172 11.8626 12.4785C12.0551 12.3414 12.1493 12.1119 12.1093 11.8807L11.8768 10.5405Z" fill="white"/>
</svg>
