<svg width="18" height="18" viewBox="0 0 18 18" fill="none" xmlns="http://www.w3.org/2000/svg">
<path fill-rule="evenodd" clip-rule="evenodd" d="M16.3404 7.90429C16.2389 8.00294 16.1011 8.05931 15.956 8.05931C15.4192 8.05931 14.984 8.48209 14.984 8.99648C14.984 9.51439 15.4142 9.93506 15.9458 9.94069C16.2454 9.94351 16.5 10.1464 16.5 10.4375V12.2449C16.5 13.7662 15.2307 15 13.6639 15H11.2993C11.0549 15 10.8569 14.8076 10.8569 14.5702V13.0482C10.8569 12.7522 10.6175 12.5197 10.3129 12.5197C10.0155 12.5197 9.76886 12.7522 9.76886 13.0482V14.5702C9.76886 14.8076 9.57084 15 9.32713 15H4.33607C2.7766 15 1.5 13.7669 1.5 12.2449V10.4375C1.5 10.1464 1.75459 9.94351 2.05416 9.94069C2.58656 9.93506 3.01596 9.51439 3.01596 8.99648C3.01596 8.49618 2.59526 8.11568 2.044 8.11568C1.89894 8.11568 1.76112 8.05931 1.65957 7.96066C1.55803 7.86201 1.5 7.72813 1.5 7.5872V5.76218C1.5 4.24298 2.7795 3 4.34333 3H9.32713C9.57084 3 9.76886 3.19237 9.76886 3.42983V5.23371C9.76886 5.52261 10.0155 5.76218 10.3129 5.76218C10.6175 5.76218 10.8569 5.52261 10.8569 5.23371V3.42983C10.8569 3.19237 11.0549 3 11.2993 3H13.6639C15.2307 3 16.5 4.23312 16.5 5.75514V7.53083C16.5 7.67176 16.442 7.80564 16.3404 7.90429ZM10.3129 11.1527C10.6175 11.1527 10.8569 10.9132 10.8569 10.6243V7.8057C10.8569 7.5168 10.6175 7.27722 10.3129 7.27722C10.0155 7.27722 9.76886 7.5168 9.76886 7.8057V10.6243C9.76886 10.9132 10.0155 11.1527 10.3129 11.1527Z" fill="#6D48F5"/>
</svg>
