<svg width="18" height="18" viewBox="0 0 18 18" fill="none" xmlns="http://www.w3.org/2000/svg">
<path d="M2.38388 0.616117C1.89573 0.127961 1.10427 0.127961 0.616117 0.616116C0.127961 1.10427 0.127961 1.89573 0.616117 2.38388L7.23225 9.00002L0.616153 15.6161C0.127997 16.1043 0.127997 16.8957 0.616153 17.3839C1.10431 17.872 1.89576 17.872 2.38392 17.3839L9.00002 10.7678L15.6161 17.3839C16.1043 17.8721 16.8957 17.8721 17.3839 17.3839C17.872 16.8957 17.872 16.1043 17.3839 15.6161L10.7678 9.00002L17.3839 2.38388C17.8721 1.89573 17.8721 1.10427 17.3839 0.616118C16.8958 0.127963 16.1043 0.127963 15.6162 0.616118L9.00002 7.23225L2.38388 0.616117Z" fill="#FF2E4C"/>
</svg>
