<svg width="21" height="21" viewBox="0 0 21 21" fill="none" xmlns="http://www.w3.org/2000/svg">
<path fill-rule="evenodd" clip-rule="evenodd" d="M13.4877 6.88236C13.4877 8.84043 11.9267 10.4105 9.97996 10.4105C8.03321 10.4105 6.47222 8.84043 6.47222 6.88236C6.47222 4.92354 8.03321 3.35498 9.97996 3.35498C11.9267 3.35498 13.4877 4.92354 13.4877 6.88236ZM9.97982 16.6883C7.1205 16.6883 4.67903 16.235 4.67903 14.4217C4.67903 12.6078 7.10483 12.138 9.97982 12.138C12.8391 12.138 15.2806 12.5913 15.2806 14.4052C15.2806 16.2185 12.8548 16.6883 9.97982 16.6883ZM14.9865 6.946C14.9865 7.94417 14.6888 8.87405 14.1665 9.64707C14.1128 9.72662 14.1605 9.83395 14.2553 9.85046C14.3858 9.87297 14.5209 9.88573 14.6582 9.88948C16.0274 9.92551 17.2564 9.03916 17.5959 7.70476C18.0988 5.72268 16.6221 3.94323 14.7418 3.94323C14.5373 3.94323 14.3418 3.96499 14.1516 4.00402C14.1254 4.01002 14.0978 4.02203 14.0829 4.0453C14.065 4.07382 14.0784 4.11209 14.0963 4.13686C14.6612 4.93315 14.9865 5.9043 14.9865 6.946ZM17.2541 11.2821C18.1741 11.463 18.7793 11.8322 19.03 12.3688C19.2419 12.8094 19.2419 13.3205 19.03 13.7603C18.6464 14.5926 17.41 14.8598 16.9295 14.9288C16.8303 14.9438 16.7504 14.8575 16.7609 14.7577C17.0064 12.4514 15.0536 11.3579 14.5485 11.1065C14.5268 11.0952 14.5224 11.078 14.5246 11.0675C14.5261 11.0599 14.5351 11.0479 14.5515 11.0457C15.6446 11.0254 16.8198 11.1755 17.2541 11.2821ZM5.38674 9.88942C5.52404 9.88567 5.65835 9.87366 5.78968 9.85039C5.88444 9.83388 5.93219 9.72656 5.87847 9.64701C5.35615 8.87398 5.05843 7.94411 5.05843 6.94594C5.05843 5.90423 5.38376 4.93308 5.94861 4.13679C5.96652 4.11203 5.9792 4.07375 5.96204 4.04523C5.94712 4.02272 5.91876 4.00996 5.89339 4.00395C5.70237 3.96493 5.50688 3.94316 5.30243 3.94316C3.42208 3.94316 1.94541 5.72261 2.44908 7.7047C2.78858 9.0391 4.01752 9.92544 5.38674 9.88942ZM5.51958 11.0671C5.52182 11.0783 5.51735 11.0948 5.49645 11.1068C4.99055 11.3583 3.03783 12.4517 3.28332 14.7573C3.29376 14.8579 3.21467 14.9434 3.11543 14.9292C2.6349 14.8601 1.39849 14.5929 1.01496 13.7606C0.802304 13.3201 0.802304 12.8097 1.01496 12.3692C1.26568 11.8326 1.87007 11.4633 2.7901 11.2817C3.22511 11.1759 4.39958 11.0258 5.49347 11.046C5.50988 11.0483 5.51809 11.0603 5.51958 11.0671Z" fill="white"/>
</svg>
