<svg width="187" height="196" viewBox="0 0 187 196" fill="none" xmlns="http://www.w3.org/2000/svg">
<path d="M90.5 181C140.482 181 181 140.482 181 90.5C181 40.5182 140.482 0 90.5 0C40.5182 0 0 40.5182 0 90.5C0 140.482 40.5182 181 90.5 181Z" fill="#F7F4FF"/>
<path d="M46.0925 50.7217C48.8336 50.7217 51.0557 48.4996 51.0557 45.7586C51.0557 43.0175 48.8336 40.7954 46.0925 40.7954C43.3515 40.7954 41.1294 43.0175 41.1294 45.7586C41.1294 48.4996 43.3515 50.7217 46.0925 50.7217Z" fill="url(#paint0_linear)"/>
<path d="M113 153C115.761 153 118 150.761 118 148C118 145.239 115.761 143 113 143C110.239 143 108 145.239 108 148C108 150.761 110.239 153 113 153Z" fill="url(#paint1_linear)"/>
<path d="M127.388 64.0007C130.336 64.0007 132.727 61.6104 132.727 58.6617C132.727 55.7131 130.336 53.3228 127.388 53.3228C124.439 53.3228 122.049 55.7131 122.049 58.6617C122.049 61.6104 124.439 64.0007 127.388 64.0007Z" fill="url(#paint2_linear)"/>
<path d="M44.2851 85.7503C46.0279 85.7503 47.4407 84.3375 47.4407 82.5946C47.4407 80.8518 46.0279 79.439 44.2851 79.439C42.5422 79.439 41.1294 80.8518 41.1294 82.5946C41.1294 84.3375 42.5422 85.7503 44.2851 85.7503Z" fill="url(#paint3_linear)"/>
<g filter="url(#filter0_d)">
<path d="M120.207 50H58.7933C55.0415 50 52 52.9985 52 56.6975V125.303C52 129.001 55.0415 132 58.7933 132H120.207C123.959 132 127 129.001 127 125.303V56.6975C127 52.9985 123.959 50 120.207 50Z" fill="#5737D0"/>
</g>
<path d="M118.106 49.0459H56.5199C52.7575 49.0459 49.7075 52.0959 49.7075 55.8583V125.641C49.7075 129.403 52.7575 132.453 56.5199 132.453H118.106C121.868 132.453 124.918 129.403 124.918 125.641V55.8583C124.918 52.0959 121.868 49.0459 118.106 49.0459Z" fill="#6C47F5"/>
<path d="M88.0527 65.1698C95.5972 65.1698 101.713 59.0538 101.713 51.5092C101.713 43.9647 95.5972 37.8486 88.0527 37.8486C80.5082 37.8486 74.3921 43.9647 74.3921 51.5092C74.3921 59.0538 80.5082 65.1698 88.0527 65.1698Z" fill="#FF2E4C"/>
<path d="M88.0526 50.9912C90.1282 50.9912 91.8108 49.2872 91.8108 47.1853C91.8108 45.0833 90.1282 43.3794 88.0526 43.3794C85.977 43.3794 84.2944 45.0833 84.2944 47.1853C84.2944 49.2872 85.977 50.9912 88.0526 50.9912Z" fill="white"/>
<path d="M91.2738 51.6461C91.0784 51.5522 90.8636 51.506 90.6469 51.5111C90.4301 51.5163 90.2177 51.5728 90.0271 51.6759C89.415 51.9895 88.7372 52.153 88.0496 52.153C87.3619 52.153 86.6841 51.9895 86.072 51.6759C85.8814 51.5728 85.669 51.5163 85.4523 51.5111C85.2355 51.506 85.0207 51.5522 84.8253 51.6461C83.8447 52.1326 82.9831 52.8289 82.3017 53.6855C81.6203 54.5422 81.1357 55.5383 80.8822 56.6032C80.8319 56.8081 80.8285 57.0216 80.8722 57.2279C80.9159 57.4343 81.0056 57.6281 81.1346 57.7949C81.2636 57.9618 81.4286 58.0974 81.6173 58.1916C81.806 58.2858 82.0135 58.3363 82.2244 58.3391H93.9045C94.1158 58.3374 94.3239 58.2877 94.5132 58.1938C94.7025 58.0999 94.868 57.9643 94.9972 57.7972C95.1264 57.63 95.216 57.4357 95.2593 57.2289C95.3025 57.0221 95.2982 56.8082 95.2467 56.6032C94.9912 55.5351 94.5024 54.5367 93.8156 53.6796C93.1287 52.8226 92.2607 52.1281 91.2738 51.6461Z" fill="white"/>
<path d="M67.4482 73.9038L108.096 73.8501" stroke="white" stroke-width="4" stroke-linecap="round" stroke-linejoin="round"/>
<path d="M71.0454 83.1848L102.984 83.1431" stroke="white" stroke-width="4" stroke-linecap="round" stroke-linejoin="round"/>
<path opacity="0.1" d="M71.329 96.3529C64.3973 96.156 58.1516 92.887 55.5805 91.348C55.2067 91.1204 54.7774 91 54.3397 91C53.902 91 53.4728 91.1204 53.0989 91.348C50.5279 92.887 44.2822 96.156 37.3505 96.3529C36.7165 96.3716 36.1151 96.6383 35.6756 97.0956C35.2361 97.5529 34.9936 98.1645 35.0001 98.7987C35.0538 105.152 36.8434 122.219 52.9498 133.314C53.355 133.593 53.8356 133.743 54.3278 133.743C54.82 133.743 55.3005 133.593 55.7058 133.314C71.8122 122.219 73.6018 105.152 73.6674 98.7987C73.674 98.1665 73.4331 97.5567 72.9962 97.0997C72.5592 96.6427 71.9609 96.3747 71.329 96.3529Z" fill="#134175"/>
<path d="M69.9418 95.0032C63.0101 94.8063 56.7644 91.5373 54.1933 89.9982C53.8177 89.7756 53.3892 89.6582 52.9526 89.6582C52.5159 89.6582 52.0874 89.7756 51.7118 89.9982C49.1467 91.5373 42.901 94.8063 35.9633 95.0032C35.6484 95.0086 35.3377 95.0763 35.0491 95.2023C34.7604 95.3284 34.4997 95.5104 34.2817 95.7377C34.0638 95.9651 33.893 96.2334 33.7792 96.5271C33.6655 96.8208 33.611 97.1341 33.6189 97.4489C33.6547 103.832 35.4443 120.869 51.5507 131.97C51.9568 132.25 52.4384 132.4 52.9317 132.4C53.4249 132.4 53.9065 132.25 54.3126 131.97C70.419 120.869 72.2086 103.802 72.2683 97.4489C72.275 96.8187 72.0357 96.2106 71.6013 95.754C71.1669 95.2973 70.5716 95.028 69.9418 95.0032Z" fill="#FFD25E"/>
<path d="M67.848 96.9768C61.7693 96.8098 56.2931 93.9404 54.0442 92.5923C53.7148 92.3964 53.3387 92.293 52.9555 92.293C52.5723 92.293 52.1962 92.3964 51.8668 92.5923C49.6119 93.9404 44.1119 96.8098 38.0631 96.9768C37.5071 96.9939 36.9801 97.2285 36.5953 97.6301C36.2105 98.0316 35.9985 98.5681 36.005 99.1243C36.0587 104.696 37.6037 119.657 51.7475 129.386C52.0998 129.625 52.5153 129.752 52.9406 129.752C53.3659 129.752 53.7814 129.625 54.1337 129.386C68.2715 119.657 69.8225 104.696 69.8762 99.1243C69.8829 98.5731 69.6751 98.0409 69.2966 97.6401C68.9181 97.2394 68.3986 97.0015 67.848 96.9768Z" fill="#FFE7AB"/>
<path d="M52.9529 118.364C58.122 118.364 62.3125 114.173 62.3125 109.004C62.3125 103.835 58.122 99.6445 52.9529 99.6445C47.7837 99.6445 43.5933 103.835 43.5933 109.004C43.5933 114.173 47.7837 118.364 52.9529 118.364Z" fill="white"/>
<path d="M52.9526 119.043C50.9655 119.043 49.0231 118.454 47.3709 117.35C45.7188 116.245 44.4312 114.676 43.6711 112.84C42.9109 111.004 42.7124 108.984 43.1004 107.035C43.4885 105.086 44.4459 103.297 45.8514 101.892C47.2569 100.487 49.0474 99.5309 50.9965 99.144C52.9455 98.757 54.9655 98.9568 56.801 99.7181C58.6365 100.479 60.205 101.768 61.3081 103.421C62.4112 105.073 62.9994 107.016 62.9982 109.003C62.9951 111.666 61.9355 114.219 60.0521 116.101C58.1687 117.983 55.6153 119.041 52.9526 119.043ZM52.9526 100.33C51.2371 100.33 49.5602 100.838 48.1338 101.791C46.7074 102.745 45.5957 104.099 44.9392 105.684C44.2828 107.269 44.111 109.013 44.4457 110.695C44.7803 112.378 45.6064 113.923 46.8194 115.136C48.0325 116.349 49.578 117.176 51.2605 117.51C52.943 117.845 54.6869 117.673 56.2718 117.017C57.8567 116.36 59.2114 115.248 60.1644 113.822C61.1175 112.396 61.6262 110.719 61.6262 109.003C61.6246 106.703 60.7103 104.498 59.084 102.872C57.4577 101.246 55.2525 100.331 52.9526 100.33Z" fill="#FFD25E"/>
<path d="M52.9525 109.338C54.4219 109.338 55.6131 108.147 55.6131 106.677C55.6131 105.208 54.4219 104.017 52.9525 104.017C51.4832 104.017 50.292 105.208 50.292 106.677C50.292 108.147 51.4832 109.338 52.9525 109.338Z" fill="#FFD25E"/>
<path d="M52.9524 114.569C52.8023 114.569 52.6536 114.539 52.515 114.482C52.3764 114.424 52.2505 114.34 52.1446 114.233C52.0387 114.127 51.9549 114 51.898 113.862C51.8411 113.723 51.8122 113.574 51.813 113.424V106.683C51.8339 106.394 51.9633 106.124 52.1752 105.927C52.3872 105.73 52.6659 105.62 52.9554 105.62C53.2448 105.62 53.5236 105.73 53.7355 105.927C53.9474 106.124 54.0768 106.394 54.0977 106.683V113.424C54.0977 113.727 53.9771 114.019 53.7623 114.234C53.5475 114.448 53.2561 114.569 52.9524 114.569Z" fill="#FFD25E"/>
<path d="M57.713 137.655C60.9812 137.655 63.6306 135.006 63.6306 131.737C63.6306 128.469 60.9812 125.82 57.713 125.82C54.4448 125.82 51.7954 128.469 51.7954 131.737C51.7954 135.006 54.4448 137.655 57.713 137.655Z" fill="url(#paint4_linear)"/>
<path d="M75.3607 35.7213C77.769 35.7213 79.7213 33.769 79.7213 31.3607C79.7213 28.9523 77.769 27 75.3607 27C72.9523 27 71 28.9523 71 31.3607C71 33.769 72.9523 35.7213 75.3607 35.7213Z" fill="url(#paint5_linear)"/>
<path d="M139.999 107.273C142.598 107.273 144.705 105.166 144.705 102.567C144.705 99.9671 142.598 97.8599 139.999 97.8599C137.399 97.8599 135.292 99.9671 135.292 102.567C135.292 105.166 137.399 107.273 139.999 107.273Z" fill="url(#paint6_linear)"/>
<g filter="url(#filter1_d)">
<path d="M143.235 135.931L94.7835 136C92.6977 136 91.0061 133.387 91 130.164V110.911C91 107.682 92.6856 105.069 94.7713 105.063L143.223 105C145.302 105 146.994 107.607 147 110.83V130.089C147.006 133.312 145.314 135.925 143.235 135.931Z" fill="#ED833B"/>
</g>
<g filter="url(#filter2_d)">
<path d="M140.518 135.836L93.9345 135.901C91.5842 135.901 89.6753 132.805 89.6753 128.975V110.787C89.6753 106.957 91.5782 103.849 93.9286 103.843L140.512 103.778C142.862 103.778 144.771 106.874 144.771 110.704V128.898C144.771 132.728 142.868 135.836 140.518 135.836Z" fill="#FF8D40"/>
</g>
<path d="M140.559 111.95C140.419 111.818 140.255 111.715 140.075 111.647C139.895 111.579 139.703 111.547 139.511 111.553C139.318 111.559 139.129 111.603 138.954 111.682C138.779 111.762 138.621 111.875 138.489 112.016L129.1 122.055L125.616 117.88C125.359 117.608 125.008 117.444 124.634 117.423C124.26 117.402 123.892 117.524 123.606 117.765C123.319 118.005 123.136 118.347 123.092 118.718C123.049 119.09 123.15 119.464 123.373 119.765L127.716 124.943C127.789 125.092 127.888 125.227 128.008 125.342C128.281 125.595 128.639 125.735 129.01 125.736H129.064C129.408 125.736 129.742 125.615 130.007 125.396C130.128 125.289 130.232 125.164 130.317 125.026L140.637 113.996C140.893 113.712 141.028 113.34 141.014 112.957C140.999 112.575 140.836 112.214 140.559 111.95Z" fill="white"/>
<path d="M95.9007 119.12L112.209 118.967" stroke="white" stroke-width="4" stroke-linecap="round" stroke-linejoin="round"/>
<path d="M96 111H117" stroke="white" stroke-width="4" stroke-linecap="round" stroke-linejoin="round"/>
<path d="M96 127H117" stroke="white" stroke-width="4" stroke-linecap="round" stroke-linejoin="round"/>
<defs>
<filter id="filter0_d" x="44" y="46" width="91" height="98" filterUnits="userSpaceOnUse" color-interpolation-filters="sRGB">
<feFlood flood-opacity="0" result="BackgroundImageFix"/>
<feColorMatrix in="SourceAlpha" type="matrix" values="0 0 0 0 0 0 0 0 0 0 0 0 0 0 0 0 0 0 127 0"/>
<feOffset dy="4"/>
<feGaussianBlur stdDeviation="4"/>
<feColorMatrix type="matrix" values="0 0 0 0 0 0 0 0 0 0 0 0 0 0 0 0 0 0 0.12 0"/>
<feBlend mode="normal" in2="BackgroundImageFix" result="effect1_dropShadow"/>
<feBlend mode="normal" in="SourceGraphic" in2="effect1_dropShadow" result="shape"/>
</filter>
<filter id="filter1_d" x="51" y="85" width="136" height="111" filterUnits="userSpaceOnUse" color-interpolation-filters="sRGB">
<feFlood flood-opacity="0" result="BackgroundImageFix"/>
<feColorMatrix in="SourceAlpha" type="matrix" values="0 0 0 0 0 0 0 0 0 0 0 0 0 0 0 0 0 0 127 0"/>
<feOffset dy="20"/>
<feGaussianBlur stdDeviation="20"/>
<feColorMatrix type="matrix" values="0 0 0 0 0 0 0 0 0 0 0 0 0 0 0 0 0 0 0.04 0"/>
<feBlend mode="normal" in2="BackgroundImageFix" result="effect1_dropShadow"/>
<feBlend mode="normal" in="SourceGraphic" in2="effect1_dropShadow" result="shape"/>
</filter>
<filter id="filter2_d" x="49.6753" y="83.7778" width="135.096" height="112.123" filterUnits="userSpaceOnUse" color-interpolation-filters="sRGB">
<feFlood flood-opacity="0" result="BackgroundImageFix"/>
<feColorMatrix in="SourceAlpha" type="matrix" values="0 0 0 0 0 0 0 0 0 0 0 0 0 0 0 0 0 0 127 0"/>
<feOffset dy="20"/>
<feGaussianBlur stdDeviation="20"/>
<feColorMatrix type="matrix" values="0 0 0 0 0 0 0 0 0 0 0 0 0 0 0 0 0 0 0.04 0"/>
<feBlend mode="normal" in2="BackgroundImageFix" result="effect1_dropShadow"/>
<feBlend mode="normal" in="SourceGraphic" in2="effect1_dropShadow" result="shape"/>
</filter>
<linearGradient id="paint0_linear" x1="46.0925" y1="40.7954" x2="46.0925" y2="50.7217" gradientUnits="userSpaceOnUse">
<stop stop-color="#D9E0FF"/>
<stop offset="1" stop-color="#D9E0FF" stop-opacity="0"/>
</linearGradient>
<linearGradient id="paint1_linear" x1="113" y1="143" x2="113" y2="153" gradientUnits="userSpaceOnUse">
<stop stop-color="#D9E0FF"/>
<stop offset="1" stop-color="#D9E0FF" stop-opacity="0"/>
</linearGradient>
<linearGradient id="paint2_linear" x1="127.388" y1="53.3228" x2="127.388" y2="64.0007" gradientUnits="userSpaceOnUse">
<stop stop-color="#D9E0FF"/>
<stop offset="1" stop-color="#D9E0FF" stop-opacity="0"/>
</linearGradient>
<linearGradient id="paint3_linear" x1="44.2851" y1="79.439" x2="44.2851" y2="85.7503" gradientUnits="userSpaceOnUse">
<stop stop-color="#D9E0FF"/>
<stop offset="1" stop-color="#D9E0FF" stop-opacity="0"/>
</linearGradient>
<linearGradient id="paint4_linear" x1="57.713" y1="125.82" x2="57.713" y2="137.655" gradientUnits="userSpaceOnUse">
<stop stop-color="#D9E0FF"/>
<stop offset="1" stop-color="#D9E0FF" stop-opacity="0"/>
</linearGradient>
<linearGradient id="paint5_linear" x1="75.3607" y1="27" x2="75.3607" y2="35.7213" gradientUnits="userSpaceOnUse">
<stop stop-color="#D9E0FF"/>
<stop offset="1" stop-color="#D9E0FF" stop-opacity="0"/>
</linearGradient>
<linearGradient id="paint6_linear" x1="139.999" y1="97.8599" x2="139.999" y2="107.273" gradientUnits="userSpaceOnUse">
<stop stop-color="#D9E0FF"/>
<stop offset="1" stop-color="#D9E0FF" stop-opacity="0"/>
</linearGradient>
</defs>
</svg>
